<svg width="13" height="16" viewBox="0 0 13 16" fill="none" xmlns="http://www.w3.org/2000/svg">
<path d="M10.7368 6.15771V4.65771C10.7368 3.66315 10.3417 2.70933 9.63847 2.00606C8.9352 1.3028 7.98138 0.907715 6.98682 0.907715C5.99225 0.907715 5.03843 1.3028 4.33517 2.00606C3.6319 2.70933 3.23682 3.66315 3.23682 4.65771V6.15771C2.64008 6.15771 2.06778 6.39477 1.64583 6.81672C1.22387 7.23868 0.986816 7.81098 0.986816 8.40771V13.6577C0.986816 14.2545 1.22387 14.8267 1.64583 15.2487C2.06778 15.6707 2.64008 15.9077 3.23682 15.9077H10.7368C11.3336 15.9077 11.9058 15.6707 12.3278 15.2487C12.7498 14.8267 12.9868 14.2545 12.9868 13.6577V8.40771C12.9868 7.81098 12.7498 7.23868 12.3278 6.81672C11.9058 6.39477 11.3336 6.15771 10.7368 6.15771ZM4.73682 4.65771C4.73682 4.06098 4.97387 3.48868 5.39583 3.06672C5.81778 2.64477 6.39008 2.40771 6.98682 2.40771C7.58355 2.40771 8.15585 2.64477 8.57781 3.06672C8.99976 3.48868 9.23682 4.06098 9.23682 4.65771V6.15771H4.73682V4.65771ZM11.4868 13.6577C11.4868 13.8566 11.4078 14.0474 11.2671 14.188C11.1265 14.3287 10.9357 14.4077 10.7368 14.4077H3.23682C3.0379 14.4077 2.84714 14.3287 2.70649 14.188C2.56583 14.0474 2.48682 13.8566 2.48682 13.6577V8.40771C2.48682 8.2088 2.56583 8.01804 2.70649 7.87738C2.84714 7.73673 3.0379 7.65771 3.23682 7.65771H10.7368C10.9357 7.65771 11.1265 7.73673 11.2671 7.87738C11.4078 8.01804 11.4868 8.2088 11.4868 8.40771V13.6577Z" fill="#C1C1C1"/>
</svg>
