<svg width="20" height="20" viewBox="0 0 20 20" fill="none" xmlns="http://www.w3.org/2000/svg">
<g clip-path="url(#clip0_163_1781)">
<path fill-rule="evenodd" clip-rule="evenodd" d="M1.78564 11.1906C1.78564 12.7685 3.06483 14.0477 4.64279 14.0477L5.30276 14.0477C5.66017 14.0477 6.00461 14.1817 6.26808 14.4232L8.81144 16.7546C9.25098 17.1575 9.82559 17.381 10.4219 17.381C11.4172 17.381 12.3559 16.7478 12.6008 15.7064C12.8743 14.5438 13.2142 12.5797 13.2142 10.0001C13.2142 7.42046 12.8743 5.45643 12.6008 4.29379C12.3559 3.25237 11.4172 2.61914 10.4219 2.61914C9.82559 2.61914 9.25098 2.84265 8.81144 3.24557L6.26808 5.57698C6.00461 5.8185 5.66017 5.95247 5.30276 5.95247L4.64279 5.95247C3.06483 5.95247 1.78564 7.23166 1.78564 8.80962L1.78564 11.1906ZM4.64279 12.6191C3.85381 12.6191 3.21422 11.9795 3.21422 11.1906L3.21422 8.80962C3.21422 8.02064 3.85381 7.38104 4.64279 7.38104L5.30276 7.38104C6.01759 7.38104 6.70646 7.11309 7.2334 6.63006L9.77676 4.29864C9.95283 4.13725 10.183 4.04771 10.4219 4.04771C10.8301 4.04771 11.1338 4.29593 11.2102 4.62085C11.4621 5.69207 11.7856 7.54568 11.7856 10.0001C11.7856 12.4545 11.4621 14.3081 11.2102 15.3793C11.1338 15.7042 10.8301 15.9525 10.4219 15.9525C10.183 15.9525 9.95283 15.8629 9.77676 15.7015L7.2334 13.3701C6.70646 12.8871 6.01759 12.6191 5.30276 12.6191L4.64279 12.6191Z" fill="white"/>
<path d="M17.1944 5.18776C17.551 5.01905 17.9769 5.17135 18.1456 5.52794C18.7536 6.81297 19.0458 8.41673 19.0475 9.99094C19.0493 11.5652 18.7605 13.1755 18.1453 14.4728C17.9763 14.8293 17.5503 14.9812 17.1939 14.8122C16.8374 14.6431 16.6855 14.2172 16.8545 13.8607C17.357 12.8011 17.6205 11.4121 17.619 9.9925C17.6174 8.57291 17.3508 7.18845 16.8543 6.13891C16.6856 5.78232 16.8379 5.35647 17.1944 5.18776Z" fill="white"/>
<path d="M14.6805 13.139C14.3277 12.9625 14.1846 12.5335 14.3611 12.1806C15.0938 10.7151 15.0938 9.2851 14.3611 7.81952C14.1846 7.46668 14.3277 7.03763 14.6805 6.86121C15.0333 6.68479 15.4624 6.82781 15.6388 7.18065C16.5727 9.0484 16.5727 10.9518 15.6388 12.8195C15.4624 13.1724 15.0333 13.3154 14.6805 13.139Z" fill="white"/>
</g>
<defs>
<clipPath id="clip0_163_1781">
<rect width="20" height="20" fill="white"/>
</clipPath>
</defs>
</svg>
