<svg width="282" height="469" viewBox="0 0 282 469" fill="none" xmlns="https://www.w3.org/2000/svg">
<path d="M263.514 172.631L203.946 146.036V260.598L282 309.696L263.514 172.631Z" fill="#FB5A21"/>
<path d="M16.6974 172.631L70.5 146.036V260.598L0 309.696L16.6974 172.631Z" fill="#FB5A21"/>
<path d="M138.482 309.816V285.357V260.898V0C138.482 0 100.44 16.1995 74.5713 93.1474C59.6895 137.414 52.9382 178.746 49.148 222.171C46.7123 250.077 48.0686 279.242 50.0341 309.816H67.7237V326.122H88.4582V342.429H138.482V326.122V309.816Z" fill="#DCDFD9"/>
<path d="M138.482 309.816L138.482 285.357V260.898L138.482 0C138.482 0 177.581 16.1995 204.168 93.1474C219.464 137.414 226.402 178.746 230.298 222.171C232.801 250.077 231.407 279.242 229.387 309.816H211.206L211.206 326.122H189.896V342.429H138.482V326.122V309.816Z" fill="#F9F1F9"/>
<path d="M118.402 367.607C131.778 367.607 141.038 367.607 163.674 367.607C188.587 367.607 169.848 439.381 163.674 439.381C157.501 439.381 141.038 468.321 141.038 468.321C141.038 468.321 127.663 439.381 118.402 439.381C109.142 439.381 95.2909 367.607 118.402 367.607Z" fill="#E36018"/>
<path d="M122.333 367.607C133.382 367.607 141.032 367.607 159.731 367.607C180.311 367.607 164.831 421.437 159.731 421.437C154.631 421.437 141.032 443.143 141.032 443.143C141.032 443.143 129.982 421.437 122.333 421.437C114.683 421.437 103.24 367.607 122.333 367.607Z" fill="#FFAE44"/>
<path d="M128.227 367.607C135.788 367.607 141.022 367.607 153.816 367.607C167.897 367.607 157.305 403.494 153.816 403.494C150.326 403.494 141.022 417.964 141.022 417.964C141.022 417.964 133.461 403.494 128.227 403.494C122.993 403.494 115.164 367.607 128.227 367.607Z" fill="#FCE25E"/>
<path d="M98.1964 342.429H181.286L176.25 372.643H105.75L98.1964 342.429Z" fill="#5B6575"/>
<circle cx="139" cy="85.6071" r="35.2857" fill="#00D5CC" stroke="#5B6575" stroke-width="10"/>
<path d="M120.375 175.525L138 148.554L155.625 175.525L138 347.464L120.375 175.525Z" fill="#FB5A21"/>
</svg>
