<svg width="106" height="106" viewBox="0 0 106 106" fill="none" xmlns="http://www.w3.org/2000/svg">
<path fill-rule="evenodd" clip-rule="evenodd" d="M106 53.0001C106 68.3186 99.5148 82.0718 89.1161 91.7997C84.1962 96.384 78.2701 100.074 71.7848 102.534C65.9705 104.77 59.5971 106 53 106C50.6519 106 48.3038 105.888 46.0675 105.553C35.8924 104.211 26.5 99.9621 19.0084 93.5887C13.5295 89.0043 8.94515 83.3018 5.70253 76.9283C3.68987 72.903 2.12447 68.5423 1.11814 63.9579C0.335443 60.3798 -1.97431e-09 56.8018 -1.84191e-09 53.0001C-1.47586e-09 42.4895 3.01899 32.7617 8.27426 24.5992C10.5105 21.133 13.0823 17.8904 16.1013 15.095C25.6055 5.81441 38.6878 0.111877 53 0.111877C54.1182 0.111877 55.3481 0.11188 56.4663 0.223694C62.5042 0.559137 68.2068 2.01272 73.5739 4.24901C74.4684 4.58445 75.3629 5.03171 76.2574 5.47897C81.4009 7.93888 86.0971 11.2933 90.1224 15.3186C99.962 24.8229 106 38.2406 106 53.0001Z" fill="url(#paint0_radial_1_799)"/>
<path fill-rule="evenodd" clip-rule="evenodd" d="M25.0465 88.1098C20.5739 88.1098 12.4114 81.6246 8.49793 73.3503C3.68991 62.9516 3.5781 51.9938 5.9262 49.9811C6.59709 49.422 7.4916 49.0866 8.60974 49.0866C9.28063 49.0866 10.1751 49.1984 10.9578 49.422C16.5486 51.0992 24.3756 58.8144 27.73 66.6414C30.9726 74.2448 30.0781 80.2828 29.0718 83.9727C28.4009 87.4389 26.5 88.1098 25.0465 88.1098Z" fill="url(#paint1_linear_1_799)"/>
<path fill-rule="evenodd" clip-rule="evenodd" d="M28.4009 83.749C27.8419 85.8734 26.8355 87.2152 25.0465 87.2152C21.2448 87.2152 13.1942 81.1772 9.39248 72.903C4.47265 62.5042 4.80809 52.2173 6.59712 50.6519C7.49164 49.8692 9.05704 49.7574 10.8461 50.3164C16.5486 51.9937 25.1583 59.2616 26.9473 66.865C28.6246 73.2384 29.4073 79.9473 28.4009 83.749Z" fill="url(#paint2_linear_1_799)"/>
<path fill-rule="evenodd" clip-rule="evenodd" d="M10.0632 45.6202C9.50414 45.6202 8.94506 45.3966 8.60962 44.9494C7.15603 43.2721 9.28051 37.346 10.175 35.2215C11.6286 31.8671 13.194 30.078 14.5358 30.078C15.0949 30.078 15.5421 30.3017 15.9894 30.6371L16.213 30.8608C17.7784 32.4262 18.5611 36.116 17.1075 39.0232C15.9894 41.1477 12.7468 44.8376 10.5105 45.3966C10.5105 45.6203 10.2868 45.6202 10.0632 45.6202Z" fill="url(#paint3_linear_1_799)"/>
<path fill-rule="evenodd" clip-rule="evenodd" d="M16.7721 38.7997C15.7658 40.8123 12.4114 44.5022 10.3987 45.0613C9.83963 45.1731 9.39237 45.1731 9.16874 44.8377C7.71515 43.0486 11.9641 30.8609 14.8713 30.749C15.3185 30.749 15.7658 30.9727 16.1012 31.3081C17.3312 32.5381 18.1139 36.0043 16.7721 38.7997Z" fill="url(#paint4_linear_1_799)"/>
<path fill-rule="evenodd" clip-rule="evenodd" d="M84.9791 86.768C83.19 86.768 81.8483 86.0971 81.2892 84.7553C80.171 82.2954 80.7301 73.2384 84.3082 65.2996C89.5635 53.4473 96.9432 50.3165 99.9622 50.3165C100.186 50.3165 100.409 50.3165 100.521 50.3165C100.633 50.3165 100.745 50.3165 100.857 50.4283C101.639 50.6519 102.422 51.3228 102.869 52.3291C104.994 56.6899 103.764 67.4241 100.298 74.9156C97.2787 81.9599 89.7871 86.768 84.9791 86.768Z" fill="url(#paint5_linear_1_799)"/>
<path fill-rule="evenodd" clip-rule="evenodd" d="M99.6265 74.692C95.3775 83.8608 84.0843 88.4452 82.1834 84.4198C81.1771 82.4072 81.6243 73.7975 85.2024 65.7468C90.5695 53.7827 97.9492 50.9873 100.521 51.3228L100.633 51.3228C104.323 52.3291 103.764 65.635 99.6265 74.692Z" fill="url(#paint6_linear_1_799)"/>
<path fill-rule="evenodd" clip-rule="evenodd" d="M98.8439 49.6456C98.3966 49.6456 98.0612 49.5338 97.7257 49.3102C95.4894 47.9684 94.0359 39.3587 95.6013 36.6752C96.0485 35.8925 96.6076 35.6688 96.943 35.6688C97.0549 35.6688 97.2785 35.6688 97.5021 35.6688C99.962 35.6688 102.422 38.576 103.316 42.3777C103.876 45.0612 102.757 47.2975 101.416 48.4157C100.633 49.1984 99.7384 49.6456 98.8439 49.6456Z" fill="url(#paint7_linear_1_799)"/>
<path fill-rule="evenodd" clip-rule="evenodd" d="M100.857 47.7447C99.9621 48.6392 98.9557 48.9746 98.2848 48.5274C96.4958 47.5211 95.154 39.4704 96.4958 37.1223C96.7194 36.7869 96.9431 36.5633 97.1667 36.5633C98.9557 36.2278 101.527 38.5759 102.422 42.6012C102.869 44.7257 101.975 46.6265 100.857 47.7447Z" fill="url(#paint8_linear_1_799)"/>
<path fill-rule="evenodd" clip-rule="evenodd" d="M56.3545 105.329C56.019 105.329 55.6836 105.329 55.3482 105.329C49.8693 105.217 45.7321 102.869 45.0612 100.857C44.8376 100.074 44.9494 99.2912 45.5085 98.8439C47.1857 97.3904 54.23 97.2785 55.6836 97.2785C60.268 97.2785 65.8587 97.7258 66.306 99.8503C66.4178 100.409 66.4178 101.192 65.5233 102.198C64.2933 103.428 62.6161 105.329 56.3545 105.329Z" fill="url(#paint9_linear_1_799)"/>
<path fill-rule="evenodd" clip-rule="evenodd" d="M64.8523 101.416C63.5106 102.869 61.9451 104.547 55.3481 104.435C48.9747 104.211 44.5021 100.857 46.0675 99.5148C48.192 97.7258 64.7405 97.614 65.2996 100.074C65.5232 100.409 65.4114 100.968 64.8523 101.416Z" fill="url(#paint10_linear_1_799)"/>
<path fill-rule="evenodd" clip-rule="evenodd" d="M82.0719 53.7827C78.4938 53.7827 75.8102 52.1055 74.3567 49.0865C71.0022 41.7067 71.0022 27.3945 73.4621 21.6919C74.133 20.2384 74.8039 19.3438 75.6984 19.0084C76.5929 18.673 77.4875 18.4493 78.4938 18.4493C81.6246 18.4493 84.8672 20.5738 87.8862 24.4873C92.806 30.9725 96.2723 41.4831 94.9305 46.1793C94.4832 47.6329 93.2533 49.3101 91.2406 50.6519C88.4453 52.5527 85.0908 53.7827 82.0719 53.7827Z" fill="url(#paint11_linear_1_799)"/>
<path fill-rule="evenodd" clip-rule="evenodd" d="M94.0358 45.8439C93.7003 47.1857 92.4704 48.6393 90.6813 49.8693C86.0969 53.2237 78.0463 55.0127 75.1391 48.7511C71.8965 41.595 71.8965 27.6182 74.2446 22.0275C74.6919 20.9093 75.3628 20.1266 76.0336 19.7912C85.9851 15.6541 95.9366 38.9114 94.0358 45.8439Z" fill="url(#paint12_linear_1_799)"/>
<path fill-rule="evenodd" clip-rule="evenodd" d="M28.4007 83.749C23.2573 85.6498 15.2066 79.1646 11.0695 68.5422C7.37962 59.2616 10.175 51.8819 10.9577 50.3165C16.6602 51.9937 25.2699 59.2616 27.059 66.865C28.6244 73.2384 29.4071 79.9473 28.4007 83.749Z" fill="#FFFF45"/>
<path fill-rule="evenodd" clip-rule="evenodd" d="M64.8524 101.416C53.8945 104.77 46.0675 99.403 46.0675 99.403C48.192 97.6139 64.7405 97.5021 65.2996 99.962C65.5232 100.409 65.4114 100.968 64.8524 101.416Z" fill="#FFFF45"/>
<path fill-rule="evenodd" clip-rule="evenodd" d="M97.8375 73.7975C90.3459 85.9852 82.0717 84.4198 82.0717 84.4198C81.0653 82.4072 81.5126 73.7975 85.0906 65.7468C90.4577 53.7827 97.8375 50.9873 100.409 51.3228L100.521 51.3228C102.086 55.9072 103.205 65.0759 97.8375 73.7975Z" fill="#FFFF45"/>
<path fill-rule="evenodd" clip-rule="evenodd" d="M90.6813 49.8692C86.0969 53.2237 78.0463 55.0127 75.1391 48.7511C71.8965 41.595 71.8965 27.6182 74.2446 22.0275C76.2573 21.8038 80.1708 22.4747 84.5315 28.9599C90.7931 37.9051 92.8058 44.7258 90.6813 49.8692Z" fill="#FFFF45"/>
<path fill-rule="evenodd" clip-rule="evenodd" d="M100.857 47.7448C99.9621 48.6393 98.9557 48.9748 98.2848 48.5275C96.4958 47.5212 95.154 39.4706 96.4958 37.1225C97.8376 37.9052 99.962 39.5824 100.521 42.6014C100.745 44.5022 100.857 46.2912 100.857 47.7448Z" fill="#FFFF45"/>
<path fill-rule="evenodd" clip-rule="evenodd" d="M16.7722 38.7996C15.7658 40.8123 12.4114 44.5022 10.3987 45.0612C10.5106 44.2785 12.076 34.7743 15.9895 31.3081C17.3312 32.538 18.1139 36.0043 16.7722 38.7996Z" fill="#FFFF45"/>
<path opacity="0.3" fill-rule="evenodd" clip-rule="evenodd" d="M80.5064 65.5232C79.9473 66.7532 79.3882 67.8713 78.6055 68.9895C77.9346 69.7722 77.1519 70.4431 76.7047 71.3376C75.0275 74.4684 75.3629 78.0464 74.4684 81.2891C73.9093 83.0781 72.5675 84.5317 72.0085 86.3207C71.7848 87.1034 71.8967 87.8861 71.8967 88.7806C71.8967 89.787 71.3376 90.4578 70.7785 91.2405C70.1076 92.1351 69.2131 92.6941 68.2068 93.1414C67.4241 93.4768 66.5296 93.365 65.635 93.365C63.7342 93.365 61.9452 93.1414 60.0443 92.5823C58.3671 92.1351 56.8017 91.3523 55.1245 90.7933C54.0064 90.4578 53.1118 90.5696 51.9937 90.7933C50.9874 91.0169 49.8692 90.9051 48.8629 90.9051C47.0739 90.9051 45.3966 91.9114 43.8312 92.6941C42.7131 93.2532 41.9304 93.9241 41.4831 95.1541C40.9241 96.6076 40.9241 97.9494 39.2469 98.5085C38.2405 98.8439 37.0106 98.5085 36.0042 98.2849C35.1097 98.0612 34.1034 98.173 33.2089 98.173C31.4198 98.173 29.7426 97.614 28.0654 96.8313C26.1646 95.8249 24.4874 94.3713 23.0338 92.9178C22.2511 92.1351 21.1329 91.6878 20.3502 90.9051C19.2321 89.8988 18.0021 88.8924 16.9958 87.8861C15.3186 86.2089 13.5296 84.5317 11.7405 82.9663C10.3987 81.9599 9.2806 80.6182 8.16246 79.3882C7.26794 78.3819 6.70887 76.9283 6.03798 75.6983C4.69621 73.3502 3.57807 70.6667 2.90718 67.9831C2.12448 64.9642 1.22997 61.7215 1.34178 58.5907C1.34178 55.9072 1.00634 53.4473 1.00634 50.7637C0.782709 55.7954 1.00634 59.9325 1.56541 63.846C0.782709 60.268 0.447266 56.6899 0.447266 52.8882C0.447266 42.3777 3.46626 32.6498 8.72153 24.4874C10.9578 21.0211 13.5295 17.7785 16.5485 14.9831C26.0528 5.70255 39.135 1.52601e-05 53.4473 1.52606e-05C54.5654 1.52607e-05 55.7954 1.35529e-05 56.9135 0.111828C62.9515 0.447271 68.654 1.90086 74.0211 4.13715C75.3629 5.59073 76.7047 7.26795 77.711 8.94516C78.1583 9.61605 78.3819 10.3987 78.8292 11.0696C79.1646 11.7405 79.6118 11.9642 79.5 12.7469C79.3882 13.1941 79.1646 13.7532 78.941 14.2004C78.3819 15.654 76.7047 16.6604 75.4747 17.4431C73.6857 18.5612 71.673 19.0085 69.7722 20.0148C68.5422 20.6857 68.2068 21.2447 67.3123 22.2511C66.865 22.8101 66.3059 23.1456 65.9705 23.7047C64.9642 25.2701 64.4051 27.5064 64.5169 29.2954C64.6287 32.8734 67.4241 35.4452 68.095 38.7996C68.654 41.7068 68.2068 44.8376 69.2131 47.6329C70.2194 50.8756 73.0148 53.4473 75.6983 55.3481C76.8165 56.1308 77.8228 56.8017 78.8292 57.6962C79.7237 58.5907 80.9536 59.038 81.6245 60.1561C82.1836 61.9452 81.1773 63.846 80.5064 65.5232Z" fill="url(#paint13_linear_1_799)"/>
<path fill-rule="evenodd" clip-rule="evenodd" d="M76.2575 5.36705C76.0338 5.36705 75.922 5.36705 75.6984 5.47887C75.1393 5.59068 74.5802 5.47887 74.0212 5.36705C73.5739 5.25524 73.3503 5.03161 72.7912 5.03161C72.1203 4.9198 71.5613 4.69617 70.8904 4.58435C70.2195 4.47254 69.6604 4.24891 68.9895 4.02528C68.4305 3.80165 68.2068 3.91347 67.7596 4.02528C67.3123 4.13709 66.9769 3.91346 66.5296 3.80165C66.0824 3.57802 65.5233 3.57802 65.076 3.46621C63.7342 3.24258 62.3925 2.79532 61.0507 2.45988C60.268 2.23625 59.4853 2.23625 58.5908 2.23625C57.9199 2.23625 57.3608 2.45988 56.6899 2.45988C56.2427 2.45988 55.9072 2.34806 55.46 2.34806C55.0127 2.23625 54.5655 2.34806 54.1182 2.34806C53.4473 2.23625 53.1119 2.12444 52.441 2.34806C51.8819 2.45988 51.5465 2.45988 50.9874 2.57169C50.4283 2.57169 49.7575 2.79532 49.1984 2.90714C48.1921 3.13076 47.0739 3.3544 46.0676 3.3544C45.3967 3.3544 44.5022 3.13077 43.9431 3.3544C43.6077 3.46621 43.384 3.91347 43.0486 4.1371C42.4895 4.69617 41.9304 5.14342 41.4832 5.7025C41.0359 6.26157 40.5887 6.93245 40.5887 7.71515C40.5887 8.38604 40.9241 9.16874 41.2596 9.72782C41.595 10.3987 41.7068 10.9578 41.0359 11.405C40.2532 11.9641 39.2469 12.4114 38.3524 12.7468C37.6815 12.9704 37.1224 13.0822 36.6752 12.635C36.4515 12.5232 36.3397 12.1877 36.1161 11.9641C35.8925 11.8523 35.557 11.9641 35.3334 12.0759C34.6625 12.2995 33.9916 12.5232 33.3207 12.635C32.8735 12.7468 32.538 12.9704 32.0908 12.9704C31.6435 13.0822 31.3081 12.7468 30.749 12.8586C30.0781 12.9704 29.2954 13.3059 28.6245 13.3059C28.0655 13.3059 27.3946 13.0822 26.9473 12.8586C26.7237 12.7468 26.6119 12.5232 26.2764 12.635C26.0528 12.635 25.7174 12.9704 25.6056 13.1941C25.3819 13.4177 25.3819 13.7531 25.1583 13.9768C24.9347 14.3122 24.8229 14.5358 24.5992 14.8713C24.2638 15.4303 23.9283 15.9894 23.5929 16.5485C23.3693 16.8839 23.1456 17.443 22.8102 17.7784C22.6984 18.0021 22.3629 18.1139 22.1393 18.2257C21.5802 18.5611 21.0212 19.0084 20.4621 19.3438C19.4558 20.1266 18.4494 21.0211 17.4431 21.8038C16.6604 22.3628 15.5423 22.6983 14.6477 23.1455C14.0887 23.3692 13.5296 23.5928 12.9705 23.8164C12.7469 23.9282 12.4115 23.9282 12.2996 24.1519C12.076 24.3755 11.9642 24.5991 11.8524 24.9346C11.4051 25.4936 10.8461 26.1645 10.5106 26.8354C10.287 27.2827 10.1752 27.6181 9.95154 28.0654C9.72791 28.6244 9.39247 29.1835 9.28066 29.8544C8.8334 31.0844 8.8334 32.4261 8.27432 33.6561C8.0507 34.327 7.60344 34.9979 7.268 35.6687C6.70893 36.7869 6.59711 38.1287 6.4853 39.3586C6.37348 40.0295 6.48529 40.924 6.59711 41.5949C6.70892 42.3776 6.70893 43.1603 6.70893 43.943C6.70893 44.7257 6.14985 45.6202 5.7026 46.1793C5.25534 46.7384 4.47264 46.962 3.91357 47.5211C3.46631 47.9683 2.90724 48.4156 2.68361 49.0865C2.57179 49.3101 2.68361 49.6455 2.68361 49.981C2.57179 50.6519 2.34816 51.2109 2.34816 51.8818C2.23635 52.6645 2.23635 53.4472 2.23635 54.3418C2.23635 54.789 2.23635 55.1244 2.23635 55.5717C2.23635 56.019 2.34816 56.3544 2.45998 56.6898C2.45998 56.9135 2.45998 57.2489 2.45998 57.4725C2.45998 57.808 2.68361 58.1434 2.68361 58.3671C2.90724 59.1498 3.01905 59.8207 3.13087 60.6034C3.24268 61.2742 3.57812 61.9451 3.68994 62.616C4.02538 63.5105 4.13719 64.405 4.36082 65.4114C4.47264 66.0823 4.47264 66.865 4.58445 67.5358C4.69627 68.0949 4.80808 68.654 4.80808 69.2131C4.80808 70.1076 4.58445 70.8903 4.58445 71.7848C4.58445 73.2384 5.14352 74.692 5.47897 76.1456C5.59078 76.5928 5.70259 76.9282 5.81441 77.3755C2.12453 70.2194 0.111877 62.0569 0.111877 53.4472C0.111877 42.9367 3.13087 33.2088 8.38614 25.0464C10.6224 21.5801 13.1942 18.3375 16.2131 15.5422C25.7174 6.26157 38.7996 0.559036 53.1119 0.559036C54.23 0.559036 55.46 0.559035 56.5781 0.670849C63.5106 0.670849 70.2195 2.45988 76.2575 5.36705Z" fill="url(#paint14_linear_1_799)"/>
<path opacity="0.3" fill-rule="evenodd" clip-rule="evenodd" d="M71.6729 93.3649C72.6792 92.694 73.6856 92.135 74.8037 91.4641C75.9218 90.7932 77.04 90.4578 78.2699 89.8987C79.1645 89.5633 79.2763 89.5633 79.9472 90.1223C80.618 90.6814 81.4007 90.7932 82.1834 90.7932C83.3016 90.7932 84.5315 90.905 84.6434 92.3586C84.7552 94.3713 81.848 96.0485 80.3944 96.8312C79.2763 97.5021 78.0463 97.9493 76.8164 98.5084C75.81 98.9557 74.6919 99.5147 73.5737 99.6265C72.5674 99.7384 72.0083 99.2911 71.3374 98.6202C70.5547 97.7257 70.6666 96.943 70.6666 95.9367C70.6666 94.5949 70.6666 93.7004 71.6729 93.3649Z" fill="url(#paint15_linear_1_799)"/>
<path opacity="0.3" fill-rule="evenodd" clip-rule="evenodd" d="M87.4389 19.2321C88.2216 20.7975 88.7806 22.922 90.0106 24.2638C90.6815 24.9346 91.1287 25.0465 92.0233 25.0465C92.4705 25.0465 93.2532 25.1583 93.7005 25.0465C94.2595 24.8228 94.2595 24.1519 94.2595 23.5929C94.1477 21.4684 92.806 19.5676 91.4642 18.114C90.5697 17.1076 89.2279 15.9895 87.7743 16.2131C87.327 17.2195 87.2152 18.2258 87.4389 19.2321Z" fill="url(#paint16_linear_1_799)"/>
<path fill-rule="evenodd" clip-rule="evenodd" d="M58.2554 102.646C58.1436 102.869 57.9199 102.981 58.0318 103.205C58.1436 103.317 58.3672 103.428 58.479 103.428C58.7026 103.54 59.1499 103.428 59.3735 103.317C59.5972 103.205 59.4853 102.981 59.3735 102.757C59.1499 102.422 58.8145 102.31 58.479 102.534L58.2554 102.646Z" fill="#FFFF45"/>
<path fill-rule="evenodd" clip-rule="evenodd" d="M23.5929 13.7532C23.0338 13.9768 22.8102 13.9768 22.2511 14.424C21.8039 14.7595 21.3566 15.0949 20.9094 15.5422C20.3503 16.1013 20.1267 16.6603 20.0148 17.2194C19.7912 17.7785 19.6794 18.4494 19.903 18.7848C20.0148 18.8966 20.3503 18.8966 20.6857 18.8966C21.133 18.7848 21.5802 18.4494 22.0275 18.2257C22.5866 17.8903 23.0338 17.3312 23.4811 16.7721C23.8165 16.3249 23.9283 15.8776 24.152 15.4304C24.2638 15.0949 24.3756 14.8713 24.4874 14.6477C24.5992 14.424 24.5992 14.2004 24.4874 14.0886C24.3756 13.7532 24.2638 13.7532 23.5929 13.7532Z" fill="#FFFF45"/>
<path fill-rule="evenodd" clip-rule="evenodd" d="M30.8546 12.7468C30.631 12.9705 30.1837 13.3059 30.5192 13.5295C30.631 13.6414 30.7428 13.5295 30.8546 13.6414C30.9664 13.6414 30.9664 13.7532 31.0783 13.6414C31.4137 13.6414 31.3019 12.635 30.8546 12.7468Z" fill="#FFFF45"/>
<path fill-rule="evenodd" clip-rule="evenodd" d="M32.5317 16.1013C32.6436 15.9895 32.8672 15.9895 32.979 15.9895C32.979 16.2131 33.2026 16.5486 32.8672 16.7722C32.6436 16.884 32.7554 16.4368 32.6436 16.4368L32.5317 16.1013Z" fill="#FFFF45"/>
<path fill-rule="evenodd" clip-rule="evenodd" d="M35.7743 16.1013C36.1097 16.2131 36.3334 16.325 36.6688 16.4368C36.7806 16.325 36.8924 16.325 37.0042 16.325C37.1161 16.2132 37.2279 15.9895 37.3397 15.8777C37.4515 15.6541 37.3397 15.4305 37.2279 15.2068C37.1161 15.095 37.1161 14.8714 37.0042 14.7596C36.8924 14.6478 36.557 14.6478 36.4452 14.7596C36.2215 14.8714 36.1097 14.9832 35.9979 15.2068C35.8861 15.3186 35.7743 15.6541 35.7743 15.7659C35.7743 15.9895 35.8861 16.2132 36.1097 16.325L35.7743 16.1013Z" fill="#FFFF45"/>
<path fill-rule="evenodd" clip-rule="evenodd" d="M38.4578 77.3757C38.7932 77.4875 39.0168 77.5993 39.3523 77.7111C39.4641 77.5993 39.5759 77.5993 39.6877 77.5993C39.7995 77.4875 39.9114 77.2638 40.0232 77.152C40.135 76.9284 40.0232 76.7048 39.9113 76.4811C39.7995 76.3693 39.7995 76.1457 39.6877 76.0339C39.5759 75.9221 39.2405 75.9221 39.1286 76.0339C38.905 76.1457 38.7932 76.2575 38.6814 76.4811C38.5696 76.5929 38.4578 76.9284 38.4578 77.0402C38.4578 77.2638 38.5696 77.4875 38.7932 77.5993L38.4578 77.3757Z" fill="#FFFF45"/>
<path fill-rule="evenodd" clip-rule="evenodd" d="M27.1645 19.0085C27.0527 19.1203 26.9409 19.2321 26.8291 19.3439C26.9409 19.4558 27.0527 19.6794 27.2764 19.6794C27.3882 19.6794 27.5 19.6794 27.5 19.6794C27.6118 19.5676 27.5 19.4558 27.6118 19.4558C27.7236 19.2321 27.7236 19.2321 27.6118 19.0085C27.5 18.8967 27.5 18.8967 27.3882 18.8967C27.2764 18.8967 27.1645 18.8967 27.0527 19.0085L27.1645 19.0085Z" fill="#FFFF45"/>
<path fill-rule="evenodd" clip-rule="evenodd" d="M27.8355 23.8165C27.8355 23.8165 27.6118 24.4874 27.8355 24.2637C28.0591 24.1519 28.0591 23.9283 27.8355 23.8165C27.9473 23.8165 27.9473 23.8165 27.8355 23.8165Z" fill="#FFFF45"/>
<path fill-rule="evenodd" clip-rule="evenodd" d="M23.4749 31.8672C23.2512 32.0908 23.2512 32.2026 23.1394 32.538C23.2512 32.6499 23.363 32.6499 23.4749 32.6499C23.6985 32.6499 23.6985 32.538 23.6985 32.4262C23.6985 32.3144 23.8103 32.2026 23.6985 32.0908C23.6985 31.8672 23.5867 31.7553 23.4749 31.8672Z" fill="#FFFF45"/>
<path fill-rule="evenodd" clip-rule="evenodd" d="M30.1836 19.5675C30.2954 19.6793 30.4072 19.7911 30.4072 19.9029C30.2954 19.9029 30.1836 19.7911 30.1836 19.6793C30.1836 19.4557 30.1836 19.5675 30.2954 19.3438L30.1836 19.5675Z" fill="#FFFF45"/>
<path fill-rule="evenodd" clip-rule="evenodd" d="M28.6181 13.3059C28.5063 13.4177 28.3945 13.5295 28.2827 13.6413C28.3945 13.7532 28.2827 13.865 28.5063 13.865C28.6181 13.865 28.7299 13.7532 28.8417 13.6413C28.9535 13.5295 28.9535 13.4177 28.9535 13.3059C28.9535 13.1941 28.9535 12.9705 28.8417 13.1941L28.6181 13.3059Z" fill="#FFFF45"/>
<path fill-rule="evenodd" clip-rule="evenodd" d="M48.9682 10.0633C48.9682 9.95144 49.08 9.72781 49.08 9.61599L49.1919 9.50418C49.3037 9.39237 49.3037 9.39236 49.4155 9.39236C49.5273 9.39236 49.6391 9.39237 49.8627 9.50418C50.31 9.83962 49.1919 10.1751 49.08 9.83962L48.9682 10.0633Z" fill="#FFFF45"/>
<path fill-rule="evenodd" clip-rule="evenodd" d="M52.7702 11.5169C52.6584 11.7405 52.5466 12.076 52.7702 12.2996C52.9939 12.4114 53.4411 12.1878 53.5529 12.076C53.8884 11.8523 54.2238 11.2933 53.8884 10.9578C53.7766 10.7342 53.2175 10.6224 52.9939 10.6224C52.4348 10.6224 52.323 11.2933 52.2112 11.8523L52.7702 11.5169Z" fill="#FFFF45"/>
<path fill-rule="evenodd" clip-rule="evenodd" d="M54.4472 6.26158C54.3354 5.81433 54.3354 5.36707 54.6708 5.14344C54.8945 5.03163 55.2299 4.91981 55.4535 5.14344C55.5653 5.25525 55.6772 5.47888 55.789 5.5907C55.9008 5.81433 55.9008 5.81433 55.789 6.03795C55.6772 6.48521 55.5653 6.82066 55.0063 6.82066C54.3354 6.82066 54.3354 6.3734 54.3354 5.70251L54.3354 6.26158L54.4472 6.26158Z" fill="#FFFF45"/>
<path fill-rule="evenodd" clip-rule="evenodd" d="M60.1498 14.0886C60.4853 13.9768 60.8207 13.8649 61.0443 13.5295C60.8207 13.4177 60.2616 13.0822 60.1498 13.5295L60.1498 14.0886Z" fill="#FFFF45"/>
<path fill-rule="evenodd" clip-rule="evenodd" d="M40.4705 84.5317C40.8059 84.4199 41.1413 84.3081 41.365 83.9726C41.1413 83.8608 40.5823 83.5254 40.4705 83.9726L40.4705 84.5317Z" fill="#FFC445"/>
<path fill-rule="evenodd" clip-rule="evenodd" d="M76.8102 92.1351C77.1456 92.0233 77.4811 91.9115 77.7047 91.5761C77.4811 91.4643 76.922 91.1288 76.8102 91.5761L76.8102 92.1351Z" fill="#FFC445"/>
<path fill-rule="evenodd" clip-rule="evenodd" d="M64.5106 20.9094C64.846 20.4621 65.2933 19.7912 65.9642 20.1267C66.2996 20.3503 66.4114 21.0212 66.076 21.2448C65.7406 21.4684 65.5169 21.5803 65.0697 21.6921C64.846 21.8039 64.3988 21.5803 64.5106 21.133L64.5106 20.9094Z" fill="#FFFF45"/>
<path fill-rule="evenodd" clip-rule="evenodd" d="M40.9177 30.6371C41.2532 30.1899 41.7004 29.519 42.3713 29.8544C42.7068 30.0781 42.8186 30.7489 42.4831 30.9726C42.1477 31.1962 41.9241 31.308 41.4768 31.4198C41.2532 31.5316 40.8059 31.308 40.9177 30.8608L40.9177 30.6371Z" fill="#FFC445"/>
<path fill-rule="evenodd" clip-rule="evenodd" d="M80.0528 13.3059C80.3882 12.8587 80.8355 12.1878 81.5064 12.5232C81.8418 12.7469 81.9536 13.4178 81.6182 13.6414C81.2827 13.865 81.0591 13.9768 80.6118 14.0886C80.3882 14.2005 79.941 13.9768 80.0528 13.5296L80.0528 13.3059Z" fill="#FFC445"/>
<path fill-rule="evenodd" clip-rule="evenodd" d="M58.1373 49.4219C58.4727 48.9747 58.92 48.3038 59.5909 48.6392C59.9263 48.8629 60.0381 49.5337 59.7027 49.7574C59.3672 49.981 59.1436 50.0928 58.6964 50.2046C58.4727 50.3164 58.0255 50.0928 58.1373 49.6456L58.1373 49.4219Z" fill="#FFC445"/>
<path fill-rule="evenodd" clip-rule="evenodd" d="M39.0169 15.9895C38.5697 16.2131 37.8988 16.5486 37.787 17.2194C37.787 17.5549 37.8988 17.7785 38.2342 17.8903C38.4579 18.0021 38.9051 18.0021 39.2406 17.8903C39.6878 17.6667 40.1351 17.3313 40.2469 16.9958C40.3587 16.6604 40.3587 16.4367 40.2469 16.2131C40.1351 16.1013 40.0233 15.8777 39.7996 15.7659C39.2406 15.5422 38.9051 16.1013 38.4579 16.3249L39.0169 15.9895Z" fill="#FFFF45"/>
<path fill-rule="evenodd" clip-rule="evenodd" d="M40.3586 14.4241C40.5823 14.5359 40.8059 14.6477 40.9177 14.8713C40.6941 14.9831 40.4705 15.095 40.2468 15.095C39.9114 14.9831 39.9114 14.6477 39.9114 14.4241C39.9114 14.3123 40.2468 13.9768 40.3586 14.0886C40.4705 14.0886 40.4704 14.2004 40.4704 14.3123C40.5823 14.4241 40.5823 14.4241 40.4704 14.6477L40.3586 14.6477L40.3586 14.4241Z" fill="#FFFF45"/>
<path fill-rule="evenodd" clip-rule="evenodd" d="M16.7659 24.2638C16.3187 24.711 15.8714 25.1583 15.6478 25.7174C15.536 26.0528 15.7596 26.0528 15.9832 25.941C16.5423 25.8292 16.9896 25.7174 17.5486 25.6055C17.8841 25.4937 18.3313 25.3819 18.4431 25.1583C18.555 24.9347 18.6668 24.5992 18.6668 24.3756C18.6668 24.0401 18.3313 23.9283 18.1077 23.8165C17.4368 23.5929 16.4305 24.0402 16.2069 24.711L16.7659 24.2638Z" fill="#FFFF45"/>
<path fill-rule="evenodd" clip-rule="evenodd" d="M17.1013 26.6119C17.4368 26.6119 17.7722 26.7237 18.1077 26.8355C17.9959 26.9473 17.9959 27.0591 17.9959 27.1709C17.884 27.3946 17.7722 27.5064 17.5486 27.6182C17.2132 27.8418 16.7659 27.8418 16.4305 27.73C15.4241 27.3946 16.9895 26.2764 17.2132 26.6119L17.1013 26.6119Z" fill="#FFFF45"/>
<path fill-rule="evenodd" clip-rule="evenodd" d="M47.4031 5.36713C47.7385 5.1435 48.074 5.03169 48.4094 4.91987C48.8567 4.80806 49.3039 4.80806 49.7512 4.80806C49.9748 4.80806 50.5339 4.80806 50.3102 5.1435C50.1984 5.59076 49.3039 5.9262 48.9685 6.03802C48.4094 6.26164 47.8503 6.59709 47.1794 6.7089C46.844 6.7089 46.2849 6.82072 46.0613 6.48528C45.9495 6.14983 45.9495 5.9262 46.1731 5.70257C46.2849 5.47894 46.5086 5.36713 46.844 5.25532C46.9558 5.25532 47.7385 5.03169 47.7385 5.25532L47.4031 5.36713Z" fill="#FFFF45"/>
<path fill-rule="evenodd" clip-rule="evenodd" d="M41.4768 5.47884C41.365 5.59065 40.1351 6.26154 40.6941 6.59698C41.0296 6.70879 41.5887 6.70879 41.9241 6.59698C42.1477 6.48517 42.4832 6.26154 42.2595 5.9261C41.9241 5.25521 41.0296 5.70247 40.5823 5.9261L41.4768 5.47884Z" fill="#FFFF45"/>
<path fill-rule="evenodd" clip-rule="evenodd" d="M24.8166 49.3101C24.9284 49.7574 25.0402 50.3165 25.4875 50.6519C25.9347 50.9874 26.4938 50.8755 26.8293 50.5401C27.1647 50.3165 27.5001 50.0928 27.7238 49.981C27.9474 49.8692 28.0592 49.8692 28.0592 49.5338C28.0592 49.1983 27.8356 48.8629 27.6119 48.6393C27.3883 48.4156 27.0529 48.0802 26.7174 47.9684C26.0466 47.7447 24.8166 47.9684 24.8166 48.8629L24.8166 49.3101Z" fill="#FFD32F"/>
<path fill-rule="evenodd" clip-rule="evenodd" d="M62.8333 49.8693C62.9452 50.3165 63.057 50.8756 63.5042 51.211C63.9515 51.5465 64.5106 51.4347 64.846 51.0992C65.1814 50.8756 65.5169 50.652 65.7405 50.5401C65.9642 50.4283 66.076 50.4283 66.076 50.0929C66.076 49.7574 65.8523 49.422 65.6287 49.1984C65.4051 48.9747 65.0696 48.6393 64.7342 48.5275C64.0633 48.3039 62.8333 48.5275 62.8333 49.422L62.8333 49.8693Z" fill="#FFBA00"/>
<path fill-rule="evenodd" clip-rule="evenodd" d="M7.71524 68.9894C7.71524 68.9894 7.26798 70.8903 8.60975 73.3502C9.95152 75.8101 10.9579 75.5865 10.9579 75.5865C10.9579 75.5865 9.7279 71.1139 7.71524 68.9894Z" fill="#FFFF59"/>
<path fill-rule="evenodd" clip-rule="evenodd" d="M94.1477 42.9367C94.1477 42.9367 92.5823 47.4093 92.3587 48.0802C92.3587 47.9683 94.8186 47.2975 94.1477 42.9367Z" fill="#FFFF59"/>
<path fill-rule="evenodd" clip-rule="evenodd" d="M102.534 44.2785C102.534 44.2785 101.416 45.0612 100.857 47.1856C100.857 47.1856 102.199 47.8565 102.534 44.2785Z" fill="#FFFF59"/>
<path fill-rule="evenodd" clip-rule="evenodd" d="M85.4263 85.8735C85.4263 85.8735 90.4579 82.6309 93.3651 82.4073C93.3651 82.4073 90.0107 86.4326 85.4263 85.8735Z" fill="#FFFF59"/>
<defs>
<radialGradient id="paint0_radial_1_799" cx="0" cy="0" r="1" gradientUnits="userSpaceOnUse" gradientTransform="translate(20.2518 28.2614) scale(85.0931 85.0931)">
<stop offset="0.00558659" stop-color="#FFB80B"/>
<stop offset="0.258" stop-color="#FFB60C"/>
<stop offset="0.384" stop-color="#FEAE10"/>
<stop offset="0.4821" stop-color="#FCA117"/>
<stop offset="0.5656" stop-color="#FA8E21"/>
<stop offset="0.6392" stop-color="#F7762E"/>
<stop offset="0.662" stop-color="#F66D33"/>
<stop offset="0.7209" stop-color="#EF6836"/>
<stop offset="0.8061" stop-color="#DC593D"/>
<stop offset="0.9068" stop-color="#BD4049"/>
<stop offset="0.9832" stop-color="#A02A54"/>
</radialGradient>
<linearGradient id="paint1_linear_1_799" x1="4.52338" y1="68.6209" x2="30.1722" y2="68.6209" gradientUnits="userSpaceOnUse">
<stop offset="0.0111732" stop-color="#FFA90B"/>
<stop offset="0.3713" stop-color="#FFA60E"/>
<stop offset="0.6354" stop-color="#FF9D16"/>
<stop offset="0.868" stop-color="#FF8D25"/>
<stop offset="1" stop-color="#FF8031"/>
</linearGradient>
<linearGradient id="paint2_linear_1_799" x1="5.4281" y1="68.6208" x2="28.8173" y2="68.6208" gradientUnits="userSpaceOnUse">
<stop offset="0.0111732" stop-color="#FFE00B"/>
<stop offset="0.3061" stop-color="#FFDD0D"/>
<stop offset="0.5224" stop-color="#FFD412"/>
<stop offset="0.7136" stop-color="#FFC41B"/>
<stop offset="0.8891" stop-color="#FFAD27"/>
<stop offset="1" stop-color="#FF9B31"/>
</linearGradient>
<linearGradient id="paint3_linear_1_799" x1="7.99843" y1="38.0116" x2="18.2108" y2="37.6877" gradientUnits="userSpaceOnUse">
<stop offset="0.0111732" stop-color="#FFA90B"/>
<stop offset="0.3713" stop-color="#FFA60E"/>
<stop offset="0.6354" stop-color="#FF9D16"/>
<stop offset="0.868" stop-color="#FF8D25"/>
<stop offset="1" stop-color="#FF8031"/>
</linearGradient>
<linearGradient id="paint4_linear_1_799" x1="8.62757" y1="37.9918" x2="17.5596" y2="37.7085" gradientUnits="userSpaceOnUse">
<stop offset="0.0111732" stop-color="#FFE00B"/>
<stop offset="0.3061" stop-color="#FFDD0D"/>
<stop offset="0.5224" stop-color="#FFD412"/>
<stop offset="0.7136" stop-color="#FFC41B"/>
<stop offset="0.8891" stop-color="#FFAD27"/>
<stop offset="1" stop-color="#FF9B31"/>
</linearGradient>
<linearGradient id="paint5_linear_1_799" x1="92.3895" y1="86.7881" x2="92.3895" y2="50.449" gradientUnits="userSpaceOnUse">
<stop offset="0.0111732" stop-color="#FF8E0B"/>
<stop offset="0.3475" stop-color="#FD8B0D"/>
<stop offset="0.5941" stop-color="#F98215"/>
<stop offset="0.8113" stop-color="#F17221"/>
<stop offset="1" stop-color="#E65D31"/>
</linearGradient>
<linearGradient id="paint6_linear_1_799" x1="81.6843" y1="68.6183" x2="103.072" y2="68.6183" gradientUnits="userSpaceOnUse">
<stop offset="0.0111732" stop-color="#FFE00B"/>
<stop offset="0.3061" stop-color="#FFDD0D"/>
<stop offset="0.5224" stop-color="#FFD412"/>
<stop offset="0.7136" stop-color="#FFC41B"/>
<stop offset="0.8891" stop-color="#FFAD27"/>
<stop offset="1" stop-color="#FF9B31"/>
</linearGradient>
<linearGradient id="paint7_linear_1_799" x1="99.2287" y1="49.6024" x2="99.2287" y2="35.5776" gradientUnits="userSpaceOnUse">
<stop offset="0.0111732" stop-color="#FFA90B"/>
<stop offset="0.3713" stop-color="#FFA60E"/>
<stop offset="0.6354" stop-color="#FF9D16"/>
<stop offset="0.868" stop-color="#FF8D25"/>
<stop offset="1" stop-color="#FF8031"/>
</linearGradient>
<linearGradient id="paint8_linear_1_799" x1="99.2213" y1="48.6831" x2="99.2213" y2="36.4967" gradientUnits="userSpaceOnUse">
<stop offset="0.0111732" stop-color="#FFE00B"/>
<stop offset="0.3061" stop-color="#FFDD0D"/>
<stop offset="0.5224" stop-color="#FFD412"/>
<stop offset="0.7136" stop-color="#FFC41B"/>
<stop offset="0.8891" stop-color="#FFAD27"/>
<stop offset="1" stop-color="#FF9B31"/>
</linearGradient>
<linearGradient id="paint9_linear_1_799" x1="55.6551" y1="105.333" x2="55.6551" y2="97.1629" gradientUnits="userSpaceOnUse">
<stop offset="0.0111732" stop-color="#FFA90B"/>
<stop offset="0.3713" stop-color="#FFA60E"/>
<stop offset="0.6354" stop-color="#FF9D16"/>
<stop offset="0.868" stop-color="#FF8D25"/>
<stop offset="1" stop-color="#FF8031"/>
</linearGradient>
<linearGradient id="paint10_linear_1_799" x1="55.654" y1="104.414" x2="55.654" y2="98.0818" gradientUnits="userSpaceOnUse">
<stop offset="0.0111732" stop-color="#FFE00B"/>
<stop offset="0.3061" stop-color="#FFDD0D"/>
<stop offset="0.5224" stop-color="#FFD412"/>
<stop offset="0.7136" stop-color="#FFC41B"/>
<stop offset="0.8891" stop-color="#FFAD27"/>
<stop offset="1" stop-color="#FF9B31"/>
</linearGradient>
<linearGradient id="paint11_linear_1_799" x1="81.2686" y1="53.7939" x2="85.8516" y2="19.2736" gradientUnits="userSpaceOnUse">
<stop offset="0.0111732" stop-color="#FFA90B"/>
<stop offset="0.3713" stop-color="#FFA60E"/>
<stop offset="0.6354" stop-color="#FF9D16"/>
<stop offset="0.868" stop-color="#FF8D25"/>
<stop offset="1" stop-color="#FF8031"/>
</linearGradient>
<linearGradient id="paint12_linear_1_799" x1="81.3869" y1="52.884" x2="85.7282" y2="20.184" gradientUnits="userSpaceOnUse">
<stop offset="0.0111732" stop-color="#FFE00B"/>
<stop offset="0.3061" stop-color="#FFDD0D"/>
<stop offset="0.5224" stop-color="#FFD412"/>
<stop offset="0.7136" stop-color="#FFC41B"/>
<stop offset="0.8891" stop-color="#FFAD27"/>
<stop offset="1" stop-color="#FF9B31"/>
</linearGradient>
<linearGradient id="paint13_linear_1_799" x1="0.0876706" y1="49.3495" x2="81.5606" y2="49.3495" gradientUnits="userSpaceOnUse">
<stop offset="0.0111732" stop-color="#FFE00B"/>
<stop offset="0.3061" stop-color="#FFDD0D"/>
<stop offset="0.5224" stop-color="#FFD412"/>
<stop offset="0.7136" stop-color="#F67C27"/>
<stop offset="0.8891" stop-color="#ED6930"/>
<stop offset="1" stop-color="#E76332"/>
</linearGradient>
<linearGradient id="paint14_linear_1_799" x1="0.0877255" y1="38.503" x2="76.289" y2="38.503" gradientUnits="userSpaceOnUse">
<stop offset="0.0111732" stop-color="#FFE00B"/>
<stop offset="0.3061" stop-color="#FFDD0D"/>
<stop offset="0.5224" stop-color="#FFD412"/>
<stop offset="0.7136" stop-color="#FFC41B"/>
<stop offset="0.8891" stop-color="#FFAD27"/>
<stop offset="1" stop-color="#FF9B31"/>
</linearGradient>
<linearGradient id="paint15_linear_1_799" x1="70.7038" y1="94.6459" x2="84.6769" y2="94.6459" gradientUnits="userSpaceOnUse">
<stop offset="0.0111732" stop-color="#FFE00B"/>
<stop offset="0.3061" stop-color="#FFDD0D"/>
<stop offset="0.5224" stop-color="#FFD412"/>
<stop offset="0.7136" stop-color="#FFC41B"/>
<stop offset="0.8891" stop-color="#FFAD27"/>
<stop offset="1" stop-color="#FF9B31"/>
</linearGradient>
<linearGradient id="paint16_linear_1_799" x1="87.295" y1="20.6878" x2="94.1721" y2="20.6878" gradientUnits="userSpaceOnUse">
<stop offset="0.0111732" stop-color="#FFE00B"/>
<stop offset="0.3061" stop-color="#FFDD0D"/>
<stop offset="0.5224" stop-color="#FFD412"/>
<stop offset="0.7136" stop-color="#FFC41B"/>
<stop offset="0.8891" stop-color="#FFAD27"/>
<stop offset="1" stop-color="#FF9B31"/>
</linearGradient>
</defs>
</svg>
