<svg width="97" height="111" viewBox="0 0 97 111" fill="none" xmlns="http://www.w3.org/2000/svg">
<path fill-rule="evenodd" clip-rule="evenodd" d="M7.01031 37.1499C7.01031 37.1499 7.58644 32.3488 7.97053 29.7563C7.97053 29.7563 11.2352 25.1472 16.4204 21.4024L23.3339 21.7865C23.3339 21.7865 9.31482 33.021 7.01031 37.1499Z" fill="url(#paint0_linear_1_1113)"/>
<path fill-rule="evenodd" clip-rule="evenodd" d="M16.4206 21.4024C16.4206 21.4024 16.4206 25.2433 12.8678 28.3159C9.31503 31.3886 7.77867 30.3324 7.77867 30.3324L6.91449 36.4778L23.2381 21.7865L16.4206 21.4024Z" fill="url(#paint1_linear_1_1113)"/>
<path fill-rule="evenodd" clip-rule="evenodd" d="M90.932 61.6352C90.932 65.9562 90.3559 70.2771 89.2037 74.214C86.8992 82.2798 82.3861 89.3854 76.4328 94.9546C72.2079 98.8915 67.1188 102.06 61.5495 104.173C56.5564 106.093 51.0832 107.149 45.418 107.149C44.6498 107.149 43.7856 107.149 43.0174 107.053C41.8652 106.957 40.6169 106.861 39.4646 106.765C30.7267 105.613 22.6609 101.964 16.2275 96.4909C13.827 94.4745 11.6185 92.17 9.60206 89.6734C8.16174 87.753 6.81744 85.8326 5.66519 83.7201C5.37712 83.24 5.08906 82.6639 4.801 82.1838C4.801 82.1838 4.801 82.1838 4.801 82.0877C4.51294 81.5116 4.22486 81.0315 4.03281 80.4554C3.26464 78.727 2.59249 76.9026 2.01636 75.0782C1.63228 73.7339 1.24822 72.3896 0.960151 71.0453C0.768109 70.0851 0.576066 69.1249 0.480045 68.0686C0.191981 65.9562 -6.10368e-05 63.8437 -6.10367e-05 61.6352C-6.10367e-05 60.3869 -7.86215e-05 59.1387 0.191964 57.8904C0.287985 57.1222 0.384024 56.3541 0.480045 55.5859C1.05617 51.0729 2.30444 46.8479 4.12884 42.9111C4.99303 40.9907 6.04928 39.0702 7.20153 37.3419C9.12196 34.3652 11.3304 31.5806 13.923 29.084C22.0848 21.1143 33.3193 16.2172 45.61 16.2172C46.0901 16.2172 46.5702 16.2172 47.0503 16.2172C47.5305 16.2172 48.1066 16.2172 48.5867 16.3132C51.1792 16.5052 53.7718 16.8893 56.2684 17.4655C57.7087 17.8495 59.149 18.2336 60.4933 18.7137C61.4535 19.0018 62.3177 19.3859 63.2779 19.77C63.9501 20.058 64.6222 20.3461 65.2944 20.6342C65.3904 20.7302 65.4864 20.7302 65.6785 20.8262C70.0954 22.9387 74.1283 25.8193 77.5851 29.2761C78.0652 29.7562 78.5453 30.2363 79.0254 30.8124C79.3135 31.1965 79.6976 31.4846 79.9856 31.8686C80.5617 32.4448 81.0419 33.1169 81.522 33.693C83.3464 35.9976 84.8827 38.4941 86.227 41.0867C87.7633 44.1594 89.0116 47.4241 89.8758 50.7848C90.4519 54.1456 90.932 57.7944 90.932 61.6352Z" fill="url(#paint2_radial_1_1113)"/>
<path fill-rule="evenodd" clip-rule="evenodd" d="M65.3904 20.7303C65.1983 20.7303 65.1023 20.7303 64.9103 20.8263C64.4302 20.9224 63.9501 20.8263 63.47 20.7303C63.0859 20.6343 62.8939 20.4423 62.4137 20.4423C61.8376 20.3462 61.3575 20.1542 60.7814 20.0582C60.2052 19.9622 59.7251 19.7701 59.149 19.5781C58.6689 19.386 58.4769 19.482 58.0928 19.5781C57.7087 19.6741 57.4206 19.482 57.0365 19.386C56.6525 19.194 56.1723 19.194 55.7883 19.098C54.636 18.9059 53.4838 18.5218 52.3315 18.2338C51.6594 18.0417 50.9872 18.0417 50.219 18.0417C49.6429 18.0417 49.1628 18.2338 48.5867 18.2338C48.2026 18.2338 47.9145 18.1378 47.5305 18.1378C47.1464 18.0417 46.7623 18.1378 46.3782 18.1378C45.8021 18.0417 45.514 17.9457 44.9379 18.1378C44.4578 18.2338 44.1697 18.2338 43.6896 18.3298C43.2095 18.3298 42.6334 18.5218 42.1533 18.6179C41.2891 18.8099 40.3288 19.0019 39.4646 19.0019C38.8885 19.0019 38.1204 18.8099 37.6402 19.0019C37.3522 19.098 37.1602 19.482 36.8721 19.6741C36.392 20.1542 35.9119 20.5383 35.5278 21.0184C35.1437 21.4985 34.7596 22.0746 34.7596 22.7468C34.7596 23.3229 35.0477 23.995 35.3357 24.4752C35.6238 25.0513 35.7198 25.5314 35.1437 25.9155C34.4715 26.3956 33.6074 26.7797 32.8392 27.0677C32.2631 27.2598 31.783 27.3558 31.3989 26.9717C31.2068 26.8757 31.1108 26.5876 30.9188 26.3956C30.7267 26.2996 30.4387 26.3956 30.2466 26.4916C29.6705 26.6836 29.0944 26.8757 28.5182 26.9717C28.1341 27.0677 27.8461 27.2598 27.462 27.2598C27.0779 27.3558 26.7899 27.0677 26.3098 27.1637C25.7336 27.2598 25.0615 27.5478 24.4854 27.5478C24.0052 27.5478 23.4291 27.3558 23.045 27.1637C22.853 27.0677 22.757 26.8757 22.4689 26.9717C22.2769 26.9717 21.9888 27.2598 21.8928 27.4518C21.7007 27.6439 21.7007 27.9319 21.5087 28.124C21.3166 28.412 21.2206 28.6041 21.0286 28.8921C20.7405 29.3722 20.4525 29.8523 20.1644 30.3324C19.9724 30.6205 19.7803 31.1006 19.4922 31.3887C19.3962 31.5807 19.1081 31.6767 18.9161 31.7728C18.436 32.0608 17.9559 32.4449 17.4758 32.733C16.6116 33.4051 15.7474 34.1733 14.8832 34.8454C14.2111 35.3256 13.2509 35.6136 12.4827 35.9977C12.0026 36.1897 11.5225 36.3818 11.0424 36.5738C10.8503 36.6698 10.5623 36.6698 10.4662 36.8619C10.2742 37.0539 10.1782 37.246 10.0822 37.534C9.69808 38.0141 9.21797 38.5903 8.9299 39.1664C8.73786 39.5505 8.64184 39.8385 8.4498 40.2226C8.25775 40.7027 7.96968 41.1828 7.87366 41.759C7.48958 42.8152 7.48958 43.9675 7.00948 45.0237C6.81744 45.5998 6.43336 46.1759 6.14529 46.7521C5.66519 47.7123 5.56915 48.8645 5.47313 49.9208C5.37711 50.4969 5.47314 51.2651 5.56916 51.8412C5.66518 52.5134 5.66519 53.1855 5.66519 53.8576C5.66519 54.5298 5.18509 55.298 4.801 55.7781C4.41692 56.2582 3.74476 56.4502 3.26466 56.9303C2.88057 57.3144 2.40046 57.6985 2.20842 58.2746C2.11239 58.4667 2.20842 58.7547 2.20842 59.0428C2.11239 59.6189 1.92036 60.099 1.92036 60.6752C1.82434 61.3473 1.82434 62.0195 1.82434 62.7876C1.82434 63.1717 1.82434 63.4598 1.82434 63.8439C1.82434 64.2279 1.92034 64.516 2.01636 64.8041C2.01636 64.9961 2.01636 65.2842 2.01636 65.4762C2.01636 65.7643 2.20842 66.0523 2.20842 66.2444C2.40046 66.9165 2.49647 67.4927 2.59249 68.1648C2.68852 68.7409 2.97658 69.3171 3.0726 69.8932C3.36066 70.6614 3.45669 71.4295 3.64873 72.2937C3.74476 72.8699 3.74477 73.542 3.84079 74.1181C3.93681 74.5982 4.03281 75.0783 4.03281 75.5584C4.03281 76.3266 3.84079 76.9988 3.84079 77.7669C3.84079 79.0152 4.32088 80.2635 4.60895 81.5118C4.70497 81.8959 4.80098 82.1839 4.897 82.568C1.7283 76.4226 -6.1037e-05 69.4131 -6.10367e-05 62.0195C-6.10364e-05 52.9935 2.59251 44.6396 7.1055 37.6301C9.02593 34.6534 11.2344 31.8688 13.827 29.4683C21.9888 21.4985 33.2233 16.6014 45.514 16.6014C46.4742 16.6014 47.5305 16.6014 48.4907 16.6974C54.444 16.6014 60.2052 18.1377 65.3904 20.7303Z" fill="url(#paint3_linear_1_1113)"/>
<path opacity="0.1" fill-rule="evenodd" clip-rule="evenodd" d="M48.2994 82.9521C48.2994 82.9521 52.5243 89.1935 58.1896 94.2826C63.8548 99.3717 64.623 102.828 64.623 102.828C64.623 102.828 75.2813 98.4115 82.867 87.8492C90.4527 77.3829 48.2994 82.9521 48.2994 82.9521Z" fill="black"/>
<path opacity="0.4" fill-rule="evenodd" clip-rule="evenodd" d="M55.9816 17.3696C53.485 16.7935 50.9885 16.4094 48.2999 16.2173C47.8198 16.2173 47.2436 16.1213 46.7635 16.1213C47.8198 16.6974 48.876 17.7537 49.068 18.9059C49.4521 20.8263 50.1243 22.5547 50.4124 24.3791C50.7964 26.2035 50.7004 28.508 49.8362 30.1404C49.3561 31.1966 48.684 32.0608 47.8198 32.925C47.2437 33.5012 46.6675 33.8852 46.2834 34.6534C45.8993 35.4216 45.4192 36.0937 44.9391 36.7659C44.267 37.8221 43.4988 38.8783 42.6346 39.8386C42.3466 40.2226 42.0585 40.4147 41.7705 40.7988C41.4824 41.2789 41.2903 41.759 40.9062 42.1431C40.042 43.0073 38.7938 43.5834 37.7375 43.9675C36.2972 44.5436 35.0489 45.1197 33.7046 45.8879C31.7842 46.9441 30.1519 48.1924 27.9434 48.2884C27.1752 48.2884 26.407 48.1924 25.6389 48.2884C24.6787 48.3844 23.8145 48.7685 22.9503 48.9606C22.1821 49.1526 21.3179 49.2486 20.5498 49.4407C19.2055 49.6327 18.1492 50.1128 16.9009 50.4009C15.2686 50.785 13.5402 50.6889 11.8118 50.977C10.2755 51.1691 9.0272 51.3611 7.49086 50.977C5.18635 50.4009 3.93806 49.3447 4.41817 46.8481C4.70623 45.2157 4.61023 43.9675 3.84206 42.8152C2.01766 46.7521 0.769365 51.073 0.193237 55.49C1.24947 55.9701 2.49775 56.1622 3.55398 56.2582C6.91472 56.6423 10.5635 55.1059 13.6362 53.9537C15.1726 53.3775 16.8049 52.5134 18.5333 52.3213C20.3577 52.1293 21.894 52.3213 23.7184 51.9372C29.8638 50.4009 35.9131 48.2884 41.4824 45.0237C43.7869 43.6794 44.7471 41.759 46.3795 39.8386C47.7238 38.1102 49.3561 36.7659 50.9885 35.3256C52.6208 33.8852 54.0612 32.5409 55.0214 30.6205C56.0776 28.6041 56.9418 26.2996 57.4219 24.0911C57.902 21.5945 57.2299 19.29 55.9816 17.3696ZM55.6935 23.5149C55.5975 23.995 55.5015 24.5712 55.4055 25.0513C55.0214 26.2996 54.2532 27.5478 53.1009 28.124C52.6208 28.412 51.8527 28.22 51.5646 27.7399C51.3726 27.4518 51.3726 27.0677 51.3726 26.7797C51.2766 26.1075 51.1805 25.5314 51.1805 24.8592C51.1805 23.3229 51.1805 21.7866 50.9885 20.2502C51.1805 21.1144 50.9885 18.9059 52.3328 18.3298C53.0049 18.0417 53.9651 18.3298 54.4452 18.8099C55.0214 19.482 55.2134 20.5383 55.4055 21.3065C55.5975 22.1706 55.7896 22.7468 55.6935 23.5149Z" fill="url(#paint4_linear_1_1113)"/>
<path opacity="0.4" fill-rule="evenodd" clip-rule="evenodd" d="M49.0666 96.2029C48.9706 96.2029 48.7786 96.2989 48.6826 96.2989L49.5467 96.3949C49.5467 96.2989 49.3547 96.2029 49.0666 96.2029ZM49.0666 96.2029C48.9706 96.2029 48.7786 96.2989 48.6826 96.2989L49.5467 96.3949C49.5467 96.2989 49.3547 96.2029 49.0666 96.2029ZM89.5876 50.5928C89.5876 51.745 89.2035 52.9933 89.2035 54.1456C89.2035 55.7779 88.9154 57.0262 88.5314 58.5625C88.2433 59.6188 87.6672 60.3869 87.3791 61.4432C86.995 62.5954 86.4189 63.6517 85.8428 64.7079C84.6905 66.8204 83.4422 69.0289 82.9621 71.4294C82.482 73.6379 82.386 75.4623 81.3298 77.4787C80.2735 79.3991 78.7372 81.0315 77.5849 82.9519C77.1048 83.8161 76.7208 83.8161 75.8566 84.3923C74.9924 85.0644 74.1282 86.0246 73.264 86.6968C71.4396 88.1371 69.7112 89.1933 67.4067 90.0575C65.9664 90.6336 64.6221 91.0177 63.0857 91.2098C62.1255 91.4018 61.1653 91.2098 60.2051 91.4018C58.6688 91.6899 57.2285 92.0739 55.6921 92.5541C53.2916 93.3222 50.795 93.8023 48.3945 94.5705C46.6661 95.0506 45.0337 95.4347 43.3054 95.7228C42.2491 95.9148 41.385 96.4909 40.3287 96.2989C39.2725 96.1068 38.2162 95.7228 37.16 95.3387C35.8157 94.9546 34.6634 94.8586 33.2231 94.8586C31.3027 94.8586 28.9982 95.1466 26.9817 94.7625C24.7733 94.3785 22.6608 93.7063 20.4523 93.3222C19.108 93.0342 18.1478 92.458 16.8995 91.9779C15.7473 91.4018 14.595 91.3058 13.3468 90.9217C12.0985 90.5376 10.8502 89.9615 9.60193 89.6734C11.5224 92.17 13.7308 94.4745 16.2274 96.4909C22.6608 101.964 30.6306 105.613 39.4645 106.765C40.6168 106.861 41.769 107.053 43.0173 107.053C45.6099 106.477 48.1064 105.709 50.699 104.941C55.02 103.597 58.7648 101.004 63.0857 99.7556C64.7181 99.2755 66.1584 98.7954 67.5987 98.0273C68.751 97.4511 69.9033 97.3551 70.9595 96.875C74.9924 95.1466 77.969 91.3058 79.7934 87.4649C80.5616 85.7365 81.3298 83.8161 82.8661 82.4718C83.4422 81.8957 84.2104 81.5116 84.6905 80.8395C85.2666 80.1673 85.6507 79.3992 86.2269 78.631C87.1871 77.3827 88.0512 76.0384 88.9154 74.7901C89.0115 74.5981 89.1075 74.5021 89.2035 74.31C90.3558 70.2771 90.9319 66.0522 90.9319 61.7312C90.9319 57.7944 90.4518 54.1456 89.5876 50.5928ZM47.8184 96.4909C48.0104 96.3949 48.2025 96.2029 48.3945 96.1068C48.5865 96.0108 48.8746 96.1068 49.0666 96.2029C49.4507 96.1068 49.7388 96.1068 50.0268 96.2989C50.2189 96.3949 50.507 96.587 50.603 96.779C50.699 96.971 50.603 97.0671 50.4109 97.2591C50.2189 97.4511 50.1229 97.4511 49.8348 97.4511C49.3547 97.5472 48.8746 97.6432 48.2985 97.5472C48.0104 97.5472 47.5303 97.4511 47.3383 97.2591C47.3383 96.875 47.6263 96.683 47.8184 96.4909ZM50.795 102.444C50.507 102.828 50.2189 103.212 49.8348 103.404C49.4507 103.693 49.0666 103.789 48.7786 104.077C47.8184 104.557 46.8582 105.133 45.8979 105.421C45.5139 105.517 45.0338 105.517 44.6497 105.517C44.1696 105.613 43.5934 105.613 43.1133 105.613C42.5372 105.613 41.8651 105.709 41.2889 105.805C40.7128 105.805 40.0406 105.901 39.4645 105.901C38.4083 105.997 37.5441 105.805 36.5839 105.421C35.7197 105.133 34.8555 104.653 34.0873 104.173C33.5112 103.789 33.0311 103.308 32.647 102.828C32.1669 102.444 31.8788 101.964 31.5908 101.388C31.4948 101.196 31.3987 101.004 31.4948 100.716C31.4948 100.62 31.5908 100.524 31.5908 100.524C31.7828 100.428 31.9749 100.236 32.0709 100.236C32.359 100.044 32.743 100.044 33.1271 99.9477C33.9913 99.8517 34.8555 99.9477 35.7197 100.044C36.1998 100.044 36.6799 100.14 37.16 100.044C37.8322 99.9477 38.5043 99.7556 39.0804 99.5636C40.6168 99.1795 42.1531 98.7954 43.6895 98.6994C45.2258 98.5074 46.9542 98.3153 48.4905 98.6034C49.0667 98.6994 49.8348 98.8915 50.3149 99.1795C50.699 99.4676 50.9871 99.8517 51.1791 100.236C51.4672 101.004 51.2751 101.772 50.795 102.444ZM62.8937 98.5074C62.6056 98.7954 62.2216 98.9875 61.8375 99.2755C61.3574 99.6596 60.8773 99.8517 60.3972 100.14C60.0131 100.428 59.5329 100.62 59.1489 100.812C58.6688 101.004 58.2847 101.196 57.8046 101.484C57.3245 101.676 56.8444 101.868 56.3643 102.06C55.9802 102.156 55.5961 102.348 55.212 102.252C54.924 102.156 54.5398 102.06 54.3478 101.868C53.9637 101.484 54.0598 101.1 54.1558 100.908C54.1558 100.62 54.0598 100.14 54.1558 99.7556C54.2518 99.5636 54.4438 99.2755 54.5399 99.0835C54.9239 98.3153 55.5001 97.8352 56.0762 97.2591C56.5563 96.779 57.1324 96.3949 57.8046 96.1068C58.5727 95.8188 59.533 95.7228 60.3011 95.6267C61.1653 95.5307 62.7017 95.4347 63.1818 96.4909C63.4698 97.1631 63.3738 97.8352 62.8937 98.5074ZM49.6428 96.2989C49.5467 96.2989 49.3547 96.2029 49.1627 96.1068C49.0666 96.1068 48.8746 96.2029 48.7786 96.2029L49.6428 96.2989Z" fill="url(#paint5_linear_1_1113)"/>
<path opacity="0.4" fill-rule="evenodd" clip-rule="evenodd" d="M85.9394 40.8946L85.9394 41.0866C85.8434 42.3349 85.3633 43.1991 84.8832 44.3513C84.4991 45.3115 84.115 46.0797 83.6349 46.9439C82.8667 48.3842 82.4826 49.7285 81.9065 51.3609C80.9463 53.7614 80.5622 56.354 79.1219 58.5625C77.8736 60.5789 77.4895 62.9794 76.5293 65.0919C75.3771 67.4924 73.5526 69.1248 71.6322 70.8532C70.768 71.6213 69.9999 72.5816 69.2317 73.4458C68.3675 74.3099 67.7914 75.4622 66.7352 76.2304C64.6227 77.7667 62.2221 79.111 60.1097 80.7434C58.8614 81.7036 57.9972 83.0479 56.5569 83.816C55.2126 84.6802 53.6763 85.2564 52.332 86.0245C51.0837 86.7927 49.8354 87.5609 48.4911 88.137C46.9548 88.7131 45.7065 88.5211 44.0741 88.6171C42.3458 88.7131 40.5214 89.1932 38.889 89.7694C37.5447 90.2495 36.3924 90.7296 34.9521 90.2495C33.9919 89.9614 33.2237 89.2893 32.2635 89.0972C29.959 88.6171 27.4625 89.0972 25.158 89.0012C23.3335 88.9052 21.4131 88.5211 19.5887 88.137C17.8604 87.8489 16.42 86.6007 14.7877 86.1206C12.6752 85.5444 10.2747 86.0245 8.35424 85.2564C7.49005 84.9683 6.72188 84.2962 6.04974 83.816C5.85769 83.72 5.76167 83.624 5.56963 83.528C5.28157 83.0479 4.99351 82.4717 4.70544 81.9916C5.18555 82.1837 5.66566 82.3757 6.14576 82.6638C8.73834 83.9121 12.0031 83.72 14.7877 84.2001C17.9564 84.7763 21.1251 85.5444 24.2938 85.9285C25.6381 86.1206 26.8863 86.0245 28.2306 85.9285C30.055 85.7365 31.8794 85.7365 33.7038 85.4484C36.7765 84.8723 39.8492 83.432 43.0179 83.816C43.594 83.9121 44.2662 84.2001 44.8423 84.2001C45.7065 84.2001 46.3787 83.432 47.0508 82.9519C48.2991 82.1837 49.6434 82.2797 50.7956 81.2235C51.8519 80.1672 53.1001 79.4951 54.4444 78.8229C57.9012 77.0946 60.6858 74.2139 63.4704 71.4293C65.7749 69.1248 67.9834 66.7243 69.5198 63.9396C71.0561 61.155 70.768 57.7943 71.9203 54.9137C72.7845 52.8012 73.4566 50.8808 74.8009 49.0564C75.4731 48.1922 76.2412 47.424 76.9134 46.5598C77.6816 45.6956 78.0657 44.7354 78.6418 43.6792C79.2179 42.5269 80.0821 41.5667 80.5622 40.3184C81.0423 39.1662 80.9463 38.206 80.9463 36.9577C80.9463 35.7094 80.9463 34.3651 80.9463 33.0208C82.9627 35.8054 84.5951 38.302 85.9394 40.8946Z" fill="url(#paint6_linear_1_1113)"/>
<path opacity="0.4" fill-rule="evenodd" clip-rule="evenodd" d="M78.7374 30.6205C78.2572 30.1403 77.7771 29.5642 77.297 29.0841C73.8403 25.6273 69.8074 22.8427 65.3904 20.6342C65.2944 20.5382 65.1983 20.5382 65.0063 20.4422C64.3342 20.1541 63.662 19.8661 62.9898 19.578C62.0296 19.1939 61.1654 18.8098 60.2052 18.5218C60.4933 18.7138 60.8774 18.9059 60.9734 18.9059C61.5495 19.1939 62.0297 19.386 62.4137 19.8661C62.7978 20.3462 62.9898 20.7303 62.9898 21.4024C62.9898 21.9785 63.0859 22.6507 63.1819 23.2268C63.2779 23.8029 63.566 24.2831 63.662 24.8592C63.758 25.1472 63.758 25.4353 63.8541 25.8194C64.0461 26.5876 64.3342 27.3557 64.5262 28.1239C64.8143 29.5642 64.0461 30.7165 63.566 31.9648C62.7978 33.9812 62.3177 35.9976 61.6456 38.1101C61.1654 39.7425 60.3013 41.3748 59.053 42.6231C57.8047 43.7754 55.9803 44.0634 54.9241 45.3117C53.9639 46.4639 52.8116 47.5202 51.4673 48.0963C49.931 48.8645 48.2026 49.4406 46.5702 49.9207C45.418 50.3048 44.1697 50.3048 42.9214 50.5929C41.3851 50.9769 40.0408 51.7451 38.6965 52.3212C37.1601 52.9934 35.8158 53.7616 34.2795 54.4337C32.7432 55.1059 31.3989 55.9701 29.8625 56.5462C29.0943 56.8342 28.3262 57.0263 27.654 57.2183C26.1177 57.7945 24.6774 58.7547 23.045 58.9467C22.4689 59.0427 21.8928 59.1388 21.3166 59.1388C20.8365 59.1388 20.4525 59.2348 20.0684 59.3308C18.6281 59.9069 17.7639 61.4433 16.1315 61.5393C14.5952 61.5393 13.1548 61.4433 11.7145 61.6353C10.9463 61.7313 10.2742 61.6353 9.60206 61.7313C9.41002 61.7313 9.12194 61.8274 8.9299 61.7313C8.73786 61.6353 8.44981 61.4433 8.16174 61.2512C7.58562 60.9632 7.1055 60.5791 6.6254 60.195C5.66519 59.4268 4.41692 59.9069 3.36068 59.6189C3.07262 59.5228 2.59251 59.6189 2.30444 59.4268C1.63229 59.0427 0.768091 58.1785 0.191964 57.6984C0.0959426 58.9467 -6.10366e-05 60.195 -6.10367e-05 61.4433C-6.10367e-05 63.6518 0.191981 65.7642 0.480045 67.8767C0.576066 68.8369 0.768109 69.7971 0.960151 70.8533C1.24822 72.1976 1.63228 73.638 2.01636 74.8862C2.59249 76.7106 3.26464 78.535 4.03281 80.2634C5.28109 80.4555 6.52936 80.6475 7.77764 80.4555C9.60204 80.1674 11.3304 79.8793 13.1548 79.9754C14.8832 80.0714 16.4196 80.6475 18.0519 80.9356C19.8763 81.2236 21.7967 81.5117 23.7172 81.6077C25.4455 81.7037 27.1739 81.8958 28.8063 82.0878C30.0546 82.2799 31.3989 82.4719 32.6472 82.5679C36.0079 82.76 39.2726 81.8958 42.5373 81.6077C44.1697 81.4157 45.8021 81.0316 47.4344 80.6475C48.3946 80.4555 49.3548 80.1674 50.219 79.5913C51.3713 78.8231 52.1395 77.7669 53.0997 76.9027C54.2519 75.9425 55.4042 74.9823 56.5564 74.1181C57.5167 73.3499 58.4769 72.4857 59.5331 71.8136C60.3013 71.3335 61.1655 70.7573 61.9336 70.1812C63.374 69.0289 64.6222 67.6846 65.8705 66.2443C67.5989 64.2279 68.271 61.4433 68.9432 58.9467C69.6153 56.6422 69.9994 54.4337 71.2477 52.3212C71.8238 51.361 72.3039 50.2088 72.592 49.0565C72.784 48.3844 72.88 47.5202 73.1681 46.848C73.6482 45.7918 74.7045 44.9276 75.2806 43.9674C75.7607 43.1992 76.3368 42.4311 76.6249 41.4708C77.297 39.7425 77.7771 38.0141 78.0652 36.0937C78.2572 34.7494 78.7373 33.4051 79.1214 32.0608C79.2175 31.8687 79.2174 31.5807 79.3135 31.3886C79.3135 31.2926 79.0254 30.9085 78.7374 30.6205ZM19.4922 61.7313C19.5883 61.5393 21.3166 60.8671 21.5087 60.7711C21.5087 60.7711 21.5087 60.7711 21.4127 60.7711L20.2604 61.2512C21.5087 60.8671 23.7172 62.1154 22.6609 63.4597C22.3729 63.8438 21.5087 64.0358 21.0286 64.1319C20.5485 64.2279 20.2604 64.0358 19.9723 63.6518C19.6843 63.2677 19.4922 62.6915 19.4922 62.2114C19.4922 62.1154 19.4922 61.8274 19.4922 61.7313ZM5.95324 73.926C4.60894 73.5419 3.74474 73.0618 2.97657 71.9096C2.40045 71.1414 2.01638 70.4693 1.82434 69.6051C1.72832 68.8369 1.44024 68.2608 1.63228 67.4926C1.7283 66.9165 2.01638 66.2443 2.30444 65.7642C2.59251 65.1881 3.0726 64.5159 3.0726 64.3239C4.4169 64.2279 5.66517 64.1319 6.91345 64.1319C8.35377 64.1319 9.89011 64.3239 11.3304 64.3239C12.0026 64.3239 12.6747 64.3239 13.3469 64.2279C14.019 64.1319 14.5952 63.9398 15.2673 63.8438C16.4196 63.6518 17.4758 63.5557 18.532 64.0358C19.3002 64.4199 19.6843 65.3801 20.0684 66.1483C20.2604 66.6284 20.4524 66.9165 20.4524 67.4926C20.4524 68.1648 20.4524 68.7409 20.3564 69.317C20.3564 69.509 20.2604 69.7971 20.2604 69.9892C19.3002 72.0056 16.8037 72.6777 14.8832 73.4459C12.0026 74.5982 8.83387 74.6942 5.95324 73.926ZM26.4058 78.343C25.8297 79.8793 23.3331 80.3594 21.8928 80.4555C21.2206 80.4555 20.3564 80.3594 19.6843 79.9754C19.3002 79.7833 19.0121 79.3992 18.7241 79.0152C18.532 78.7271 18.244 78.247 17.4758 78.439C17.6678 77.5748 17.8599 76.8067 18.244 76.0385C18.532 75.6544 18.9161 75.3663 19.3002 74.9823C19.9723 74.4061 20.7405 73.83 21.5087 73.4459C22.757 72.7738 24.1013 73.2539 25.2535 73.83C26.1177 74.2141 26.6938 74.7902 26.8859 75.6544C27.1739 76.7106 26.7899 77.3828 26.4058 78.343ZM43.3055 78.0549C42.8254 79.1112 42.1533 79.3992 41.193 79.9754C40.0408 80.5515 38.5044 81.0316 37.2562 81.0316C36.584 81.0316 35.9119 80.7435 35.3357 80.4555C34.9517 80.2634 34.4715 80.1674 34.1835 79.8793C33.3193 79.0151 33.1272 77.8629 33.7034 78.0549C33.3193 77.2868 33.1273 76.5186 33.0312 75.7504C33.2233 75.6544 33.3193 75.4624 33.3193 75.2703C33.7994 74.4061 34.6636 73.638 35.6238 73.1579C37.1601 72.2937 39.1766 72.1016 40.905 72.8698C41.6731 73.1579 42.1533 73.5419 42.6334 74.1181C42.9214 74.4061 43.2095 74.5982 43.4975 74.9823C43.7856 75.7504 43.5936 77.1908 43.3055 78.0549ZM48.3946 77.8629C48.1066 78.0549 47.6265 78.439 47.3384 78.439C47.0503 78.343 46.5702 77.8629 46.5702 77.4788L46.3782 77.2868C46.7623 76.6146 47.1464 76.0385 47.5304 75.3663C48.1066 75.6544 48.6827 75.5584 49.0668 76.2305C49.5469 76.9027 48.8747 77.4788 48.3946 77.8629ZM61.3575 47.6162C60.8774 48.2884 60.2052 48.9605 59.4371 49.2486C58.4769 49.6327 57.1326 50.0167 57.0365 48.4804C57.0365 47.6162 57.1326 46.9441 57.5167 46.1759C58.0928 45.0236 58.5729 44.7356 59.7251 44.1594C60.1092 44.1594 60.5893 44.3515 60.8774 44.4475C61.4535 44.6396 62.0296 45.2157 62.1257 45.8878C62.2217 46.56 61.7416 47.1361 61.3575 47.6162ZM73.3602 41.1828C72.8801 42.7191 72.2079 44.1594 71.5358 45.5037C70.7676 47.2321 70.6715 49.0565 70.1914 50.8809C69.9994 51.9372 69.4233 53.0894 68.4631 53.4735C67.983 53.6655 67.5989 53.5695 67.1188 53.5695C66.6387 53.5695 65.8705 53.7616 65.8705 54.1457C65.5824 53.3775 65.1983 52.4173 65.0063 51.6491C64.8143 50.7849 64.7182 49.8247 64.6222 48.8645C64.4302 47.9043 64.4302 46.9441 64.3342 45.9838C64.2381 45.1197 64.0461 44.1594 64.0461 43.2952C64.0461 40.3186 65.7745 36.5738 68.5591 35.2295C69.4233 34.8454 70.2875 34.6533 71.2477 34.7494C72.3039 34.9414 72.9761 35.2295 73.4562 36.2857C74.0323 37.726 73.7442 39.6464 73.3602 41.1828Z" fill="url(#paint7_linear_1_1113)"/>
<path opacity="0.4" fill-rule="evenodd" clip-rule="evenodd" d="M60.2725 45.13C60.1764 45.226 59.9844 45.226 59.8884 45.322C59.6003 45.322 59.4083 45.226 59.2162 45.322L60.2725 45.13Z" fill="url(#paint8_linear_1_1113)"/>
<path fill-rule="evenodd" clip-rule="evenodd" d="M47.1184 67.2148C45.198 66.2546 47.4065 57.7087 49.3269 55.7883C51.2473 53.8678 56.3365 58.2848 56.9126 61.8376C57.5847 65.4864 51.6314 69.3273 47.1184 67.2148Z" fill="url(#paint9_linear_1_1113)"/>
<path opacity="0.4" fill-rule="evenodd" clip-rule="evenodd" d="M2.97688 64.3239C2.88085 64.3239 2.78485 64.3239 2.78485 64.3239C2.97689 64.2279 2.97688 64.2279 2.97688 64.3239Z" fill="url(#paint10_linear_1_1113)"/>
<path fill-rule="evenodd" clip-rule="evenodd" d="M54.1562 16.9853L62.1259 13.8166C62.1259 13.8166 74.8007 18.7137 82.8665 29.5641L83.3466 36.4776C83.3466 36.4776 68.1753 30.6203 54.1562 16.9853Z" fill="url(#paint11_linear_1_1113)"/>
<path fill-rule="evenodd" clip-rule="evenodd" d="M83.155 87.1769C83.155 87.1769 76.4336 94.4745 71.4405 96.0108L67.3115 97.2591C67.3115 97.2591 48.3953 90.4416 47.3391 78.631C46.4749 68.6448 63.4707 53.3774 68.0797 51.553C72.6887 49.7286 78.0659 50.7848 78.0659 50.7848L83.155 87.1769Z" fill="url(#paint12_linear_1_1113)"/>
<path fill-rule="evenodd" clip-rule="evenodd" d="M78.066 50.7848C74.0331 49.5365 56.8453 57.5063 52.1403 75.2702C51.1801 78.919 59.918 92.6501 70.3843 96.0108C73.8411 97.1631 89.7806 83.24 90.4528 73.8299C91.1249 64.4198 84.0193 52.7052 78.066 50.7848Z" fill="url(#paint13_linear_1_1113)"/>
<path fill-rule="evenodd" clip-rule="evenodd" d="M53.2922 77.3828C55.7887 57.2183 74.1288 50.5929 78.1617 51.8411C81.0423 52.8014 85.2672 57.0263 87.7638 61.1552C85.2672 55.97 81.5224 51.7451 78.1617 50.6889C74.1288 49.4406 56.941 57.4104 52.2359 75.1743C51.9479 76.4226 52.716 78.9191 54.4444 81.7998C53.3882 79.9754 53.1001 78.343 53.2922 77.3828Z" fill="url(#paint14_linear_1_1113)"/>
<path opacity="0.3" fill-rule="evenodd" clip-rule="evenodd" d="M19.4932 99.0836C19.4932 99.0836 23.6221 100.62 26.5987 99.7558C26.5987 99.7558 27.751 90.0576 24.1022 83.8163C20.4534 77.5749 14.212 86.9849 14.212 86.9849L12.7717 92.9383C12.7717 92.9383 16.2284 97.0672 19.4932 99.0836Z" fill="black"/>
<path fill-rule="evenodd" clip-rule="evenodd" d="M23.0457 97.5473L25.6382 96.8752C25.6382 96.8752 26.8865 91.498 24.678 85.3526C22.1815 78.4391 12.9634 73.254 11.6191 73.1579C10.2748 73.0619 8.93054 76.1346 8.93054 76.1346L23.0457 97.5473Z" fill="url(#paint15_linear_1_1113)"/>
<path fill-rule="evenodd" clip-rule="evenodd" d="M64.6223 102.828L60.2053 108.494C60.2053 108.494 52.6196 112.143 44.9379 110.414L39.3687 106.669L64.6223 102.828Z" fill="url(#paint16_linear_1_1113)"/>
<path fill-rule="evenodd" clip-rule="evenodd" d="M7.01044 80.3593C7.49055 78.2468 9.31496 74.7901 10.9473 74.406C12.5797 74.0219 20.4534 81.5116 22.2778 86.3126C24.1022 91.1137 23.142 96.3949 23.046 97.4511C22.95 98.5073 14.116 95.5307 9.60303 91.8819C5.18605 88.233 7.01044 80.3593 7.01044 80.3593Z" fill="url(#paint17_linear_1_1113)"/>
<path fill-rule="evenodd" clip-rule="evenodd" d="M22.2774 86.3127C20.453 81.5116 12.6753 74.118 10.9469 74.4061C10.2748 74.5021 9.60262 75.1742 9.02649 75.9424C9.41057 75.5583 9.79464 75.3663 10.1787 75.2703C11.8111 74.8862 19.7809 80.8395 21.6053 85.6405C23.8138 91.4978 22.5655 95.7228 22.3734 97.6432C22.7575 97.6432 23.0456 97.6432 23.0456 97.4512C23.1416 96.3949 24.1018 91.1138 22.2774 86.3127Z" fill="url(#paint18_linear_1_1113)"/>
<path fill-rule="evenodd" clip-rule="evenodd" d="M48.8756 65.3801C47.3393 64.6119 49.0676 57.5063 50.604 55.874C52.1403 54.3376 56.1732 57.9864 56.7493 60.9631C57.3255 63.9397 52.5244 67.1084 48.8756 65.3801Z" fill="url(#paint19_linear_1_1113)"/>
<path fill-rule="evenodd" clip-rule="evenodd" d="M62.1259 13.8166C62.1259 13.8166 62.51 18.6177 67.9832 24.571C73.4564 30.5243 82.8665 29.5641 82.8665 29.5641L83.3466 36.4776C83.3466 36.4776 63.3742 27.6437 54.1562 16.9853L62.1259 13.8166Z" fill="url(#paint20_linear_1_1113)"/>
<path fill-rule="evenodd" clip-rule="evenodd" d="M77.7785 56.7383C77.5865 56.9303 77.0103 57.3144 77.4904 57.6025C77.5865 57.6985 77.6825 57.6025 77.7785 57.6985C77.8745 57.6985 77.8745 57.7945 77.9705 57.7945C78.2586 57.6025 78.1626 56.6423 77.7785 56.7383Z" fill="#0EDBFF"/>
<path fill-rule="evenodd" clip-rule="evenodd" d="M96.5986 48.6725C96.4066 48.8646 95.8305 49.2487 96.3106 49.5367C96.4066 49.6328 96.5026 49.5367 96.5986 49.6327C96.6946 49.6327 96.6947 49.7288 96.7907 49.7288C97.1748 49.4407 96.9827 48.5765 96.5986 48.6725Z" fill="#0EDBFF"/>
<path fill-rule="evenodd" clip-rule="evenodd" d="M88.3408 82.0879C88.1488 82.2799 87.5726 82.664 88.0528 82.9521C88.1488 83.0481 88.2448 82.9521 88.3408 83.0481C88.4369 83.0481 88.4368 83.1441 88.5329 83.1441C88.9169 82.9521 88.7249 81.9919 88.3408 82.0879Z" fill="#0EDBFF"/>
<path fill-rule="evenodd" clip-rule="evenodd" d="M79.4108 60.099C79.6029 60.003 79.6989 60.003 79.8909 60.003C79.8909 60.195 80.083 60.5791 79.7949 60.7712C79.6029 60.8672 79.6029 60.4831 79.5069 60.3871L79.4108 60.099Z" fill="#0EDBFF"/>
<path fill-rule="evenodd" clip-rule="evenodd" d="M49.5482 62.1155C49.8363 62.2115 50.1244 62.4035 50.4124 62.4995C50.5085 62.4035 50.6045 62.4035 50.7965 62.4035C50.9886 62.3075 51.0846 62.1155 51.0846 61.9234C51.1806 61.6354 51.0846 61.4433 50.8925 61.2513C50.7965 61.1552 50.7005 60.9632 50.6045 60.8672C50.5084 60.7712 50.2204 60.7712 50.0283 60.8672C49.8363 60.9632 49.7403 61.1552 49.6443 61.3473C49.5482 61.5393 49.3562 61.7314 49.3562 61.9234C49.3562 62.1155 49.5482 62.3075 49.6443 62.4995L49.5482 62.1155Z" fill="#0EDBFF"/>
<path fill-rule="evenodd" clip-rule="evenodd" d="M7.10685 84.7765C7.39491 84.8725 7.68297 85.0645 7.97103 85.1606C8.06706 85.0645 8.16307 85.0645 8.35511 85.0645C8.54716 84.9685 8.64319 84.7765 8.64319 84.5844C8.73922 84.2964 8.64318 84.1043 8.45114 83.9123C8.35512 83.8163 8.25911 83.6242 8.16309 83.5282C8.06707 83.4322 7.779 83.4322 7.58696 83.5282C7.39491 83.6242 7.2989 83.8163 7.20288 84.0083C7.10685 84.2003 6.91479 84.3924 6.91479 84.5844C6.91479 84.7765 7.10685 84.9685 7.20288 85.1606L7.10685 84.7765Z" fill="#0EDBFF"/>
<path fill-rule="evenodd" clip-rule="evenodd" d="M89.7812 96.5871C90.0693 96.6832 90.3573 96.8752 90.6454 96.9712C90.7414 96.8752 90.8374 96.8752 91.0295 96.8752C91.2215 96.7792 91.3175 96.5871 91.3175 96.3951C91.4136 96.107 91.3176 95.915 91.1255 95.7229C91.0295 95.6269 90.9335 95.4349 90.8374 95.3389C90.7414 95.2428 90.4534 95.2428 90.2613 95.3389C90.0693 95.4349 89.9732 95.6269 89.8772 95.819C89.7812 96.011 89.5892 96.203 89.5892 96.3951C89.5892 96.5871 89.7812 96.7792 89.8772 96.9712L89.7812 96.5871Z" fill="#0EDBFF"/>
<path fill-rule="evenodd" clip-rule="evenodd" d="M83.8279 88.3292C84.1159 88.4253 84.404 88.6173 84.692 88.7133C84.7881 88.6173 84.8841 88.6173 85.0761 88.6173C85.2682 88.5213 85.3642 88.3292 85.3642 88.1372C85.4602 87.8491 85.3642 87.6571 85.1721 87.465C85.0761 87.369 84.9801 87.177 84.8841 87.081C84.7881 86.9849 84.5 86.9849 84.308 87.081C84.1159 87.177 84.0199 87.369 83.9239 87.5611C83.8279 87.7531 83.6358 87.9452 83.6358 88.1372C83.6358 88.3292 83.8279 88.5213 83.9239 88.7133L83.8279 88.3292Z" fill="#0EDBFF"/>
<path fill-rule="evenodd" clip-rule="evenodd" d="M1.34562 31.1006C2.11379 31.3887 2.88195 31.6767 3.65012 32.0608C3.93819 31.8688 4.22624 31.8688 4.51431 31.6767C4.89839 31.3887 5.18645 30.9086 5.37849 30.5245C5.57054 29.8523 5.28248 29.3722 4.99441 28.8921C4.80237 28.604 4.61035 28.1239 4.32228 27.8359C3.9382 27.5478 3.26605 27.6438 2.88196 27.8359C2.40186 28.0279 2.11379 28.508 1.82572 28.8921C1.53766 29.2762 1.24959 29.9483 1.15356 30.4284C1.15356 30.9086 1.53767 31.4847 1.92175 31.7727L1.34562 31.1006Z" fill="#0EDBFF"/>
<path fill-rule="evenodd" clip-rule="evenodd" d="M51.4687 3.44649C52.2369 3.73456 53.0051 4.02262 53.7732 4.40671C54.0613 4.21466 54.3494 4.21467 54.6374 4.02262C55.0215 3.73456 55.3096 3.25445 55.5016 2.87037C55.6936 2.19822 55.4056 1.71811 55.1175 1.23801C54.9255 0.949944 54.7334 0.469839 54.4454 0.181775C54.0613 -0.106288 53.3891 -0.0102672 53.005 0.181775C52.5249 0.373818 52.2369 0.853922 51.9488 1.23801C51.6607 1.62209 51.3727 2.29424 51.2767 2.77435C51.2767 3.25446 51.6607 3.83058 52.0448 4.11864L51.4687 3.44649Z" fill="#0EDBFF"/>
<path fill-rule="evenodd" clip-rule="evenodd" d="M58.0941 69.6051C57.9981 69.7011 57.9021 69.7971 57.806 69.9892C57.9021 70.1812 57.9981 70.2772 58.1901 70.3733C58.2861 70.3733 58.3822 70.3733 58.4782 70.3733C58.5742 70.2772 58.4782 70.1812 58.5742 70.0852C58.6702 69.8932 58.6702 69.7971 58.5742 69.6051C58.4782 69.5091 58.4782 69.4131 58.3822 69.4131C58.2861 69.4131 58.0941 69.4131 58.0941 69.5091L58.0941 69.6051Z" fill="#0EDBFF"/>
<path fill-rule="evenodd" clip-rule="evenodd" d="M58.7662 74.4062C58.7662 74.5022 58.4781 75.0784 58.7662 74.8863C58.9583 74.7903 58.9583 74.5022 58.7662 74.4062C58.8622 74.4062 58.8622 74.4062 58.7662 74.4062Z" fill="#0EDBFF"/>
<path fill-rule="evenodd" clip-rule="evenodd" d="M73.8416 83.0481C73.6496 83.3362 73.6495 83.4322 73.5535 83.7203C73.6495 83.8163 73.8416 83.8163 73.9376 83.8163C74.1297 83.8163 74.1297 83.7203 74.1297 83.6242C74.1297 83.5282 74.2257 83.3362 74.1297 83.2401C74.0336 83.0481 73.9376 82.9521 73.8416 83.0481Z" fill="#0EDBFF"/>
<path fill-rule="evenodd" clip-rule="evenodd" d="M61.1666 70.1813C61.2626 70.2773 61.3587 70.3733 61.3587 70.5654C61.1666 70.5654 61.1666 70.4694 61.1666 70.2773C61.1666 70.0853 61.2627 70.1813 61.3587 69.9893C61.3587 69.9893 61.3587 69.9893 61.4547 69.9893L61.1666 70.1813Z" fill="#0EDBFF"/>
<path fill-rule="evenodd" clip-rule="evenodd" d="M75.57 57.3145C75.474 57.4105 75.378 57.5065 75.282 57.6025C75.378 57.6986 75.282 57.8906 75.474 57.8906C75.57 57.8906 75.6661 57.7946 75.7621 57.6025C75.8581 57.5065 75.8581 57.4105 75.8581 57.2185C75.8581 57.1224 75.8581 56.8344 75.7621 57.0264L75.57 57.3145Z" fill="#0EDBFF"/>
<path fill-rule="evenodd" clip-rule="evenodd" d="M73.5535 23.8031C73.7456 23.8031 73.8416 23.707 74.0336 23.707C74.0336 23.707 74.1297 23.707 74.2257 23.707C74.4177 23.707 74.4177 23.707 74.4177 23.8031C74.5138 23.8991 74.5137 24.0911 74.5137 24.1871C74.4177 24.7633 73.6496 23.8991 73.9376 23.707L73.5535 23.8031Z" fill="#0EDBFF"/>
<path fill-rule="evenodd" clip-rule="evenodd" d="M12.484 24.8592C12.1959 24.9552 11.8118 24.9552 11.8118 25.2433C11.8118 25.5314 12.1959 25.7234 12.388 25.8194C12.772 25.9154 13.3482 26.0115 13.5402 25.5314C13.6362 25.2433 13.5402 24.7632 13.4442 24.5711C13.1561 24.091 12.484 24.2831 12.0039 24.4751L12.484 24.8592Z" fill="#0EDBFF"/>
<path fill-rule="evenodd" clip-rule="evenodd" d="M77.2985 83.6242C77.2024 82.76 77.0104 81.8958 77.7786 81.4157C78.1627 81.1277 78.9308 81.1277 79.4109 81.4157C79.699 81.6078 79.9871 81.9918 80.0831 82.2799C80.3711 82.76 80.2751 82.76 80.1791 83.1441C79.891 84.1043 79.603 84.6804 78.7388 84.6804C77.4905 84.6804 77.2985 83.7202 77.2985 82.568L77.2985 83.6242Z" fill="#0EDBFF"/>
<path fill-rule="evenodd" clip-rule="evenodd" d="M77.8745 59.1388C78.2585 59.0428 78.5466 58.8508 78.7387 58.5627C78.4506 58.3707 77.9705 58.0826 77.8745 58.5627L77.8745 59.1388Z" fill="#0EDBFF"/>
<path fill-rule="evenodd" clip-rule="evenodd" d="M9.02728 81.3196C9.41137 81.2236 9.69943 81.0316 9.89147 80.7435C9.6034 80.5515 9.1233 80.2634 9.02728 80.7435L9.02728 81.3196Z" fill="#0EDBFF"/>
<path fill-rule="evenodd" clip-rule="evenodd" d="M9.02728 88.6173C9.41137 88.5213 9.69943 88.3293 9.89147 88.0412C9.6034 87.8492 9.1233 87.5611 9.02728 88.0412L9.02728 88.6173Z" fill="#0EDBFF"/>
<path fill-rule="evenodd" clip-rule="evenodd" d="M60.4945 62.4996C60.8786 62.1155 61.3587 61.3473 61.9348 61.7314C62.3189 62.0195 62.4149 62.5956 62.0308 62.8836C61.7428 63.0757 61.4547 63.1717 61.0706 63.2677C60.7826 63.3637 60.3985 63.1717 60.4945 62.7876L60.4945 62.4996Z" fill="#0EDBFF"/>
<path fill-rule="evenodd" clip-rule="evenodd" d="M71.9212 81.3197C72.3053 80.9356 72.7854 80.1674 73.3615 80.5515C73.7456 80.8396 73.8417 81.4157 73.4576 81.7038C73.1695 81.8958 72.8814 81.9918 72.4974 82.0879C72.2093 82.1839 71.8252 81.9918 71.9212 81.6078L71.9212 81.3197Z" fill="#0EDBFF"/>
<path fill-rule="evenodd" clip-rule="evenodd" d="M70.1927 18.9059C70.6728 19.002 71.6331 19.002 71.5371 19.7701C71.5371 20.1542 70.9609 20.6343 70.5769 20.4423C70.1928 20.2502 70.0007 20.0582 69.7126 19.7701C69.5206 19.5781 69.4246 19.098 69.9047 19.002L70.1927 18.9059Z" fill="#0EDBFF"/>
<path fill-rule="evenodd" clip-rule="evenodd" d="M68.2724 86.2168C68.6565 85.8327 69.1366 85.0645 69.7127 85.4486C70.0968 85.7367 70.1929 86.3128 69.8088 86.6009C69.5207 86.7929 69.2326 86.8889 68.8486 86.985C68.5605 87.081 68.1764 86.8889 68.2724 86.5048L68.2724 86.2168Z" fill="#0EDBFF"/>
<path fill-rule="evenodd" clip-rule="evenodd" d="M52.717 61.8275C52.3329 62.1155 51.5647 62.4036 51.4687 63.0757C51.4687 63.4598 51.5647 63.6519 51.9488 63.8439C52.2369 63.9399 52.6209 63.9399 52.909 63.8439C53.2931 63.6519 53.7732 63.2678 53.9652 62.8837C54.0613 62.5956 54.0613 62.4036 53.9652 62.1155C53.8692 61.9235 53.7732 61.7314 53.5812 61.7314C53.005 61.5394 52.717 62.1155 52.3329 62.3076L52.717 61.8275Z" fill="#0EDBFF"/>
<path fill-rule="evenodd" clip-rule="evenodd" d="M54.1572 60.2911C54.3493 60.3871 54.6373 60.4831 54.7334 60.6752C54.5413 60.7712 54.2532 60.9632 53.9652 60.8672C53.6771 60.7712 53.5811 60.4831 53.6771 60.1951C53.6771 60.003 53.9652 59.715 54.1572 59.811C54.2533 59.811 54.2533 60.003 54.2533 60.003C54.3493 60.1951 54.3493 60.099 54.2533 60.2911L54.1572 60.2911Z" fill="#0EDBFF"/>
<path fill-rule="evenodd" clip-rule="evenodd" d="M66.064 57.6986C64.9117 58.6588 63.8555 59.9071 63.2794 61.3474C62.9913 62.1155 63.4714 62.1155 64.1436 62.0195C65.3918 61.7315 66.7361 61.4434 67.9844 61.0593C68.7526 60.8673 69.8088 60.4832 70.2889 59.811C70.673 59.3309 70.865 58.4667 70.769 57.8906C70.673 57.0264 70.0008 56.7384 69.2327 56.4503C67.4083 55.9702 64.9117 57.8906 64.2396 59.523L66.064 57.6986Z" fill="#0EDBFF"/>
<path fill-rule="evenodd" clip-rule="evenodd" d="M59.7266 64.2279C60.1107 64.2279 60.3987 64.3239 60.7828 64.5159C60.6868 64.612 60.6868 64.804 60.6868 64.9C60.5908 65.0921 60.3987 65.2841 60.3027 65.3801C60.0146 65.5722 59.5345 65.6682 59.2465 65.4761C58.2863 65.0921 59.7266 63.9398 60.1107 64.4199L59.7266 64.2279Z" fill="#0EDBFF"/>
<path fill-rule="evenodd" clip-rule="evenodd" d="M6.33865 100.62C6.24263 100.716 6.14662 100.812 6.0506 101.004C6.14662 101.196 6.24263 101.292 6.43468 101.388C6.5307 101.388 6.62674 101.388 6.72276 101.388C6.81878 101.292 6.72274 101.196 6.81876 101.1C6.91478 100.908 6.91478 100.812 6.81876 100.62C6.72274 100.524 6.72275 100.428 6.62673 100.428C6.53071 100.428 6.33865 100.428 6.33865 100.524L6.33865 100.62Z" fill="#0EDBFF"/>
<path fill-rule="evenodd" clip-rule="evenodd" d="M7.10679 105.421C7.10679 105.517 6.81872 106.093 7.10679 105.901C7.29883 105.805 7.20281 105.517 7.10679 105.421C7.10679 105.517 7.10679 105.421 7.10679 105.421Z" fill="#0EDBFF"/>
<path fill-rule="evenodd" clip-rule="evenodd" d="M9.4115 101.196C9.50752 101.292 9.60355 101.388 9.60355 101.58C9.41151 101.58 9.4115 101.484 9.4115 101.292C9.4115 101.1 9.50753 101.196 9.60355 101.004C9.60355 101.004 9.60353 101.004 9.69955 101.004L9.4115 101.196Z" fill="#0EDBFF"/>
<path fill-rule="evenodd" clip-rule="evenodd" d="M7.97115 95.2429C8.35523 95.2429 8.6433 95.3389 9.02738 95.531C8.93136 95.627 8.93136 95.819 8.93136 95.915C8.83534 96.1071 8.6433 96.2991 8.54728 96.3951C8.25921 96.5872 7.7791 96.6832 7.49104 96.4912C6.53083 96.1071 7.97114 94.9548 8.35522 95.4349L7.97115 95.2429Z" fill="#0EDBFF"/>
<path fill-rule="evenodd" clip-rule="evenodd" d="M68.2723 19.7701C68.5603 19.9621 68.9444 20.1542 69.2325 20.4422C69.5205 20.8263 69.8086 21.1144 70.0007 21.4985C70.0967 21.6905 70.3847 22.1706 70.0007 22.1706C69.6166 22.2666 68.8484 21.6905 68.4643 21.4024C67.8882 21.0184 67.4081 20.7303 67.024 20.1542C66.832 19.8661 66.5439 19.386 66.7359 19.0979C66.928 18.8099 67.12 18.8099 67.4081 18.8099C67.6961 18.8099 67.8882 18.9059 68.1763 19.0979C68.2723 19.194 68.8484 19.7701 68.6564 19.8661L68.2723 19.7701Z" fill="#0EDBFF"/>
<path fill-rule="evenodd" clip-rule="evenodd" d="M72.4972 56.0661C72.3051 56.1622 71.1528 56.8343 71.729 57.1224C72.017 57.3144 72.6892 57.2184 72.9773 57.1224C73.2653 57.0263 73.5534 56.8343 73.3613 56.5462C72.9773 55.8741 72.113 56.2582 71.6329 56.5462L72.4972 56.0661Z" fill="#0EDBFF"/>
<path fill-rule="evenodd" clip-rule="evenodd" d="M81.1393 16.6014C80.7552 16.8895 77.6826 18.5218 79.1229 19.29C79.8911 19.6741 81.4274 19.5781 82.1955 19.194C82.8677 18.9059 83.6359 18.4258 83.1558 17.6577C82.2916 16.0253 80.0831 16.9855 78.9308 17.6577L81.1393 16.6014Z" fill="#0EDBFF"/>
<path fill-rule="evenodd" clip-rule="evenodd" d="M9.5072 85.2565C9.60322 85.9287 9.79526 86.6968 10.3714 87.1769C11.0435 87.6571 11.7157 87.465 12.3878 87.0809C12.8679 86.7929 13.252 86.5048 13.7321 86.2167C14.0202 86.0247 14.2122 86.0247 14.2122 85.6406C14.2122 85.2565 13.8281 84.6804 13.6361 84.3923C13.348 84.0082 12.7719 83.6242 12.3878 83.4321C11.4276 83.048 9.60323 83.4321 9.60323 84.6804L9.5072 85.2565Z" fill="#0EDBFF"/>
<path fill-rule="evenodd" clip-rule="evenodd" d="M73.0735 86.6969C73.1695 87.177 73.2655 87.7532 73.6496 88.0412C74.1297 88.4253 74.6098 88.2333 75.0899 87.9452C75.378 87.7532 75.7621 87.5611 76.0502 87.3691C76.2422 87.2731 76.4342 87.2731 76.4342 86.985C76.4342 86.6969 76.1462 86.3128 76.0502 86.1208C75.8581 85.8327 75.474 85.5447 75.186 85.4487C74.5138 85.1606 73.2655 85.4487 73.2655 86.3129L73.0735 86.6969Z" fill="#0EDBFF"/>
<path fill-rule="evenodd" clip-rule="evenodd" d="M62.2224 14.5848C62.2224 14.5848 64.3349 23.4188 70.1922 26.7795C77.5858 31.0045 82.771 29.5642 82.771 29.5642C82.771 29.5642 76.1455 29.3721 70.0001 25.1472C64.911 21.5944 62.2224 14.5848 62.2224 14.5848Z" fill="url(#paint21_linear_1_1113)"/>
<path opacity="0.2" fill-rule="evenodd" clip-rule="evenodd" d="M48.2994 82.9519L52.2363 77.1906C52.2363 77.1906 57.3254 91.5938 70.3843 96.1068L67.5036 97.9312C67.5996 97.9312 54.1567 94.0904 48.2994 82.9519Z" fill="black"/>
<path opacity="0.3" fill-rule="evenodd" clip-rule="evenodd" d="M55.7888 18.9058C55.7888 18.9058 74.705 37.918 88.34 46.3679C88.34 46.3679 86.9957 41.1827 83.3469 36.3817C83.3469 36.4777 71.9204 32.7329 55.7888 18.9058Z" fill="black"/>
<defs>
<linearGradient id="paint0_linear_1_1113" x1="15.1879" y1="37.1947" x2="15.1879" y2="21.4403" gradientUnits="userSpaceOnUse">
<stop stop-color="#9A00B3"/>
<stop offset="1" stop-color="#7F72FF"/>
</linearGradient>
<linearGradient id="paint1_linear_1_1113" x1="11.7013" y1="37.9928" x2="17.6211" y2="19.9205" gradientUnits="userSpaceOnUse">
<stop stop-color="#5B008B"/>
<stop offset="1" stop-color="#8E00FF"/>
</linearGradient>
<radialGradient id="paint2_radial_1_1113" cx="0" cy="0" r="1" gradientUnits="userSpaceOnUse" gradientTransform="translate(17.2333 40.3243) scale(73.0736 73.0736)">
<stop offset="0.00558659" stop-color="#60DBFF"/>
<stop offset="0.0937306" stop-color="#60D5FF"/>
<stop offset="0.211" stop-color="#5FC4FF"/>
<stop offset="0.3446" stop-color="#5DA9FF"/>
<stop offset="0.4903" stop-color="#5A82FF"/>
<stop offset="0.6442" stop-color="#5751FF"/>
<stop offset="0.6844" stop-color="#5643FF"/>
<stop offset="0.7432" stop-color="#563DF8"/>
<stop offset="0.8282" stop-color="#552EE5"/>
<stop offset="0.9287" stop-color="#5315C6"/>
<stop offset="1" stop-color="#5200AB"/>
</radialGradient>
<linearGradient id="paint3_linear_1_1113" x1="-0.0847517" y1="49.1217" x2="65.3535" y2="49.1217" gradientUnits="userSpaceOnUse">
<stop offset="0.0111732" stop-color="#81E0FF"/>
<stop offset="0.3224" stop-color="#82DDFF"/>
<stop offset="0.5506" stop-color="#86D4FF"/>
<stop offset="0.7523" stop-color="#8BC4FF"/>
<stop offset="0.9375" stop-color="#94ADFF"/>
<stop offset="1" stop-color="#97A4FF"/>
</linearGradient>
<linearGradient id="paint4_linear_1_1113" x1="0.331412" y1="36.2455" x2="57.5416" y2="36.2455" gradientUnits="userSpaceOnUse">
<stop stop-color="#B8C2FF"/>
<stop offset="1" stop-color="#7D72B3"/>
</linearGradient>
<linearGradient id="paint5_linear_1_1113" x1="9.61528" y1="78.8295" x2="90.8972" y2="78.8295" gradientUnits="userSpaceOnUse">
<stop stop-color="#B8C2FF"/>
<stop offset="1" stop-color="#7D72B3"/>
</linearGradient>
<linearGradient id="paint6_linear_1_1113" x1="4.81481" y1="62.0169" x2="85.9336" y2="62.0169" gradientUnits="userSpaceOnUse">
<stop stop-color="#B8C2FF"/>
<stop offset="1" stop-color="#7D72B3"/>
</linearGradient>
<linearGradient id="paint7_linear_1_1113" x1="-0.0827353" y1="50.681" x2="79.6533" y2="50.681" gradientUnits="userSpaceOnUse">
<stop stop-color="#B8C2FF"/>
<stop offset="1" stop-color="#7D72B3"/>
</linearGradient>
<linearGradient id="paint8_linear_1_1113" x1="59.1529" y1="45.271" x2="60.2474" y2="45.271" gradientUnits="userSpaceOnUse">
<stop stop-color="#E8DDFF"/>
<stop offset="1" stop-color="#AA8AD8"/>
</linearGradient>
<linearGradient id="paint9_linear_1_1113" x1="49.9247" y1="68.1828" x2="53.8166" y2="56.3013" gradientUnits="userSpaceOnUse">
<stop stop-color="#5B008B"/>
<stop offset="1" stop-color="#8E00FF"/>
</linearGradient>
<linearGradient id="paint10_linear_1_1113" x1="2.76939" y1="64.3341" x2="2.99665" y2="64.3341" gradientUnits="userSpaceOnUse">
<stop stop-color="#E8DDFF"/>
<stop offset="1" stop-color="#AA8AD8"/>
</linearGradient>
<linearGradient id="paint11_linear_1_1113" x1="54.1274" y1="25.13" x2="83.3233" y2="25.13" gradientUnits="userSpaceOnUse">
<stop stop-color="#7F72FF"/>
<stop offset="1" stop-color="#9A00B3"/>
</linearGradient>
<linearGradient id="paint12_linear_1_1113" x1="60.7594" y1="95.216" x2="75.5693" y2="50.0033" gradientUnits="userSpaceOnUse">
<stop stop-color="#280077"/>
<stop offset="1" stop-color="#812CFF"/>
</linearGradient>
<linearGradient id="paint13_linear_1_1113" x1="64.999" y1="94.2961" x2="79.1268" y2="51.1683" gradientUnits="userSpaceOnUse">
<stop stop-color="#7A00B3"/>
<stop offset="1" stop-color="#B136FF"/>
</linearGradient>
<linearGradient id="paint14_linear_1_1113" x1="69.8656" y1="81.924" x2="69.8656" y2="50.6847" gradientUnits="userSpaceOnUse">
<stop stop-color="#8E00B3"/>
<stop offset="1" stop-color="#E05CFF"/>
</linearGradient>
<linearGradient id="paint15_linear_1_1113" x1="14.6247" y1="94.7384" x2="20.7422" y2="76.0622" gradientUnits="userSpaceOnUse">
<stop stop-color="#280077"/>
<stop offset="1" stop-color="#812CFF"/>
</linearGradient>
<linearGradient id="paint16_linear_1_1113" x1="52.0297" y1="110.929" x2="52.0297" y2="102.838" gradientUnits="userSpaceOnUse">
<stop stop-color="#7A00B3"/>
<stop offset="0.9162" stop-color="#7006FC"/>
<stop offset="1" stop-color="#7006F9"/>
</linearGradient>
<linearGradient id="paint17_linear_1_1113" x1="14.992" y1="97.7227" x2="14.992" y2="74.4686" gradientUnits="userSpaceOnUse">
<stop stop-color="#7A00B3"/>
<stop offset="1" stop-color="#B136FF"/>
</linearGradient>
<linearGradient id="paint18_linear_1_1113" x1="16.2104" y1="97.7137" x2="16.2104" y2="74.4687" gradientUnits="userSpaceOnUse">
<stop stop-color="#8E00B3"/>
<stop offset="1" stop-color="#E05CFF"/>
</linearGradient>
<linearGradient id="paint19_linear_1_1113" x1="51.1175" y1="66.1621" x2="54.3365" y2="56.3347" gradientUnits="userSpaceOnUse">
<stop stop-color="#A400CA"/>
<stop offset="1" stop-color="#B136FF"/>
</linearGradient>
<linearGradient id="paint20_linear_1_1113" x1="67.2547" y1="31.1925" x2="71.9004" y2="17.0098" gradientUnits="userSpaceOnUse">
<stop stop-color="#5B008B"/>
<stop offset="1" stop-color="#8E00FF"/>
</linearGradient>
<linearGradient id="paint21_linear_1_1113" x1="72.5361" y1="29.8045" x2="72.5361" y2="14.595" gradientUnits="userSpaceOnUse">
<stop stop-color="#B000D9"/>
<stop offset="1" stop-color="#E05CFF"/>
</linearGradient>
</defs>
</svg>
