<svg width="148" height="148" viewBox="0 0 148 148" fill="none" xmlns="http://www.w3.org/2000/svg">
<path fill-rule="evenodd" clip-rule="evenodd" d="M148 73.9999C148 81.0252 147.063 88.0505 145.034 94.4514C141.287 107.565 134.105 119.118 124.27 128.173C117.401 134.574 109.127 139.726 100.072 143.16C91.9535 146.283 83.0548 148 73.8438 148C72.5949 148 71.1898 148 69.9409 147.844C68.0675 147.688 66.0379 147.532 64.1645 147.375C49.9577 145.502 36.8438 139.569 26.3839 130.671C22.4809 127.392 18.8902 123.645 15.6118 119.586C13.27 116.464 11.0844 113.342 9.05482 109.907C8.58646 109.126 8.11808 108.346 7.80584 107.409C7.33749 106.472 6.86916 105.692 6.55692 104.755C5.30797 101.945 4.21514 98.9788 3.27843 96.0126C2.65396 93.8269 2.02947 91.6412 1.56112 89.4556C1.24888 87.8944 0.936648 86.3332 0.78053 84.6159C0.312175 81.1813 -6.10379e-05 77.7467 -6.10377e-05 74.156C-6.10377e-05 72.1265 -4.19849e-05 70.0969 0.312194 68.0674C0.468312 66.8184 0.624411 65.5695 0.78053 64.3206C1.71724 56.983 3.7468 50.1138 6.71305 43.713C8.11811 40.5906 9.83538 37.4682 11.7088 34.502C14.8312 29.6623 18.4219 25.1349 22.6371 21.232C35.9071 8.27415 54.1729 0.312134 74.156 0.312134C74.9366 0.312134 75.7172 0.312134 76.4978 0.312134C77.2784 0.312134 78.2151 0.312143 78.9957 0.468261C83.2109 0.780498 87.4261 1.40497 91.3291 2.34167C93.6709 2.96615 96.0126 3.59062 98.1982 4.37121C99.7594 4.83957 101.165 5.46405 102.726 6.08852C103.819 6.55688 104.911 7.02522 106.004 7.49358C106.16 7.64969 106.316 7.64971 106.629 7.80583C113.81 11.2404 120.367 15.924 125.987 21.5442C126.768 22.3248 127.548 23.1054 128.329 24.0421C128.797 24.6666 129.422 25.1349 129.89 25.7594C130.671 26.6961 131.608 27.7889 132.388 28.7256C135.354 32.4725 137.852 36.5315 140.038 40.7467C142.536 45.7425 144.565 51.0505 145.97 56.5147C147.219 61.8227 148 67.9113 148 73.9999Z" fill="url(#paint0_radial_1_1099)"/>
<path fill-rule="evenodd" clip-rule="evenodd" d="M106.316 7.4936C106.004 7.4936 105.848 7.49361 105.536 7.64973C104.755 7.80585 103.975 7.64972 103.194 7.4936C102.57 7.33748 102.257 7.02527 101.477 7.02527C100.54 6.86915 99.7594 6.55687 98.8227 6.40076C97.886 6.24464 97.1054 5.9324 96.1687 5.62016C95.3881 5.30793 95.0759 5.46405 94.4514 5.62016C93.827 5.77628 93.3586 5.46408 92.7341 5.30796C92.1096 4.99572 91.329 4.99572 90.7046 4.8396C88.8312 4.52736 86.9577 3.90288 85.0843 3.43452C83.9915 3.12228 82.8987 3.12229 81.6497 3.12229C80.713 3.12229 79.9324 3.43452 78.9957 3.43452C78.3712 3.43452 77.9029 3.27842 77.2784 3.27842C76.6539 3.1223 76.0295 3.27842 75.405 3.27842C74.4683 3.1223 74 2.96618 73.0632 3.27842C72.2827 3.43454 71.8143 3.43453 71.0337 3.59065C70.2531 3.59065 69.3164 3.90289 68.5358 4.05901C67.1307 4.37124 65.5696 4.68347 64.1645 4.68347C63.2278 4.68347 61.9789 4.37123 61.1983 4.68347C60.7299 4.83959 60.4176 5.46406 59.9493 5.77629C59.1687 6.55688 58.3881 7.18135 57.7636 7.96194C57.1392 8.74253 56.5147 9.67927 56.5147 10.7721C56.5147 11.7088 56.9831 12.8016 57.4514 13.5822C57.9198 14.5189 58.0759 15.2995 57.1392 15.924C56.0464 16.7046 54.6413 17.3291 53.3924 17.7974C52.4556 18.1096 51.6751 18.2658 51.0506 17.6413C50.7383 17.4852 50.5822 17.0168 50.27 16.7046C49.9578 16.5484 49.4894 16.7046 49.1771 16.8607C48.2404 17.1729 47.3037 17.4852 46.367 17.6413C45.7426 17.7974 45.2742 18.1096 44.6497 18.1096C44.0253 18.2657 43.5569 17.7974 42.7763 17.9535C41.8396 18.1097 40.7468 18.578 39.8101 18.578C39.0295 18.578 38.0928 18.2658 37.4683 17.9535C37.1561 17.7974 36.9999 17.4852 36.5316 17.6413C36.2193 17.6413 35.751 18.1096 35.5949 18.4219C35.2827 18.7341 35.2826 19.2025 34.9704 19.5147C34.6582 19.9831 34.502 20.2953 34.1898 20.7636C33.7214 21.5442 33.2531 22.3248 32.7847 23.1054C32.4725 23.5738 32.1603 24.3544 31.6919 24.8227C31.5358 25.135 31.0675 25.2911 30.7552 25.4472C29.9746 25.9155 29.194 26.54 28.4135 27.0084C27.0084 28.1012 25.6033 29.3502 24.1982 30.443C23.1054 31.2236 21.5442 31.6919 20.2953 32.3164C19.5147 32.6286 18.7341 32.9409 17.9535 33.2531C17.6413 33.4092 17.1729 33.4092 17.0168 33.7214C16.7046 34.0337 16.5485 34.3459 16.3923 34.8143C15.7679 35.5949 14.9873 36.5316 14.519 37.4683C14.2067 38.0928 14.0506 38.5611 13.7384 39.1856C13.4261 39.9662 12.9578 40.7467 12.8016 41.6835C12.1772 43.4008 12.1772 45.2742 11.3966 46.9915C11.0844 47.9282 10.4598 48.8649 9.99149 49.8016C9.2109 51.3628 9.05481 53.2362 8.89869 54.9535C8.74257 55.8902 8.8987 57.1392 9.05482 58.0759C9.21094 59.1687 9.2109 60.2615 9.2109 61.3544C9.2109 62.4472 8.43032 63.6961 7.80584 64.4767C7.18137 65.2573 6.08854 65.5696 5.30795 66.3502C4.68347 66.9746 3.90292 67.5991 3.59068 68.5358C3.43457 68.848 3.59068 69.3164 3.59068 69.7847C3.43457 70.7214 3.1223 71.502 3.1223 72.4388C2.96618 73.5316 2.96617 74.6244 2.96617 75.8733C2.96617 76.4978 2.96617 76.9662 2.96617 77.5906C2.96617 78.2151 3.12231 78.6835 3.27843 79.1518C3.27843 79.464 3.27843 79.9324 3.27843 80.2447C3.27843 80.713 3.59068 81.1813 3.59068 81.4936C3.90292 82.5864 4.05903 83.5231 4.21515 84.6159C4.37127 85.5527 4.83962 86.4894 4.99574 87.4261C5.46409 88.675 5.62022 89.924 5.93246 91.329C6.08857 92.2658 6.08855 93.3586 6.24466 94.2953C6.40078 95.0759 6.55692 95.8565 6.55692 96.6371C6.55692 97.886 6.24466 98.9788 6.24466 100.228C6.24466 102.257 7.02528 104.287 7.49364 106.316C7.64976 106.941 7.80585 107.409 7.96197 108.034C2.81007 98.0421 -6.10381e-05 86.6455 -6.10377e-05 74.6244C-6.10372e-05 59.9493 4.21512 46.367 11.5527 34.9704C14.675 30.1307 18.2657 25.6033 22.4809 21.7004C35.751 8.74256 54.0168 0.780518 73.9999 0.780518C75.5611 0.780518 77.2784 0.780527 78.8396 0.936645C88.675 0.780527 97.886 3.43453 106.316 7.4936Z" fill="url(#paint1_linear_1_1099)"/>
<path fill-rule="evenodd" clip-rule="evenodd" d="M43.713 100.384C42.6201 96.6372 41.3712 92.2659 40.1223 87.7385C41.2151 92.1098 42.464 96.325 43.713 100.384Z" fill="url(#paint2_linear_1_1099)"/>
<path fill-rule="evenodd" clip-rule="evenodd" d="M41.5273 140.662C41.5273 140.662 44.4935 118.025 46.6791 118.025C48.3965 118.025 51.3627 121.46 57.2952 125.987C59.0125 127.236 60.8859 128.641 63.0716 130.046C64.945 131.295 67.2868 132.544 69.9408 133.793C74.3121 135.823 79.464 138.008 83.9914 139.726C91.329 142.536 97.2615 144.409 97.2615 144.409L98.3543 143.629C98.3543 143.629 93.2024 142.536 86.3332 140.194C86.3332 140.194 93.5146 128.485 102.726 117.869C111.937 107.253 147.375 82.2743 147.375 82.2743L147.688 78.6836C147.688 78.6836 137.54 87.114 126.299 96.0127C126.299 96.0127 133.793 44.4937 136.135 36.2194L133.793 35.2827C133.793 35.2827 128.173 86.0211 122.084 99.4473C111.468 107.878 100.696 115.84 97.7298 116.776C91.0167 118.962 66.35 99.1351 66.1939 99.1351C65.5694 78.6836 66.0378 55.8904 67.7551 49.9579C92.8901 26.0718 117.088 14.2068 117.088 14.2068L115.996 13.114C115.996 13.114 91.9534 29.9747 91.1728 26.8524C90.3922 23.5739 106.316 7.33759 106.316 7.33759L104.443 7.02538C104.443 7.02538 86.8015 29.6625 62.4471 53.5486C45.2741 70.4093 39.4977 75.5612 37.6243 77.1224C34.502 59.4811 34.3459 40.903 39.4978 28.8819C49.1771 6.40091 62.7593 1.24899 62.7593 1.24899C60.5737 1.24899 55.8902 2.34181 55.8902 2.34181C55.8902 2.34181 49.1771 10.3038 46.2108 14.9874C43.4007 19.6709 39.4978 28.7258 37.156 27.3207C34.8142 25.9157 27.7889 16.0802 27.7889 16.0802L27.0083 16.8608C27.0083 16.8608 33.7213 23.2617 34.9703 28.1013C36.2192 32.941 35.1264 63.2279 32.0041 61.9789C28.8817 60.8861 7.02516 42.152 7.02516 42.152L6.24457 43.7131C6.24457 43.7131 29.1939 59.3249 32.0041 64.9452C33.4091 67.5992 36.8437 77.7469 39.81 87.7384C39.4977 86.3334 38.4049 81.3376 38.8732 79.308C46.523 67.9114 55.2656 62.1351 63.8521 53.5486C65.7256 64.1646 65.7256 101.477 65.5695 119.899L56.983 124.114C54.4851 121.772 52.2994 119.274 50.5821 116.464C48.0842 112.249 45.5864 106.629 43.4007 100.384C44.6497 105.224 45.5864 108.814 45.5864 109.907C45.5864 113.654 39.9661 140.194 39.9661 140.194L41.5273 140.662ZM126.299 96.1688C125.05 97.2616 123.645 98.1983 122.396 99.2911L126.299 96.1688ZM66.35 99.9157L66.35 101.477C66.35 100.852 66.35 100.384 66.35 99.9157ZM66.35 101.477C66.35 101.477 90.08 116.152 93.9829 118.962C97.5736 121.46 86.0209 137.072 84.3036 139.414C79.7762 137.696 74.6243 135.667 69.6285 132.857C68.0674 128.485 66.9745 115.84 66.35 101.477ZM65.7256 121.304C65.7256 126.924 65.5695 130.515 65.5695 130.515C63.0716 128.954 60.5737 127.08 58.388 125.207C59.9492 123.802 63.0716 121.616 65.7256 121.304Z" fill="url(#paint3_linear_1_1099)"/>
<path fill-rule="evenodd" clip-rule="evenodd" d="M23.2615 94.2955C19.8269 89.2997 -6.10352e-05 71.5023 -6.10352e-05 71.5023L-6.10353e-05 76.1858C-6.10353e-05 76.1858 17.9535 86.8018 22.7932 95.5444C27.6329 104.287 22.4809 127.393 22.4809 127.393L24.3544 129.266C24.5105 129.266 28.2573 101.633 23.2615 94.2955Z" fill="url(#paint4_linear_1_1099)"/>
<path opacity="0.3" fill-rule="evenodd" clip-rule="evenodd" d="M57.6082 1.87338C57.6082 1.87338 63.853 69.0042 65.7264 74.6244C67.5998 80.4008 84.3044 90.8607 91.1736 92.1097C98.0428 93.3586 115.372 99.7594 119.899 99.4472C124.427 99.2911 144.098 97.5738 144.098 97.5738L146.752 86.9577C146.752 86.9577 110.064 58.5443 97.1061 32.6287C84.1483 6.71306 84.4605 0.624456 84.4605 0.624456L78.8403 -3.05168e-05C78.8403 -3.05168e-05 92.8909 27.1645 97.1061 40.2784C101.165 53.5485 118.65 66.5063 126.456 74.1561C134.262 81.8059 131.92 95.0759 122.553 94.4514C113.03 93.827 80.7137 95.7004 72.7517 71.1898C69.3171 60.5738 66.1947 50.27 63.8529 32.4725C61.1989 15.1434 57.6082 1.87338 57.6082 1.87338Z" fill="url(#paint5_radial_1_1099)"/>
<path opacity="0.3" fill-rule="evenodd" clip-rule="evenodd" d="M2.96489 53.2364C2.96489 53.2364 28.2561 62.9158 37.9354 69.4727C47.6147 76.0297 73.6864 83.5233 79.1506 89.2997C84.6147 95.0761 93.9817 105.692 93.2011 110.844C92.4205 115.84 59.6358 112.249 46.5219 107.409C33.408 102.57 11.5514 92.5782 8.58515 87.7385C5.61891 83.055 0.310913 80.0887 0.310913 80.0887L1.0915 86.8018C1.0915 86.8018 33.7202 108.346 38.0915 110.063C42.4628 111.781 87.1126 120.211 99.602 117.869C99.602 117.869 105.535 112.874 83.8341 91.3293C75.0915 82.7428 59.4797 75.7174 44.9607 69.1605C23.4164 59.325 3.43327 51.6752 3.43327 51.6752L2.96489 53.2364Z" fill="url(#paint6_radial_1_1099)"/>
<path opacity="0.3" fill-rule="evenodd" clip-rule="evenodd" d="M92.7342 2.49783C92.7342 2.49783 94.4516 21.7004 100.696 37.4683C106.941 53.2362 119.118 55.8902 124.27 61.8227C129.578 67.5991 143.316 75.405 147.844 72.2826L147.532 84.4598C147.532 84.4598 98.0422 64.7889 84.3038 0.780518L92.7342 2.49783Z" fill="url(#paint7_radial_1_1099)"/>
<path opacity="0.3" fill-rule="evenodd" clip-rule="evenodd" d="M14.6746 118.181C14.6746 118.181 35.7506 112.405 61.354 116.308C94.6071 121.304 101.632 123.802 104.599 127.392C107.565 130.983 108.658 139.413 108.658 139.413L112.248 137.384C112.248 137.384 110.375 120.992 106.472 118.338C102.569 115.683 71.1894 121.148 38.2485 110.063L10.6156 112.093L14.6746 118.181Z" fill="url(#paint8_radial_1_1099)"/>
<path opacity="0.3" fill-rule="evenodd" clip-rule="evenodd" d="M113.029 98.1985C111.624 94.4517 91.0166 89.2998 87.582 92.1099C84.7719 94.4517 103.194 115.684 107.721 116.308C112.249 116.933 114.434 101.945 113.029 98.1985ZM105.536 109.907C100.228 108.971 88.0504 96.4812 90.7044 93.9833C92.89 91.9537 109.439 97.2618 110.687 100.384C111.78 103.506 110.844 111 105.536 109.907Z" fill="url(#paint9_radial_1_1099)"/>
<path fill-rule="evenodd" clip-rule="evenodd" d="M67.7544 75.7172C66.1933 70.0969 57.6068 1.87326 57.6068 1.87326L56.0456 2.18552C56.0456 2.18552 69.4718 69.0041 58.2313 70.8775C49.3325 72.4387 3.90215 50.1137 3.90215 50.1137L2.80935 53.3922C2.80935 53.3922 59.3241 71.0336 80.4 89.4555C87.5815 95.7002 93.67 102.882 98.6658 109.907C101.008 113.185 98.6658 117.557 94.7629 117.713C36.6869 118.181 0.935913 86.9576 0.935913 86.9576L1.40425 89.4555C1.40425 89.4555 36.8431 108.19 33.2524 110.219C29.6617 112.249 9.05407 110.219 9.05407 110.219L10.303 112.405C10.303 112.405 26.8515 111 48.2397 113.966C66.3494 116.464 96.7924 120.211 105.847 121.304C110.531 129.734 112.873 136.135 112.092 137.54L115.683 135.354C109.906 119.118 111.155 100.852 119.742 99.7593C128.328 98.8226 142.535 101.789 142.535 101.789L143.94 97.8859C96.6363 99.9154 69.4717 81.3374 67.7544 75.7172ZM65.5688 77.9028C64.1637 77.9028 58.8557 73.9999 59.4802 73.3754C60.1047 72.7509 63.3832 65.4134 64.476 66.3501C65.5688 67.4429 66.8177 77.7467 65.5688 77.9028ZM35.438 109.907C35.438 109.907 35.7503 108.814 36.2186 108.658C36.687 108.502 46.3663 111.78 45.7418 112.249C45.2735 112.717 35.438 111.156 35.438 109.907ZM108.97 114.122C105.379 113.81 83.9907 93.8269 87.5815 92.1096C90.2355 90.8606 109.594 95.388 111.311 99.1349C112.873 102.882 112.404 114.434 108.97 114.122Z" fill="url(#paint10_linear_1_1099)"/>
<path fill-rule="evenodd" clip-rule="evenodd" d="M82.4299 1.24884C82.4299 1.24884 87.5818 23.2615 107.721 50.5822C127.86 77.9028 146.751 87.1138 146.751 87.1138L147.531 82.2741C147.531 82.2741 130.202 79.464 109.907 52.4556C86.1767 20.9197 86.3329 1.09271 86.3329 1.09271L82.4299 1.24884Z" fill="url(#paint11_linear_1_1099)"/>
<defs>
<radialGradient id="paint0_radial_1_1099" cx="0" cy="0" r="1" gradientUnits="userSpaceOnUse" gradientTransform="translate(28.1541 39.405) scale(130.731 130.731)">
<stop offset="0.00558659" stop-color="#FF7263"/>
<stop offset="0.2092" stop-color="#FC6F63"/>
<stop offset="0.3674" stop-color="#F46562"/>
<stop offset="0.5102" stop-color="#E55560"/>
<stop offset="0.6441" stop-color="#D03D5D"/>
<stop offset="0.7704" stop-color="#B6205A"/>
<stop offset="0.8771" stop-color="#9A0057"/>
<stop offset="0.986" stop-color="#9A00AE"/>
</radialGradient>
<linearGradient id="paint1_linear_1_1099" x1="-0.00287116" y1="53.7083" x2="106.391" y2="53.7083" gradientUnits="userSpaceOnUse">
<stop offset="0.0111732" stop-color="#FF9D85"/>
<stop offset="0.2899" stop-color="#FF9A84"/>
<stop offset="0.4943" stop-color="#FF917F"/>
<stop offset="0.6749" stop-color="#FF8178"/>
<stop offset="0.8407" stop-color="#FF6A6E"/>
<stop offset="0.9968" stop-color="#FF4E61"/>
<stop offset="1" stop-color="#FF4D61"/>
</linearGradient>
<linearGradient id="paint2_linear_1_1099" x1="44.1575" y1="91.7936" x2="39.7004" y2="96.2507" gradientUnits="userSpaceOnUse">
<stop offset="0.0111732" stop-color="#FF9D85"/>
<stop offset="0.2899" stop-color="#FF9A84"/>
<stop offset="0.4943" stop-color="#FF917F"/>
<stop offset="0.6749" stop-color="#FF8178"/>
<stop offset="0.8407" stop-color="#FF6A6E"/>
<stop offset="0.9968" stop-color="#FF4E61"/>
<stop offset="1" stop-color="#FF4D61"/>
</linearGradient>
<linearGradient id="paint3_linear_1_1099" x1="123.082" y1="20.0267" x2="21.701" y2="121.407" gradientUnits="userSpaceOnUse">
<stop offset="0.0111732" stop-color="#FF9D85"/>
<stop offset="0.2899" stop-color="#FF9A84"/>
<stop offset="0.4943" stop-color="#FF917F"/>
<stop offset="0.6749" stop-color="#FF8178"/>
<stop offset="0.8407" stop-color="#FF6A6E"/>
<stop offset="0.9968" stop-color="#FF4E61"/>
<stop offset="1" stop-color="#FF4D61"/>
</linearGradient>
<linearGradient id="paint4_linear_1_1099" x1="21.1591" y1="91.5778" x2="3.98144" y2="108.755" gradientUnits="userSpaceOnUse">
<stop offset="0.0111732" stop-color="#FF9D85"/>
<stop offset="0.2899" stop-color="#FF9A84"/>
<stop offset="0.4943" stop-color="#FF917F"/>
<stop offset="0.6749" stop-color="#FF8178"/>
<stop offset="0.8407" stop-color="#FF6A6E"/>
<stop offset="0.9968" stop-color="#FF4E61"/>
<stop offset="1" stop-color="#FF4D61"/>
</linearGradient>
<radialGradient id="paint5_radial_1_1099" cx="0" cy="0" r="1" gradientUnits="userSpaceOnUse" gradientTransform="translate(106.75 75.0676) scale(53.5206 53.5206)">
<stop stop-color="white"/>
<stop offset="1" stop-color="#623964"/>
</radialGradient>
<radialGradient id="paint6_radial_1_1099" cx="0" cy="0" r="1" gradientUnits="userSpaceOnUse" gradientTransform="translate(76.1272 105.577) scale(54.6609 54.6609)">
<stop stop-color="white"/>
<stop offset="1" stop-color="#623964"/>
</radialGradient>
<radialGradient id="paint7_radial_1_1099" cx="0" cy="0" r="1" gradientUnits="userSpaceOnUse" gradientTransform="translate(119.371 63.8147) scale(40.174 40.174)">
<stop stop-color="white"/>
<stop offset="1" stop-color="#623964"/>
</radialGradient>
<radialGradient id="paint8_radial_1_1099" cx="0" cy="0" r="1" gradientUnits="userSpaceOnUse" gradientTransform="translate(66.5552 132.133) scale(52.8297 52.8297)">
<stop stop-color="white"/>
<stop offset="1" stop-color="#623964"/>
</radialGradient>
<radialGradient id="paint9_radial_1_1099" cx="0" cy="0" r="1" gradientUnits="userSpaceOnUse" gradientTransform="translate(107.152 111.59) scale(15.8266 15.8266)">
<stop stop-color="white"/>
<stop offset="1" stop-color="#623964"/>
</radialGradient>
<linearGradient id="paint10_linear_1_1099" x1="1.08875" y1="69.5372" x2="144.046" y2="69.5372" gradientUnits="userSpaceOnUse">
<stop offset="0.0111732" stop-color="#FFBB85"/>
<stop offset="0.2124" stop-color="#FEB887"/>
<stop offset="0.36" stop-color="#F9AF8C"/>
<stop offset="0.4905" stop-color="#F19F95"/>
<stop offset="0.6111" stop-color="#E588A2"/>
<stop offset="0.7249" stop-color="#D76BB2"/>
<stop offset="0.8337" stop-color="#C547C7"/>
<stop offset="0.9364" stop-color="#B01EDE"/>
<stop offset="1" stop-color="#A100EF"/>
</linearGradient>
<linearGradient id="paint11_linear_1_1099" x1="82.3781" y1="44.0839" x2="147.534" y2="44.0839" gradientUnits="userSpaceOnUse">
<stop offset="0.0111732" stop-color="#FF9D85"/>
<stop offset="0.2264" stop-color="#FD9A87"/>
<stop offset="0.3842" stop-color="#F8918D"/>
<stop offset="0.5237" stop-color="#EE8198"/>
<stop offset="0.6527" stop-color="#E16AA7"/>
<stop offset="0.7744" stop-color="#CF4DBB"/>
<stop offset="0.889" stop-color="#BA2AD3"/>
<stop offset="0.999" stop-color="#A100EF"/>
<stop offset="1" stop-color="#A100EF"/>
</linearGradient>
</defs>
</svg>
