<svg width="67" height="67" viewBox="0 0 67 67" fill="none" xmlns="http://www.w3.org/2000/svg">
<path fill-rule="evenodd" clip-rule="evenodd" d="M67 33.4646C67 36.7191 66.5755 39.8321 65.7265 42.7328C64.0285 48.6758 60.7033 53.9113 56.3168 58.0148C53.2038 60.9155 49.4541 63.2502 45.4214 64.8067C41.7424 66.2217 37.7096 67 33.5354 67C32.9694 67 32.3327 67 31.7667 66.9292C30.9177 66.8585 29.9979 66.7877 29.1489 66.717C22.64 65.868 16.7677 63.1795 12.0275 59.1468C10.2588 57.661 8.63152 55.963 7.14577 54.1235C6.08453 52.7793 5.09402 51.2935 4.17428 49.737C3.96203 49.3833 3.74979 49.0296 3.60829 48.6051C3.60829 48.6051 3.60829 48.605 3.60829 48.5343C3.39604 48.1098 3.18379 47.756 3.04229 47.3315C2.47629 46.0581 1.98104 44.7138 1.55654 43.3696C1.27354 42.3791 0.990547 41.3886 0.778298 40.3981C0.636799 39.6906 0.495299 38.9831 0.424549 38.2048C0.2123 36.6483 0.0708008 35.0918 0.0708008 33.4646C0.0708008 32.5448 0.141548 31.6251 0.212298 30.7054C0.283048 30.1394 0.3538 29.5734 0.424549 29.0074C0.849048 25.6821 1.76879 22.5691 3.11303 19.6684C3.74978 18.2534 4.52803 16.8384 5.37703 15.4942C6.79202 13.3009 8.41927 11.2492 10.3295 9.48044C16.3432 3.60822 24.621 -1.52579e-05 33.6769 -1.52576e-05C34.0307 -1.52576e-05 34.3844 -1.52576e-05 34.7382 -1.52576e-05C35.0919 -1.52576e-05 35.5164 -1.09404e-05 35.8702 0.0707388C37.7804 0.212238 39.6906 0.495235 41.4594 0.919733C42.5206 1.20273 43.5819 1.48573 44.5724 1.83948C45.2799 2.05173 45.9166 2.33472 46.6241 2.61772C47.1194 2.82997 47.6146 3.04223 48.1099 3.25448C48.1806 3.32523 48.2514 3.32522 48.3929 3.39597C51.6473 4.95247 54.6188 7.07496 57.1658 9.62195C57.5196 9.9757 57.8733 10.3294 58.2271 10.6832C58.4393 10.9662 58.7223 11.1784 58.9346 11.4614C59.3591 11.8859 59.7128 12.3812 60.0666 12.8057C61.4108 14.5037 62.5428 16.3432 63.5333 18.2534C64.6653 20.5174 65.585 22.9229 66.2218 25.3991C66.6463 27.9461 67 30.6346 67 33.4646Z" fill="url(#paint0_radial_1_1196)"/>
<path d="M42.0961 24.7625C42.0961 24.4795 43.0394 24.6446 43.5111 24.7625L45.6336 24.7625C46.4826 24.7625 45.2798 25.4699 44.5723 25.8237C44.2186 25.9416 43.3696 26.1774 42.8036 26.1774C42.0961 26.1774 42.0961 25.1163 42.0961 24.7625Z" fill="url(#paint1_linear_1_1196)"/>
<path fill-rule="evenodd" clip-rule="evenodd" d="M48.1806 3.32517C48.0391 3.32517 47.9683 3.32517 47.8268 3.39592C47.4731 3.46667 47.1193 3.39592 46.7656 3.32517C46.4826 3.25442 46.3411 3.11292 45.9873 3.11292C45.5628 3.04217 45.2091 2.90067 44.7846 2.82992C44.3601 2.75917 44.0063 2.61767 43.5818 2.47617C43.2281 2.33467 43.0866 2.40542 42.8036 2.47617C42.5206 2.54692 42.3083 2.40543 42.0253 2.33468C41.7423 2.19318 41.3886 2.19318 41.1056 2.12243C40.2566 1.98093 39.4076 1.69793 38.5586 1.48568C38.0634 1.34418 37.5681 1.34417 37.0021 1.34417C36.5776 1.34417 36.2239 1.48568 35.7994 1.48568C35.5164 1.48568 35.3041 1.41493 35.0211 1.41493C34.7381 1.34418 34.4551 1.41493 34.1721 1.41493C33.7476 1.34418 33.5354 1.27343 33.1109 1.41493C32.7571 1.48568 32.5449 1.48568 32.1911 1.55643C31.8374 1.55643 31.4129 1.69793 31.0591 1.76868C30.4224 1.91018 29.7149 2.05167 29.0781 2.05167C28.6536 2.05167 28.0876 1.91017 27.7339 2.05167C27.5216 2.12242 27.3801 2.40543 27.1679 2.54693C26.8141 2.90068 26.4604 3.18367 26.1774 3.53742C25.8944 3.89117 25.6114 4.31566 25.6114 4.81091C25.6114 5.23541 25.8237 5.73067 26.0359 6.08441C26.2482 6.50891 26.3189 6.86266 25.8944 7.14566C25.3992 7.49941 24.7624 7.7824 24.1964 7.99464C23.7719 8.13614 23.4182 8.20691 23.1352 7.92391C22.9937 7.85316 22.9229 7.64091 22.7814 7.49941C22.6399 7.42866 22.4277 7.49941 22.2862 7.57016C21.8617 7.71166 21.4372 7.85316 21.0127 7.92391C20.7297 7.99466 20.5174 8.13615 20.2344 8.13615C19.9514 8.2069 19.7392 7.99465 19.3854 8.0654C18.9609 8.13615 18.4657 8.34839 18.0412 8.34839C17.6874 8.34839 17.2629 8.2069 16.9799 8.0654C16.8384 7.99465 16.7677 7.85316 16.5554 7.92391C16.4139 7.92391 16.2017 8.13616 16.1309 8.27766C15.9894 8.41916 15.9894 8.6314 15.8479 8.7729C15.7064 8.98515 15.6357 9.12666 15.4942 9.33891C15.2819 9.69266 15.0697 10.0464 14.8574 10.4002C14.7159 10.6124 14.5744 10.9661 14.3622 11.1784C14.2914 11.3199 14.0792 11.3906 13.9377 11.4614C13.5839 11.6736 13.2302 11.9566 12.8764 12.1689C12.2397 12.6641 11.603 13.2301 10.9662 13.7254C10.471 14.0791 9.76346 14.2914 9.19746 14.5744C8.84372 14.7159 8.48997 14.8574 8.13622 14.9989C7.99472 15.0696 7.78247 15.0696 7.71172 15.2111C7.57022 15.3526 7.49947 15.4941 7.42872 15.7064C7.14572 16.0601 6.79198 16.4846 6.57973 16.9091C6.43823 17.1921 6.36748 17.4044 6.22598 17.6874C6.08448 18.0411 5.87223 18.3949 5.80148 18.8194C5.51848 19.5976 5.51848 20.4466 5.16473 21.2249C5.02323 21.6494 4.74023 22.0738 4.52798 22.4983C4.17423 23.2058 4.10348 24.0548 4.03273 24.8331C3.96198 25.2576 4.03274 25.8236 4.10349 26.2481C4.17424 26.7433 4.17423 27.2386 4.17423 27.7338C4.17423 28.2291 3.82049 28.7951 3.53749 29.1488C3.25449 29.5026 2.75924 29.6441 2.40549 29.9978C2.12249 30.2808 1.76875 30.5638 1.62725 30.9883C1.5565 31.1298 1.62725 31.3421 1.62725 31.5543C1.5565 31.9788 1.41499 32.3326 1.41499 32.757C1.34424 33.2523 1.34424 33.7476 1.34424 34.3136C1.34424 34.5965 1.34424 34.8088 1.34424 35.0918C1.34424 35.3748 1.415 35.5871 1.48575 35.7993C1.48575 35.9408 1.48575 36.153 1.48575 36.2945C1.48575 36.5068 1.62725 36.719 1.62725 36.8605C1.76875 37.3558 1.83949 37.7803 1.91024 38.2755C1.98099 38.7 2.19324 39.1245 2.26399 39.549C2.47624 40.115 2.54699 40.681 2.68849 41.3178C2.75924 41.7423 2.75924 42.2375 2.82999 42.662C2.90074 43.0158 2.97149 43.3695 2.97149 43.7233C2.97149 44.2893 2.82999 44.7845 2.82999 45.3505C2.82999 46.2703 3.18374 47.19 3.39599 48.1097C3.46674 48.3927 3.53749 48.605 3.60824 48.888C1.2735 44.36 -1.35518e-09 39.1953 -1.16546e-09 33.7476C-9.33843e-10 27.0971 1.91024 20.9418 5.23548 15.7771C6.65047 13.5839 8.27771 11.5321 10.188 9.76339C16.2017 3.89116 24.4794 0.282928 33.5354 0.282928C34.2429 0.282928 35.0211 0.282933 35.7286 0.353683C40.1151 0.282933 44.3601 1.41493 48.1806 3.32517Z" fill="url(#paint2_linear_1_1196)"/>
<path d="M39.9737 27.9461C41.6717 28.2291 43.9828 29.0074 44.9262 29.3611L47.0485 29.3611C47.756 29.3611 51.6473 32.1911 52.3548 33.9599C53.0623 35.7286 55.1847 33.9599 56.9535 33.9599C58.7222 33.9599 54.4773 39.9736 53.0623 41.3886C51.6473 42.8036 54.1235 45.6336 54.4773 46.3411C54.831 47.0486 53.416 48.1098 53.0623 50.9398C52.7085 53.7698 51.6473 57.661 50.9398 60.1373C50.3738 62.1183 47.6381 63.7927 46.341 64.3822C45.8694 64.6181 44.6431 64.6652 43.511 62.9673C42.0959 60.8448 41.3886 57.3073 41.0348 55.8923C40.6811 54.4773 43.8648 47.0486 37.4973 46.3411C31.1298 45.6336 34.6675 51.6473 26.5312 45.6336C18.395 39.6198 27.5925 27.9461 28.3 26.8849C29.0075 25.8237 30.7762 26.8849 33.96 25.8236C36.507 24.9746 39.0304 25.4699 39.9737 25.8236C39.2662 26.4132 38.2757 27.6631 39.9737 27.9461Z" fill="url(#paint3_linear_1_1196)"/>
<path d="M4.98586 47.7697C5.21761 47.0841 4.11683 44.8177 3.53748 43.7702C4.02027 43.1037 5.21761 41.9419 6.14458 42.6275C7.30329 43.4846 10.7794 41.4848 11.9381 41.7705C13.0968 42.0562 15.7039 42.3419 15.9936 43.1989C16.2833 44.0559 16.2833 46.0556 16.8627 46.9127C17.3261 47.5983 16.8627 49.4838 16.573 50.3408C16.4764 50.6265 16.1095 51.2549 15.4143 51.4835C14.5452 51.7692 16.573 51.7692 18.311 52.3405C20.0491 52.9119 18.8904 55.7686 19.4698 57.197C20.0491 58.6254 23.2356 61.1964 23.8149 61.7678C24.3943 62.3391 23.8149 63.1962 23.2356 62.9105C22.6562 62.6248 16.2833 57.4827 13.3865 56.9113C11.0691 56.4542 6.82049 51.9596 4.98586 49.7694C4.8893 49.3885 4.75412 48.4553 4.98586 47.7697Z" fill="url(#paint4_linear_1_1196)"/>
<path d="M12.7351 19.8099L12.7351 18.3949L12.7351 16.6262C12.7351 15.9187 12.0276 15.9187 11.3201 14.8574C10.6126 13.7962 11.3201 14.15 12.3813 13.7962C13.4426 13.4425 13.0888 14.5037 13.0888 14.8574C13.0888 15.2112 14.5038 15.9187 14.8576 15.9187C15.2113 15.9187 16.6263 15.9187 16.2725 16.6262C15.9188 17.3337 15.9188 17.6874 14.8576 19.1024C14.0086 20.2344 13.0888 20.0458 12.7351 19.8099Z" fill="url(#paint5_linear_1_1196)"/>
<path d="M12.0272 17.3337C12.3102 17.0507 10.966 16.0366 10.2585 15.5649C10.1406 16.1545 9.76325 17.4752 9.19725 18.0412C8.48975 18.7487 10.2585 18.7487 10.966 19.1024C11.6735 19.4562 11.6735 17.6874 12.0272 17.3337Z" fill="url(#paint6_linear_1_1196)"/>
<path d="M56.9535 46.6947C57.8025 46.6947 58.4864 45.2797 58.7222 44.5722C59.0162 43.8647 59.7835 43.8647 60.1372 44.2185C60.491 44.5722 60.1372 48.4634 59.076 50.2322C58.0148 52.0009 56.9535 51.6472 56.2461 51.6472C55.5387 51.6472 56.246 50.2322 56.9535 49.5247C57.661 48.8172 55.8922 46.6947 56.9535 46.6947Z" fill="url(#paint7_linear_1_1196)"/>
<path fill-rule="evenodd" clip-rule="evenodd" d="M47.0485 26.1771C47.0485 27.3091 46.341 27.8279 45.9872 27.9458L48.1098 29.0074C47.9919 28.6535 48.1098 27.9458 49.5248 27.9458C50.4092 27.9458 51.2051 29.3608 52.001 30.7759C52.797 32.1909 53.5929 33.6059 54.4773 33.6059C56.246 33.6059 60.491 31.1299 61.5523 30.0686C62.4013 29.2196 61.1985 27.8282 60.491 27.2386C60.2552 27.9461 59.1468 28.7243 56.5998 26.1771C53.416 22.993 54.4773 22.286 56.5998 23.7008C58.2978 24.8327 59.4298 24.6442 59.7835 24.4085C60.2552 24.1726 61.6938 23.9839 63.6748 25.116C65.6557 26.2481 65.6793 34.0778 65.4435 37.8511C66.151 35.0211 67.283 28.5121 66.151 25.116C62.6135 14.5034 58.3685 10.6123 54.4773 7.0748C51.3643 4.24481 43.5111 1.41492 39.9736 0.353729C39.0302 0.825394 37.002 2.12247 36.4361 3.53747C35.7713 5.19984 35.4187 5.29967 33.3229 5.89318C33.1888 5.93115 33.0475 5.97115 32.8986 6.01371C31.1891 6.50223 31.1656 6.48477 30.6167 6.07796C30.3704 5.89549 30.0185 5.63467 29.3613 5.30605C27.7857 4.5182 25.625 5.48502 23.7479 6.32492C23.0965 6.61637 22.4793 6.89253 21.9326 7.0748C19.8102 7.78229 18.0413 9.90478 18.0413 10.6123C18.0413 10.8629 17.8637 11.0691 17.6973 11.2624C17.3939 11.6148 17.1275 11.9242 18.0413 12.381C18.9709 12.8457 19.7476 12.7 20.5722 12.5452C21.003 12.4643 21.4469 12.381 21.9326 12.381C23.3477 12.381 22.6399 13.4423 21.9326 14.1498C21.2252 14.8573 19.8099 15.211 18.0413 15.5648C17.0959 15.7539 16.959 16.3473 16.7663 17.1829C16.5985 17.9105 16.3883 18.8217 15.5651 19.8096C14.5478 21.0304 14.2009 21.471 14.13 21.5784C13.539 21.5816 12.6029 21.7262 13.4424 22.286L13.4443 22.2873C14.505 22.9945 15.5642 23.7008 14.1499 23.7008C13.5314 23.7008 13.1157 24.1739 12.7255 24.6178C12.2229 25.1897 11.7628 25.7133 10.9662 25.116C9.90496 24.3202 9.24177 25.3149 8.37955 26.6082C8.09214 27.0394 7.78262 27.5036 7.42887 27.9458C6.52204 29.0794 6.77754 29.7771 7.07801 30.5976C7.24638 31.0574 7.42887 31.5558 7.42887 32.1909C7.42887 33.1065 7.80805 33.0742 8.37011 33.0263C8.89384 32.9816 9.57635 32.9234 10.2589 33.6059C11.5673 34.9144 14.0857 33.198 15.2966 32.3727C15.3952 32.3055 15.4852 32.2442 15.5651 32.1909C16.6263 31.4835 18.3951 26.1771 18.0413 25.116C17.7414 24.2163 19.9847 22.8077 21.3209 21.9687C21.5606 21.8181 21.7711 21.686 21.9326 21.5783C22.6974 21.0683 23.4622 21.661 24.6243 22.5614C25.0747 22.9104 25.5847 23.3056 26.1775 23.7008C27.4789 24.5683 27.4504 24.6381 27.3152 24.9698C27.2298 25.1792 27.1019 25.4928 27.2388 26.1771C27.4157 27.0614 27.5926 26.7076 27.9021 26.0886C28.2116 25.4696 28.6538 24.5854 29.3613 24.4085C30.7763 24.0547 30.0688 22.6397 27.9463 22.286C25.8238 21.9322 23.7013 19.8096 24.7626 19.8096L29.3613 19.8096C31.1301 19.8096 32.1912 20.871 31.4837 21.5783C30.7762 22.2857 34.3136 23.7008 35.3749 23.7008C36.1498 23.7008 35.6044 22.5692 34.9783 21.2699C34.7469 20.7898 34.5045 20.2868 34.3136 19.8096C33.8203 18.5764 35.0467 19.0628 36.0744 19.4705C36.5206 19.6475 36.9293 19.8096 37.1435 19.8096C37.8509 19.8096 38.2047 20.5171 37.1435 21.5783C36.0822 22.6396 39.9735 23.7008 41.0347 23.7008L45.2797 23.7008C47.0485 23.7008 47.0485 24.7621 47.0485 26.1771ZM38.9123 19.456C39.7377 19.5739 41.53 19.739 42.096 19.456C42.662 19.173 44.4544 20.0456 45.2798 20.5172C45.7514 20.6352 46.624 20.7295 46.341 20.1635C45.9873 19.456 43.8648 16.9798 42.4498 17.3335C41.0348 17.6873 38.5586 19.1021 38.9123 19.456Z" fill="url(#paint8_linear_1_1196)"/>
<defs>
<radialGradient id="paint0_radial_1_1196" cx="0" cy="0" r="1" gradientUnits="userSpaceOnUse" gradientTransform="translate(12.7369 17.7512) scale(53.8416 53.8416)">
<stop offset="0.00558659" stop-color="#0CB9C4"/>
<stop offset="0.2058" stop-color="#0C96C1"/>
<stop offset="0.3613" stop-color="#0B79B7"/>
<stop offset="0.5018" stop-color="#096EA7"/>
<stop offset="0.6334" stop-color="#075E8F"/>
<stop offset="0.7576" stop-color="#044A72"/>
<stop offset="0.8715" stop-color="#003C74"/>
</radialGradient>
<linearGradient id="paint1_linear_1_1196" x1="44.0108" y1="24.6063" x2="44.0108" y2="26.1774" gradientUnits="userSpaceOnUse">
<stop stop-color="#43991F"/>
<stop offset="1" stop-color="#4BFF00" stop-opacity="0"/>
</linearGradient>
<linearGradient id="paint2_linear_1_1196" x1="-0.0233474" y1="24.2331" x2="48.1925" y2="24.2331" gradientUnits="userSpaceOnUse">
<stop stop-color="#2CB3FF"/>
<stop offset="0.0885417" stop-color="#2CA6FF"/>
<stop offset="0.2325" stop-color="#2DCAFC"/>
<stop offset="0.3947" stop-color="#32AEF3"/>
<stop offset="0.5382" stop-color="#3A7EE3"/>
<stop offset="0.6707" stop-color="#446ACD"/>
<stop offset="0.7958" stop-color="#4268B1"/>
<stop offset="0.9136" stop-color="#1F598E"/>
<stop offset="1" stop-color="#005D72"/>
</linearGradient>
<linearGradient id="paint3_linear_1_1196" x1="40.2845" y1="25.3549" x2="40.2845" y2="64.5019" gradientUnits="userSpaceOnUse">
<stop stop-color="#43991F"/>
<stop offset="1" stop-color="#4BFF00" stop-opacity="0"/>
</linearGradient>
<linearGradient id="paint4_linear_1_1196" x1="13.7962" y1="41.7423" x2="13.7962" y2="62.9672" gradientUnits="userSpaceOnUse">
<stop stop-color="#43991F"/>
<stop offset="1" stop-color="#4BFF00" stop-opacity="0"/>
</linearGradient>
<linearGradient id="paint5_linear_1_1196" x1="13.6821" y1="13.725" x2="13.6821" y2="19.9888" gradientUnits="userSpaceOnUse">
<stop stop-color="#43991F"/>
<stop offset="1" stop-color="#4BFF00" stop-opacity="0"/>
</linearGradient>
<linearGradient id="paint6_linear_1_1196" x1="10.5496" y1="15.5649" x2="10.5496" y2="19.1489" gradientUnits="userSpaceOnUse">
<stop stop-color="#43991F"/>
<stop offset="1" stop-color="#4BFF00" stop-opacity="0"/>
</linearGradient>
<linearGradient id="paint7_linear_1_1196" x1="58.1115" y1="43.9861" x2="58.1115" y2="51.6761" gradientUnits="userSpaceOnUse">
<stop stop-color="#43991F"/>
<stop offset="1" stop-color="#4BFF00" stop-opacity="0"/>
</linearGradient>
<linearGradient id="paint8_linear_1_1196" x1="36.7156" y1="0.353729" x2="36.7156" y2="37.8511" gradientUnits="userSpaceOnUse">
<stop stop-color="#43991F"/>
<stop offset="1" stop-color="#4BFF00" stop-opacity="0"/>
</linearGradient>
</defs>
</svg>
