<svg width="194" height="189" viewBox="0 0 194 189" fill="none" xmlns="http://www.w3.org/2000/svg">
<path fill-rule="evenodd" clip-rule="evenodd" d="M191.01 93.1091C191.01 102.183 189.827 110.863 187.46 118.951C182.725 135.521 173.651 150.119 161.223 161.56C152.544 169.648 142.089 176.158 130.647 180.497C120.389 184.443 109.145 186.613 97.5068 186.613C95.9286 186.613 94.1533 186.613 92.5751 186.415C90.208 186.218 87.6435 186.021 85.2764 185.824C67.3253 183.456 50.755 175.96 37.5382 164.716C32.6066 160.574 28.0695 155.839 23.9269 150.71C20.968 146.962 18.2062 142.82 15.8391 138.48C15.2473 137.494 14.6555 136.31 14.0637 135.324C13.4719 134.14 12.8801 133.154 12.4856 131.97C10.9075 128.42 9.52661 124.671 8.34302 120.923C7.55396 118.162 6.76488 115.4 6.17309 112.638C5.77856 110.666 5.38403 108.693 5.18676 106.523C4.59497 102.183 4.20044 97.8434 4.20044 93.3064C4.20044 90.7419 4.20046 88.1775 4.59499 85.613C4.79226 84.0349 4.79223 82.4568 5.18676 80.8786C6.37035 71.6072 8.93478 62.9275 12.6828 54.8397C14.4582 50.8944 16.6281 46.9491 18.9953 43.3983C22.9406 37.2831 27.4777 31.5624 32.8039 26.4335C49.5714 10.0605 72.6514 0 97.9013 0C98.8876 0 99.874 0 100.86 0C101.847 0 103.03 4.5121e-06 104.017 0.19727C109.343 0.591799 114.669 1.38086 119.6 2.56445C122.559 3.35351 125.518 4.14257 128.28 5.12889C130.253 5.72069 132.028 6.50975 134.001 7.29881C135.382 7.8906 136.763 8.4824 138.143 9.07419C138.341 9.27146 138.538 9.27146 138.932 9.46873C148.007 13.8086 156.292 19.7265 163.393 26.828C164.38 27.8144 165.366 28.8007 166.352 29.787C166.944 30.5761 167.733 31.1679 168.325 31.9569C169.509 33.1405 170.495 34.5214 171.481 35.705C175.229 40.4393 178.385 45.5682 181.147 50.8944C184.303 57.2069 186.868 63.9139 188.643 70.8181C190.024 77.9197 191.01 85.4157 191.01 93.1091Z" fill="url(#paint0_radial_303_610)"/>
<path opacity="0.5" fill-rule="evenodd" clip-rule="evenodd" d="M138.538 9.07431C138.143 9.07431 137.946 9.07431 137.552 9.27157C136.565 9.46884 135.579 9.27158 134.593 9.07431C133.803 8.87705 133.409 8.48252 132.423 8.48252C131.239 8.28525 130.253 7.89072 129.069 7.69346C127.886 7.49619 126.899 7.10166 125.716 6.70713C124.729 6.3126 124.335 6.50987 123.546 6.70713C122.757 6.9044 122.165 6.50986 121.376 6.3126C120.587 5.91807 119.6 5.91807 118.811 5.72081C116.444 5.32628 114.077 4.53721 111.71 3.94542C110.329 3.55089 108.948 3.55089 107.37 3.55089C106.186 3.55089 105.2 3.94542 104.017 3.94542C103.227 3.94542 102.636 3.74816 101.847 3.74816C101.058 3.55089 100.268 3.74816 99.4794 3.74816C98.2958 3.55089 97.704 3.35363 96.5204 3.74816C95.5341 3.94542 94.9423 3.94542 93.956 4.14269C92.9697 4.14269 91.7861 4.53722 90.7998 4.73448C89.0244 5.12901 87.0518 5.52354 85.2764 5.52354C84.0928 5.52354 82.5147 5.12901 81.5283 5.52354C80.9366 5.72081 80.542 6.50986 79.9502 6.90439C78.9639 7.89072 77.9776 8.67978 77.1885 9.66611C76.3994 10.6524 75.6104 11.836 75.6104 13.2169C75.6104 14.4005 76.2021 15.7813 76.7939 16.7676C77.3857 17.9512 77.583 18.9376 76.3994 19.7266C75.0186 20.7129 73.2432 21.502 71.6651 22.0938C70.4815 22.4883 69.4952 22.6856 68.7061 21.8965C68.3116 21.6993 68.1143 21.1075 67.7198 20.7129C67.3253 20.5157 66.7334 20.7129 66.3389 20.9102C65.1553 21.3047 63.9718 21.6993 62.7882 21.8965C61.9991 22.0938 61.4073 22.4883 60.6182 22.4883C59.8292 22.6856 59.2374 22.0938 58.251 22.2911C57.0674 22.4883 55.6866 23.0801 54.503 23.0801C53.5167 23.0801 52.3331 22.6856 51.544 22.2911C51.1495 22.0938 50.9522 21.6993 50.3604 21.8965C49.9659 21.8965 49.3741 22.4883 49.1768 22.8829C48.7823 23.2774 48.7823 23.8692 48.3878 24.2637C47.9933 24.8555 47.796 25.25 47.4015 25.8418C46.8097 26.8282 46.2179 27.8145 45.6261 28.8008C45.2316 29.3926 44.837 30.3789 44.2452 30.9707C44.0479 31.3653 43.4562 31.5625 43.0617 31.7598C42.0753 32.3516 41.089 33.1406 40.1027 33.7324C38.3273 35.1133 36.5519 36.6914 34.7765 38.0723C33.3957 39.0586 31.423 39.6504 29.8449 40.4394C28.8586 40.834 27.8722 41.2285 26.8859 41.623C26.4914 41.8203 25.8996 41.8203 25.7023 42.2148C25.3078 42.6094 25.1105 43.0039 24.9133 43.5957C24.1242 44.582 23.1379 45.7656 22.5461 46.9492C22.1515 47.7383 21.9543 48.3301 21.5597 49.1191C21.1652 50.1054 20.5735 51.0918 20.3762 52.2753C19.5871 54.4453 19.5871 56.8124 18.6008 58.9824C18.2062 60.166 17.4172 61.3495 16.8254 62.5331C15.8391 64.5058 15.6418 66.873 15.4446 69.0429C15.2473 70.2265 15.4445 71.8046 15.6418 72.9882C15.8391 74.369 15.8391 75.7499 15.8391 77.1307C15.8391 78.5116 14.8527 80.0897 14.0637 81.076C13.2746 82.0624 11.8938 82.4569 10.9074 83.4432C10.1184 84.2323 9.13204 85.0213 8.73751 86.2049C8.54025 86.5995 8.73751 87.1913 8.73751 87.7831C8.54025 88.9666 8.14574 89.953 8.14574 91.1366C7.94847 92.5174 7.94846 93.8983 7.94846 95.4764C7.94846 96.2654 7.94846 96.8572 7.94846 97.6463C7.94846 98.4354 8.14575 99.0272 8.34302 99.6189C8.34302 100.013 8.34302 100.605 8.34302 101C8.34302 101.592 8.73751 102.183 8.73751 102.578C9.13204 103.959 9.32935 105.142 9.52662 106.523C9.72388 107.707 10.3157 108.89 10.5129 110.074C11.1047 111.652 11.302 113.23 11.6965 115.006C11.8938 116.189 11.8938 117.57 12.091 118.754C12.2883 119.74 12.4856 120.726 12.4856 121.713C12.4856 123.291 12.091 124.672 12.091 126.25C12.091 128.814 13.0773 131.379 13.6691 133.943C13.8664 134.732 14.0637 135.324 14.261 136.113C7.75122 123.488 4.20044 109.088 4.20044 93.8983C4.20044 75.3554 9.52658 58.1933 18.798 43.793C22.7433 37.6777 27.2804 31.9571 32.6066 27.0254C49.3741 10.6524 72.4541 0.591919 97.704 0.591919C99.6767 0.591919 101.847 0.591916 103.819 0.789181C116.05 0.591916 127.886 3.94542 138.538 9.07431Z" fill="url(#paint1_linear_303_610)"/>
<path fill-rule="evenodd" clip-rule="evenodd" d="M44.0479 90.939C74.2295 95.6734 72.454 103.761 107.567 94.0953C142.68 84.4293 167.93 31.7595 167.93 31.7595C167.93 31.7595 169.706 27.8142 168.128 25.447C167.536 24.4607 162.999 26.4334 162.999 26.4334C163.788 43.3982 140.116 78.5113 113.288 88.5719C110.329 89.5582 107.567 89.9527 104.806 90.5445C103.622 89.9527 100.466 86.9937 115.063 77.1305C132.423 65.4918 140.116 61.152 138.538 48.9216C136.96 36.6912 152.346 17.5564 152.346 17.5564C152.346 17.5564 153.53 12.4276 150.571 9.27132C146.823 5.12875 138.538 9.27132 138.538 9.27132C138.538 9.27132 136.368 33.1404 106.186 45.9626C76.0049 58.7848 59.04 52.4724 47.5987 48.9216C35.96 45.3708 32.6065 26.2361 32.6065 26.2361C32.6065 26.2361 22.7433 24.2635 19.1925 30.3787C16.6281 34.9158 20.3761 40.6364 20.3761 40.6364C20.3761 40.6364 38.7217 47.3435 55.0947 53.6559C71.4677 59.9684 103.03 54.2477 114.077 48.9216C125.321 43.5954 125.321 34.9158 134.198 27.0252C137.946 23.8689 141.694 21.5017 144.85 20.1209C144.85 20.1209 134.987 35.3103 136.171 45.9626C137.354 56.6149 130.647 56.2204 114.077 74.9606C102.438 87.9801 92.3778 92.3199 87.4462 93.5035C74.8213 94.6871 63.1826 93.3062 47.5987 88.9664C22.1515 82.0621 6.96207 71.0153 6.96207 71.0153C6.96207 71.0153 4.79216 70.0289 4.0031 72.3961C3.60857 73.3825 5.97575 76.3414 5.97575 76.3414C5.97575 76.3414 13.8664 86.0074 44.0479 90.939Z" fill="url(#paint2_linear_303_610)"/>
<path fill-rule="evenodd" clip-rule="evenodd" d="M65.3528 180.498C65.3528 180.498 57.8568 175.763 52.3333 161.363C46.8099 146.963 47.4017 147.949 36.9467 138.875C26.4916 129.801 8.34327 120.924 8.34327 120.924C8.34327 120.924 7.15967 121.318 7.15967 121.713C7.15967 123.488 9.32959 123.883 9.32959 123.883C9.32959 123.883 26.2944 131.181 36.9467 142.82C47.599 154.459 59.0404 175.369 50.9525 174.185C50.9525 174.185 52.7279 179.314 57.0677 180.498C61.2103 181.681 65.3528 180.498 65.3528 180.498Z" fill="url(#paint3_radial_303_610)"/>
<path d="M139.722 110.863C143.272 107.115 147.415 102.183 164.38 101.986C181.344 101.789 190.024 105.537 190.024 105.537C190.024 105.537 193.575 104.551 193.969 100.013C194.364 95.4764 190.813 93.3065 190.813 93.3065C190.616 94.6873 188.84 104.156 174.44 98.6326C174.44 98.4353 179.569 93.8983 180.555 84.4295C181.739 74.9608 185.092 61.3495 185.092 61.3495C185.092 61.3495 187.065 57.996 185.881 55.2343C185.487 54.248 182.133 53.8535 182.133 53.8535C185.092 72.9882 177.794 95.8709 169.903 98.6326C160.434 98.8299 148.796 100.408 143.469 103.959C136.96 108.299 130.45 127.631 126.308 141.242C125.321 144.595 123.151 148.343 120.39 151.894C109.935 154.459 113.288 141.834 108.751 138.086C104.214 134.338 95.7314 136.31 90.0107 134.338C84.4873 132.168 82.9092 127.828 76.9912 127.039C71.0733 126.25 61.6046 137.494 50.755 132.957C39.9054 128.42 4.00316 85.8104 4.00316 85.8104C4.00316 85.8104 0.846924 85.0213 0.0578639 87.1912C-0.533931 88.9666 3.60867 93.5037 3.60867 93.5037C3.60867 93.5037 28.6613 131.181 52.5304 136.113C76.3994 141.045 98.0986 136.507 105.595 142.82C113.091 149.33 113.683 159.588 113.683 159.785C105.989 168.07 96.7178 175.171 92.3779 177.341C84.8819 181.089 72.6514 183.654 72.6514 183.654C74.4268 185.626 77.7803 187.205 81.3311 188.191C86.6572 189.572 90.0107 187.007 90.0107 187.007C90.0107 187.007 87.0517 184.443 90.997 181.089C101.058 172.607 108.356 169.056 118.811 166.492C125.124 164.914 127.097 167.873 127.886 166.886C137.749 170.043 145.442 162.744 153.727 155.839C162.012 149.132 172.862 148.146 172.862 148.146C172.862 148.146 178.385 147.16 179.964 144.793C181.344 142.623 178.188 140.058 178.188 140.058C178.188 140.058 173.454 142.031 164.38 146.568C155.503 151.105 145.837 164.322 134.79 163.927C128.675 163.73 130.056 157.615 129.464 156.629C129.464 156.234 129.464 155.839 129.464 155.248C129.266 150.908 128.28 146.765 128.28 143.609C128.28 142.82 128.28 142.031 128.477 141.242C130.056 136.31 136.171 114.414 139.722 110.863ZM120.587 151.697C118.614 154.261 116.444 156.826 114.077 159.39L120.587 151.697ZM129.069 158.404C129.266 159.39 129.464 160.377 129.267 161.56C129.267 162.152 129.069 162.546 128.675 162.744C128.28 162.941 128.083 162.941 127.688 162.941C127.294 163.138 126.702 163.138 126.308 163.336C125.518 163.533 124.729 163.336 124.138 163.336C123.348 163.336 122.559 163.336 121.77 163.336C121.376 163.336 120.981 163.138 120.587 163.138C120.192 163.138 119.601 163.138 119.403 162.941C118.614 162.546 118.022 161.56 117.431 161.363C117.431 160.574 117.431 159.982 117.825 159.39C117.825 159.193 118.022 158.996 118.022 158.601C118.22 158.207 118.22 157.812 118.417 157.418C118.811 156.431 119.206 155.445 119.995 154.656C120.192 154.261 120.587 153.67 120.784 153.275C121.179 152.683 121.573 152.289 121.968 151.894C122.559 151.302 123.151 150.711 123.94 150.316C124.532 149.922 125.518 149.527 126.308 149.724C127.097 149.922 127.294 150.908 127.491 151.5C127.688 151.894 127.688 152.486 127.886 152.88C128.083 153.472 128.28 154.064 128.477 154.656C128.675 155.445 128.675 156.037 128.872 156.826C128.872 157.22 128.872 157.812 129.069 158.404Z" fill="url(#paint4_linear_303_610)"/>
<path fill-rule="evenodd" clip-rule="evenodd" d="M22.5468 28.2091C22.5468 28.2091 26.6893 36.8888 37.5389 44.7794C37.5389 44.7794 33.9881 32.1544 31.4237 27.0255C31.4237 27.0255 27.8729 23.672 22.5468 28.2091Z" fill="#FFFF0E"/>
<path fill-rule="evenodd" clip-rule="evenodd" d="M79.5562 54.8396C79.5562 54.8396 86.8549 51.8807 89.2221 53.0642C89.2221 52.867 82.1206 54.8396 79.5562 54.8396Z" fill="#FFFF0E"/>
<path fill-rule="evenodd" clip-rule="evenodd" d="M104.215 47.9355C105.595 47.541 106.976 47.1464 108.16 46.5546C109.344 46.1601 110.33 45.5683 111.513 44.9765C112.894 44.1875 114.275 43.3984 115.459 42.4121C115.853 42.2148 116.051 42.0176 116.445 41.8203C116.84 41.623 117.234 41.2285 117.629 41.0312C118.023 40.834 118.22 40.4394 118.615 40.2422C119.009 40.0449 119.207 39.6504 119.601 39.4531C120.193 39.0586 120.785 38.4668 121.179 38.0723C121.377 37.875 121.574 37.6777 121.968 37.2832C122.166 37.0859 122.363 37.0859 122.56 37.0859C122.56 37.2832 122.363 37.6777 122.363 37.875C122.166 38.2695 121.968 38.4668 121.771 38.8613C121.377 39.6504 120.588 40.0449 119.996 40.834C119.601 41.2285 119.207 41.623 118.615 42.0176C118.023 42.4121 117.234 42.8066 116.445 43.2011C115.656 43.5957 114.867 43.7929 114.275 44.1875C113.683 44.582 112.894 44.9765 112.302 45.1738C111.908 45.3711 111.316 45.7656 110.922 45.9629C110.527 46.1601 110.133 46.3574 109.738 46.5546C109.146 46.9492 108.554 47.1464 107.963 47.541C107.568 47.7382 107.371 47.7382 106.976 47.9355C106.385 48.33 105.398 48.5273 104.609 48.5273C104.412 48.5273 104.017 48.5273 103.82 48.5273C103.623 48.5273 103.426 48.33 103.426 48.33C103.82 48.1328 104.017 47.9355 104.215 47.9355Z" fill="#FFFF0E"/>
<path fill-rule="evenodd" clip-rule="evenodd" d="M123.941 35.1134C123.547 35.3107 123.349 35.508 122.955 35.9025C122.955 36.0998 122.758 36.297 123.152 36.297C123.547 36.297 123.744 36.0998 124.138 35.7052C124.336 35.508 124.533 35.1134 124.336 34.9162C124.138 34.7189 123.744 34.9162 123.547 35.1134H123.941Z" fill="#FFFF0E"/>
<path fill-rule="evenodd" clip-rule="evenodd" d="M139.919 9.66601C139.722 10.0605 139.328 10.4551 139.13 10.8496C138.933 11.2441 138.933 11.4414 138.736 11.8359C138.539 12.4277 138.341 13.2168 138.144 13.8086C137.75 14.9922 137.552 16.373 136.96 17.5566C136.763 18.1484 136.566 18.5429 136.171 19.1347C135.974 19.332 135.777 19.7265 135.777 19.9238C135.58 20.1211 135.58 20.3183 135.382 20.7128C135.185 20.9101 135.185 21.1074 134.988 21.3047C134.791 21.5019 134.79 21.8964 134.593 22.0937C134.396 22.291 134.002 22.8828 134.199 23.08C134.396 23.08 134.396 22.8828 134.593 22.8828C134.79 22.6855 135.185 22.4882 135.382 22.0937C135.974 21.6992 136.369 21.1074 136.763 20.5156C136.96 20.3183 137.158 20.1211 137.355 19.7265C137.552 19.332 137.947 19.1347 138.144 18.7402C138.539 18.1484 139.13 17.5566 139.525 17.1621C139.722 16.9648 139.919 16.5703 140.117 16.373C140.314 16.1758 140.511 15.9785 140.709 15.584C141.498 14.7949 142.089 14.0058 142.878 13.2168C143.47 12.625 143.865 11.8359 144.456 11.2441C144.851 10.6523 145.246 10.0605 145.443 9.46875C145.64 9.27149 145.837 8.67969 145.837 8.48243C145.64 8.0879 145.246 7.89062 144.851 7.89062C144.259 7.89062 143.668 7.89062 143.076 7.89062C142.484 8.08789 142.089 8.28516 141.498 8.48243C141.103 8.67969 140.709 9.07422 140.117 9.27148C139.919 9.66601 139.525 9.86328 139.919 9.66601Z" fill="#FFFF0E"/>
<path fill-rule="evenodd" clip-rule="evenodd" d="M144.653 20.9104C144.456 21.3049 144.259 21.6995 144.061 22.094C143.864 22.2913 143.667 22.6858 143.469 22.883C143.075 23.4748 142.878 24.0666 142.483 24.4612C141.891 25.4475 141.102 26.4338 140.708 27.4201C140.51 27.8147 140.313 28.2092 140.116 28.6037C139.919 28.9983 139.721 29.5901 139.721 29.9846C139.524 30.3791 139.524 30.7736 139.327 31.3654C139.327 31.76 139.13 32.1545 139.13 32.549C139.524 32.1545 139.721 31.5627 140.116 31.1682C140.313 30.7737 140.51 30.3791 140.905 30.1819C141.299 29.9846 141.497 29.5901 141.694 29.1955C141.891 28.801 142.286 28.6037 142.483 28.2092C142.68 27.8147 142.878 27.6174 143.075 27.2229C143.272 27.0256 143.469 26.6311 143.667 26.2366C143.864 25.842 144.061 25.4475 144.258 25.053C144.456 24.2639 144.85 23.4748 145.048 22.6858C145.048 22.2912 145.245 21.8967 145.048 21.5022C145.048 21.3049 144.653 20.5159 144.653 20.9104Z" fill="#FFFF0E"/>
<path fill-rule="evenodd" clip-rule="evenodd" d="M138.144 33.7324C137.947 34.3242 137.749 34.7188 137.749 35.3106C137.749 35.5078 137.749 35.7051 137.749 35.7051C137.947 35.7051 138.144 35.7051 138.144 35.5078C138.341 35.5078 138.341 35.3106 138.341 35.1133C138.538 34.916 138.736 34.5215 138.538 34.127C138.538 33.7324 138.144 33.5352 137.946 33.9297L138.144 33.7324Z" fill="#FFFF0E"/>
<path fill-rule="evenodd" clip-rule="evenodd" d="M128.478 60.758C127.491 61.7443 126.111 62.7307 125.322 63.9143C125.322 64.1115 124.73 64.5061 124.927 64.7033C125.124 64.9006 125.519 64.7033 125.716 64.7033C126.308 64.5061 126.9 64.1115 127.491 63.9143C127.886 63.717 128.28 63.3225 128.675 63.1252C129.661 62.5334 130.45 61.7443 131.239 60.758C131.634 60.3635 131.831 59.969 132.028 59.5744C132.028 59.3772 132.226 58.9826 132.226 58.9826C132.029 58.3908 130.845 58.9826 130.648 59.1799C130.45 59.3772 130.056 59.5744 129.859 59.7717C129.661 59.969 129.464 60.1662 129.267 60.1662C129.07 60.3635 128.872 60.5608 128.478 60.758C128.478 60.9553 128.28 61.1526 128.478 60.758Z" fill="#FFFF0E"/>
<path fill-rule="evenodd" clip-rule="evenodd" d="M123.743 65.6893C123.349 65.8866 122.954 66.0839 122.757 66.2811C122.757 66.4784 122.363 66.6757 122.56 66.8729C122.757 67.0702 123.152 66.8729 123.152 66.8729C123.349 66.8729 123.546 66.6757 123.743 66.4784C123.743 66.0839 123.743 66.0839 123.743 65.6893Z" fill="#FFFF0E"/>
<path fill-rule="evenodd" clip-rule="evenodd" d="M99.4798 88.7693C98.6907 89.3611 97.7044 89.9529 96.7181 90.5447C95.5345 91.1365 94.351 91.531 93.3646 92.1228C91.5892 93.1091 89.8138 93.8982 88.0385 94.6872C87.8412 94.8845 85.0795 95.8708 86.0658 96.4626C86.4603 96.6599 87.0521 96.6599 87.4467 96.6599C87.8412 96.6599 88.2357 96.8571 88.6302 96.8571C89.0248 96.8571 89.4193 96.8571 89.8138 96.8571C91.9837 96.8571 94.351 96.2654 96.3236 95.4763C96.7181 95.279 97.3099 95.0818 97.7044 94.8845C97.9017 94.6872 98.0989 94.49 98.4935 94.2927C98.888 93.8982 99.2825 93.5036 99.4798 92.9118C99.8743 92.1228 100.072 91.531 100.072 90.5447C100.072 90.1501 99.8743 89.9529 99.6771 89.5584C99.6771 89.3611 99.4798 89.1638 99.4798 88.7693Z" fill="#FFFF0E"/>
<path fill-rule="evenodd" clip-rule="evenodd" d="M84.093 95.4764C83.6984 95.2792 83.1067 94.8846 82.5149 94.8846C82.3176 94.8846 82.1203 94.8846 81.923 94.8846C81.5285 94.8846 80.9367 95.0819 80.5422 95.2792C80.1477 95.6737 81.134 96.0682 81.5285 96.2655C81.9231 96.4628 82.7121 96.4628 83.1066 96.2655C83.5012 96.2655 84.093 95.871 84.093 95.4764C84.2902 95.4764 84.2902 95.4764 84.2902 95.4764H84.093Z" fill="#FFFF0E"/>
<path fill-rule="evenodd" clip-rule="evenodd" d="M112.696 89.3611C114.669 88.7693 116.642 87.9802 118.417 86.9939C119.206 86.5993 119.798 86.2048 120.587 85.8103C120.981 85.613 121.573 85.2185 121.968 85.0212C122.165 85.0212 123.349 84.2322 123.546 84.6267C123.743 85.0212 122.56 85.8103 122.362 86.0076C121.968 86.4021 121.376 86.7966 120.784 87.1912C120.39 87.5857 119.798 87.5857 119.403 87.9802C118.812 88.3747 118.22 88.572 117.431 88.9665C117.036 89.1638 116.444 89.3611 116.05 89.5583C115.655 89.7556 115.261 89.7556 114.866 89.9529C114.669 89.9529 114.274 89.9529 114.077 89.9529C113.683 89.7556 112.894 89.9529 112.696 89.3611Z" fill="#FFFF0E"/>
<path fill-rule="evenodd" clip-rule="evenodd" d="M156.686 100.211C157.672 100.211 158.856 100.408 159.842 100.211C160.631 100.013 161.223 100.013 162.012 99.8162C163.393 99.6189 164.971 99.2244 166.352 99.2244C166.944 99.2244 167.536 99.2244 168.127 99.2244C168.522 99.2244 168.916 99.2244 169.114 99.2244C169.311 99.2244 169.706 99.4217 169.706 99.619C170.1 100.013 169.705 100.013 169.508 100.013C168.916 100.211 168.522 100.605 167.93 100.605C166.944 100.803 166.155 101 165.168 101.197C164.577 101.197 163.985 101.197 163.196 101.197C162.407 101.394 161.618 101.394 160.631 101.394C159.842 101.394 159.25 101.394 158.461 101.394C157.87 101.394 157.475 101.197 156.883 101.197C156.489 101.197 156.094 101.197 155.897 101C156.094 101.197 155.7 100.803 156.686 100.211Z" fill="#FFFF0E"/>
<path fill-rule="evenodd" clip-rule="evenodd" d="M180.359 101.197C181.542 101.394 182.331 101.394 183.515 101.197C184.304 101 185.093 101 185.685 100.802C186.671 100.605 187.855 100.211 188.841 99.6188C189.433 99.2242 190.419 98.6324 191.011 98.8297C191.603 99.027 192.195 99.6188 192.195 100.211C192.195 101 191.406 101.394 191.011 101.789C190.222 102.38 188.841 102.775 187.855 102.775C186.671 102.775 185.29 102.578 184.107 102.38C183.712 102.38 183.318 102.183 182.923 102.183C182.529 101.986 181.739 101.986 180.359 101.197Z" fill="#FFFF0E"/>
<path fill-rule="evenodd" clip-rule="evenodd" d="M183.12 55.0372C183.12 55.8262 182.528 57.9962 183.514 58.5879C184.106 58.9825 184.303 57.9962 184.303 57.6016C184.501 57.0098 184.106 55.4317 183.12 55.0372Z" fill="#FFFF0E"/>
<path fill-rule="evenodd" clip-rule="evenodd" d="M6.9625 74.3688C7.94882 75.5524 8.54061 76.736 9.7242 77.3278C10.5133 77.7223 11.1051 78.3141 11.8941 78.5114C12.6832 78.7087 13.6695 78.9059 14.4586 78.9059C14.8531 78.9059 15.0504 78.9059 15.0504 78.3141C15.0504 78.1169 14.8531 77.7223 14.6558 77.5251C14.4586 77.1305 14.064 76.9333 13.6695 76.5387C13.275 76.1442 13.0777 75.7497 12.6832 75.3552C11.3023 74.1716 9.92149 73.3825 8.1461 72.7907C7.55431 72.5934 7.55429 72.5934 6.9625 72.7907C6.56797 72.988 6.56799 72.988 6.37073 73.3825C6.37073 73.9743 6.76525 74.5661 7.15978 75.1579L6.9625 74.3688Z" fill="#FFFF0E"/>
<path fill-rule="evenodd" clip-rule="evenodd" d="M7.7517 92.7149C9.13255 95.0821 10.9079 97.0548 12.6833 99.2247C13.8669 100.606 14.656 102.578 16.0368 103.959C16.2341 104.156 18.7985 106.326 18.7985 105.143C18.7985 104.945 18.0095 103.762 18.0095 103.565C17.615 102.973 17.2204 102.184 16.6286 101.592C16.2341 101 15.6423 100.606 15.4451 100.014C15.0505 99.422 14.656 99.0274 14.2615 98.4356C13.6697 97.8438 13.2751 96.8575 12.8806 96.2657C12.4861 95.6739 11.8943 94.8849 11.4998 94.2931C10.908 93.3067 10.1189 92.3204 9.13258 91.9259C8.93531 91.7286 8.54078 91.5314 8.14625 91.7286C7.15993 92.3204 7.55443 93.504 7.7517 92.7149Z" fill="#FFFF0E"/>
<path fill-rule="evenodd" clip-rule="evenodd" d="M97.7042 136.705C99.8741 136.31 101.452 135.916 103.622 136.508C104.608 136.705 105.595 137.099 106.581 137.297C107.173 137.494 108.159 137.691 108.554 138.086C108.948 138.677 108.948 139.467 108.356 139.861C107.765 140.453 106.384 140.256 105.595 140.256C104.017 140.058 102.636 139.861 101.058 139.467C100.269 139.269 99.085 138.875 98.296 138.283C98.0987 138.086 97.3096 137.297 97.7042 136.705Z" fill="#FFFF0E"/>
<path fill-rule="evenodd" clip-rule="evenodd" d="M126.307 147.752C125.321 147.554 125.124 145.582 125.518 144.793C125.716 144.398 125.913 143.609 126.505 143.412C126.899 143.215 127.096 143.609 127.491 143.609C127.096 144.595 126.505 145.385 125.913 146.174L126.307 147.752Z" fill="#FFFF0E"/>
<path fill-rule="evenodd" clip-rule="evenodd" d="M165.564 147.16C166.945 146.174 167.931 145.582 169.51 145.187C170.299 144.99 171.088 144.793 171.877 144.595C172.863 144.398 173.652 143.806 174.638 143.806C175.033 143.806 175.23 143.806 175.625 143.609C176.019 143.609 175.822 143.412 176.217 143.609C177.006 144.004 176.611 144.595 176.217 144.99C175.23 145.779 174.441 146.174 173.258 146.371C172.469 146.568 172.074 146.963 171.285 147.16C170.89 147.357 170.496 147.357 170.101 147.554C168.326 147.949 166.551 147.554 165.564 147.16Z" fill="#FFFF0E"/>
<path fill-rule="evenodd" clip-rule="evenodd" d="M40.1028 143.806C40.8919 145.581 41.6809 147.357 42.8645 148.935C43.4563 149.724 43.8508 150.316 44.6399 150.71C45.2317 150.908 45.8235 151.105 45.8235 150.119C45.8235 149.724 45.4289 148.935 45.2316 148.54C44.4426 147.16 43.4563 146.173 42.6672 144.99C42.2727 144.595 41.8782 143.806 41.4836 143.609C40.8918 143.412 39.9055 143.017 40.1028 143.806Z" fill="#FFFF0E"/>
<path fill-rule="evenodd" clip-rule="evenodd" d="M76.5972 183.654C78.7671 183.259 80.5425 182.47 82.5151 181.878C83.3042 181.484 84.0932 181.484 85.0795 181.484L85.2768 181.286C85.4741 181.286 85.8686 181.286 86.0659 181.286C86.2631 181.286 87.2495 181.089 87.4467 181.286C88.2358 181.878 86.6577 183.456 86.2631 183.654C84.8823 185.034 82.7124 185.823 80.5425 185.626C79.5561 185.429 78.5698 185.034 77.5835 184.837C76.9917 184.837 75.6108 184.443 75.6108 183.654C75.8081 183.851 75.8081 183.654 76.5972 183.654Z" fill="#FFFF0E"/>
<path fill-rule="evenodd" clip-rule="evenodd" d="M112.894 162.547C111.119 163.73 108.949 164.914 107.568 166.887C106.582 168.267 108.357 167.873 109.146 167.676C109.738 167.478 110.33 167.281 110.724 166.887C111.119 166.492 111.513 166.295 111.908 165.703C112.302 165.308 112.499 165.111 112.894 164.914C113.091 164.519 113.289 163.928 113.683 163.73C113.683 163.533 113.486 163.533 113.486 163.336L112.894 162.547Z" fill="#FFFF0E"/>
<path fill-rule="evenodd" clip-rule="evenodd" d="M61.9994 133.943C63.3803 133.351 64.7611 132.957 65.9447 132.168C67.1283 131.576 68.3119 130.787 69.4955 130.195C71.0737 129.406 72.6518 128.42 74.4272 128.222C75.019 128.222 75.6107 127.828 76.2025 128.222C76.7943 128.42 76.9916 128.617 77.3861 129.011C78.3725 130.392 76.3998 131.576 75.4135 132.168C74.6244 132.759 74.0326 133.351 73.0463 133.746C72.06 134.14 71.0736 134.338 70.0873 134.732C68.5092 135.324 66.7338 136.113 64.9584 136.31C63.9721 136.507 63.183 136.113 62.394 135.521C61.9995 135.324 61.6049 134.929 61.4077 134.535C61.2104 134.338 61.0131 133.943 61.9994 133.943Z" fill="#FFFF0E"/>
<defs>
<radialGradient id="paint0_radial_303_610" cx="0" cy="0" r="1" gradientUnits="userSpaceOnUse" gradientTransform="translate(39.6456 49.4151) scale(150.122 150.122)">
<stop offset="0.00558659" stop-color="#9D9D94"/>
<stop offset="0.2018" stop-color="#DFD2C1"/>
<stop offset="0.3542" stop-color="#C2B5A2"/>
<stop offset="0.4919" stop-color="#D5C8B5"/>
<stop offset="0.6209" stop-color="#A09277"/>
<stop offset="0.7437" stop-color="#847B60"/>
<stop offset="0.8606" stop-color="#736950"/>
<stop offset="0.942708" stop-color="#A09277"/>
</radialGradient>
<linearGradient id="paint1_linear_303_610" x1="4.06768" y1="67.4882" x2="138.503" y2="67.4882" gradientUnits="userSpaceOnUse">
<stop offset="0.0111732" stop-color="#D7CAB7"/>
<stop offset="0.2983" stop-color="#E1DAC0"/>
<stop offset="0.695" stop-color="#EDE0CE"/>
<stop offset="0.8659" stop-color="#C3B6A2"/>
<stop offset="1" stop-color="#9A968B"/>
</linearGradient>
<linearGradient id="paint2_linear_303_610" x1="3.64013" y1="52.8912" x2="168.747" y2="52.8912" gradientUnits="userSpaceOnUse">
<stop offset="0.00558659" stop-color="#FFB80B"/>
<stop offset="0.388" stop-color="#FFB60C"/>
<stop offset="0.5789" stop-color="#FEAE10"/>
<stop offset="0.7274" stop-color="#FCA117"/>
<stop offset="0.8539" stop-color="#FA8E21"/>
<stop offset="0.9655" stop-color="#F7762E"/>
<stop offset="1" stop-color="#F66D33"/>
</linearGradient>
<radialGradient id="paint3_radial_303_610" cx="0" cy="0" r="1" gradientUnits="userSpaceOnUse" gradientTransform="translate(18.1351 136.857) scale(47.4671 47.4671)">
<stop offset="0.00558659" stop-color="#FFB80B"/>
<stop offset="0.388" stop-color="#FFB60C"/>
<stop offset="0.5789" stop-color="#FEAE10"/>
<stop offset="0.7274" stop-color="#FCA117"/>
<stop offset="0.8539" stop-color="#FA8E21"/>
<stop offset="0.9655" stop-color="#F7762E"/>
<stop offset="1" stop-color="#F66D33"/>
</radialGradient>
<linearGradient id="paint4_linear_303_610" x1="0.458115" y1="121.024" x2="194.046" y2="121.024" gradientUnits="userSpaceOnUse">
<stop offset="0.00558659" stop-color="#FFB80B"/>
<stop offset="0.388" stop-color="#FFB60C"/>
<stop offset="0.5789" stop-color="#FEAE10"/>
<stop offset="0.7274" stop-color="#FCA117"/>
<stop offset="0.8539" stop-color="#FA8E21"/>
<stop offset="0.9655" stop-color="#F7762E"/>
<stop offset="1" stop-color="#F66D33"/>
</linearGradient>
</defs>
</svg>
