<svg width="218" height="424" viewBox="0 0 218 424" fill="none" xmlns="https://www.w3.org/2000/svg">
<path d="M134 212H154C162.837 212 170 219.163 170 228V234C170 240.627 164.627 246 158 246H146C139.373 246 134 240.627 134 234V212Z" fill="#8AC7E1"/>
<path d="M115 228C115 219.163 122.163 212 131 212H139C147.837 212 155 219.163 155 228V234C155 240.627 149.627 246 143 246H127C120.373 246 115 240.627 115 234V228Z" fill="#1C789F"/>
<path d="M83 212H103C111.837 212 119 219.163 119 228V234C119 240.627 113.627 246 107 246H95C88.3726 246 83 240.627 83 234V212Z" fill="#8AC7E1"/>
<path d="M64 228C64 219.163 71.1634 212 80 212H88C96.8366 212 104 219.163 104 228V234C104 240.627 98.6274 246 92 246H76C69.3726 246 64 240.627 64 234V228Z" fill="#1C789F"/>
<path d="M16 171C16 145.595 36.5949 125 62 125H168C193.405 125 214 145.595 214 171V200C214 213.255 203.255 224 190 224H40C26.7452 224 16 213.255 16 200V171Z" fill="#8AC7E1"/>
<path d="M16 159.5C16 140.446 31.4462 125 50.5 125V125C69.5538 125 85 140.446 85 159.5V200C85 213.255 74.2548 224 61 224H40C26.7452 224 16 213.255 16 200V159.5Z" fill="#1C789F"/>
<rect x="130" y="178" width="24" height="24" rx="8" fill="#1C789F"/>
<rect x="137" y="178" width="24" height="24" rx="8" fill="#B0DDF0"/>
<g clip-path="url(#clip0_102_363)">
<rect x="97" y="155" width="96" height="12" rx="4" fill="#07394F"/>
</g>
<rect x="99" y="115" width="34" height="20" rx="8" fill="#07394F"/>
<g clip-path="url(#clip1_102_363)">
<path d="M15 46C15 20.5949 35.5949 0 61 0H167C192.405 0 213 20.5949 213 46V99C213 112.255 202.255 123 189 123H39C25.7452 123 15 112.255 15 99V46Z" fill="#8AC7E1"/>
<path d="M15 34.5C15 15.4462 30.4462 0 49.5 0V0C68.5538 0 84 15.4462 84 34.5V99C84 112.255 73.2548 123 60 123H39C25.7452 123 15 112.255 15 99V34.5Z" fill="#1C789F"/>
<rect x="96" y="42" width="107" height="36" rx="8" fill="#07394F"/>
<rect x="112" y="50" width="12" height="20" rx="4" fill="#B0DDF0"/>
<rect x="175" y="50" width="12" height="20" rx="4" fill="#B0DDF0"/>
<rect x="135" y="93" width="30" height="10" rx="4" fill="#07394F"/>
</g>
<rect x="96" y="43" width="107" height="36" rx="8" fill="#07394F"/>
<rect x="112" y="67" width="12" height="4" rx="2" fill="#B0DDF0"/>
<rect x="175" y="67" width="12" height="4" rx="2" fill="#B0DDF0"/>
<defs>
<clipPath id="clip0_102_363">
<rect x="97" y="155" width="96" height="12" rx="4" fill="white"/>
</clipPath>
<clipPath id="clip1_102_363">
<rect width="198" height="123" fill="white" transform="translate(15)"/>
</clipPath>
</defs>
</svg>
