<svg width="218" height="424" viewBox="0 0 218 424" fill="none" xmlns="https://www.w3.org/2000/svg">
<path d="M131 212H151C159.837 212 167 219.163 167 228V234C167 240.627 161.627 246 155 246H143C136.373 246 131 240.627 131 234V212Z" fill="#8AC7E1"/>
<path d="M112 228C112 219.163 119.163 212 128 212H136C144.837 212 152 219.163 152 228V234C152 240.627 146.627 246 140 246H124C117.373 246 112 240.627 112 234V228Z" fill="#1C789F"/>
<rect x="125" y="246" width="20" height="149" fill="#07394F"/>
<path d="M137 399C137 396.791 138.791 395 141 395H161C167.627 395 173 400.373 173 407V420C173 422.209 171.209 424 169 424H141C138.791 424 137 422.209 137 420V399Z" fill="#8AC7E1"/>
<path d="M112 399C112 396.791 113.791 395 116 395H146C152.627 395 158 400.373 158 407V420C158 422.209 156.209 424 154 424H116C113.791 424 112 422.209 112 420V399Z" fill="#1C789F"/>
<path d="M80 212H100C108.837 212 116 219.163 116 228V234C116 240.627 110.627 246 104 246H92C85.3726 246 80 240.627 80 234V212Z" fill="#8AC7E1"/>
<path d="M61 228C61 219.163 68.1634 212 77 212H85C93.8366 212 101 219.163 101 228V234C101 240.627 95.6274 246 89 246H73C66.3726 246 61 240.627 61 234V228Z" fill="#1C789F"/>
<rect x="74" y="246" width="20" height="149" fill="#07394F"/>
<path d="M86 399C86 396.791 87.7909 395 90 395H110C116.627 395 122 400.373 122 407V420C122 422.209 120.209 424 118 424H90C87.7909 424 86 422.209 86 420V399Z" fill="#8AC7E1"/>
<path d="M61 399C61 396.791 62.7909 395 65 395H95C101.627 395 107 400.373 107 407V420C107 422.209 105.209 424 103 424H65C62.7909 424 61 422.209 61 420V399Z" fill="#1C789F"/>
<path d="M182 141H202C210.837 141 218 148.163 218 157V203C218 205.209 216.209 207 214 207H186C183.791 207 182 205.209 182 203V141Z" fill="#8AC7E1"/>
<path d="M163 157C163 148.163 170.163 141 179 141H187C195.837 141 203 148.163 203 157V203C203 205.209 201.209 207 199 207H167C164.791 207 163 205.209 163 203V157Z" fill="#1C789F"/>
<rect x="180.5" y="207" width="20" height="44" fill="#07394F"/>
<path d="M182 251H210C214.418 251 218 254.582 218 259V285C218 293.837 210.837 301 202 301H186C183.791 301 182 299.209 182 297V251Z" fill="#8AC7E1"/>
<path d="M163 259C163 254.582 166.582 251 171 251H195C199.418 251 203 254.582 203 259V285C203 293.837 195.837 301 187 301H179C170.163 301 163 293.837 163 285V259Z" fill="#1C789F"/>
<path d="M16 171C16 145.595 36.5949 125 62 125H168C193.405 125 214 145.595 214 171V200C214 213.255 203.255 224 190 224H40C26.7452 224 16 213.255 16 200V171Z" fill="#8AC7E1"/>
<path d="M16 159.5C16 140.446 31.4462 125 50.5 125V125C69.5538 125 85 140.446 85 159.5V200C85 213.255 74.2548 224 61 224H40C26.7452 224 16 213.255 16 200V159.5Z" fill="#1C789F"/>
<rect x="130" y="178" width="24" height="24" rx="8" fill="#1C789F"/>
<rect x="137" y="178" width="24" height="24" rx="8" fill="#B0DDF0"/>
<g clip-path="url(#clip0_102_538)">
<rect x="97" y="155" width="96" height="12" rx="4" fill="#07394F"/>
</g>
<rect x="99" y="115" width="34" height="20" rx="8" fill="#07394F"/>
<path d="M19 141H39C47.8366 141 55 148.163 55 157V203C55 205.209 53.2091 207 51 207H23C20.7909 207 19 205.209 19 203V141Z" fill="#8AC7E1"/>
<path d="M0 157C0 148.163 7.16344 141 16 141H24C32.8366 141 40 148.163 40 157V203C40 205.209 38.2091 207 36 207H4C1.79086 207 0 205.209 0 203V157Z" fill="#1C789F"/>
<rect x="17.5" y="207" width="20" height="77" fill="#07394F"/>
<path d="M19 284H47C51.4183 284 55 287.582 55 292V318C55 326.837 47.8366 334 39 334H23C20.7909 334 19 332.209 19 330V284Z" fill="#8AC7E1"/>
<path d="M0 292C0 287.582 3.58172 284 8 284H32C36.4183 284 40 287.582 40 292V318C40 326.837 32.8366 334 24 334H16C7.16344 334 0 326.837 0 318V292Z" fill="#1C789F"/>
<g clip-path="url(#clip1_102_538)">
<path d="M15 46C15 20.5949 35.5949 0 61 0H167C192.405 0 213 20.5949 213 46V99C213 112.255 202.255 123 189 123H39C25.7452 123 15 112.255 15 99V46Z" fill="#8AC7E1"/>
<path d="M15 34.5C15 15.4462 30.4462 0 49.5 0V0C68.5538 0 84 15.4462 84 34.5V99C84 112.255 73.2548 123 60 123H39C25.7452 123 15 112.255 15 99V34.5Z" fill="#1C789F"/>
<rect x="96" y="42" width="107" height="36" rx="8" fill="#07394F"/>
<rect x="133" y="48" width="34" height="23" fill="#07394F"/>
<rect x="112" y="50" width="12" height="20" rx="4" fill="#B0DDF0"/>
<rect x="175" y="50" width="12" height="20" rx="4" fill="#B0DDF0"/>
</g>
<rect x="142.338" y="86" width="20.6089" height="10" rx="4" transform="rotate(47.2077 142.338 86)" fill="#07394F"/>
<rect width="20.6089" height="10" rx="4" transform="matrix(0.679342 -0.733821 -0.733821 -0.679342 151.338 107.917)" fill="#07394F"/>
<defs>
<clipPath id="clip0_102_538">
<rect x="97" y="155" width="96" height="12" rx="4" fill="white"/>
</clipPath>
<clipPath id="clip1_102_538">
<rect width="198" height="123" fill="white" transform="translate(15)"/>
</clipPath>
</defs>
</svg>
