<svg width="218" height="424" viewBox="0 0 218 424" fill="none" xmlns="https://www.w3.org/2000/svg">
<path d="M134 212H154C162.837 212 170 219.163 170 228V234C170 240.627 164.627 246 158 246H146C139.373 246 134 240.627 134 234V212Z" fill="#8AC7E1"/>
<path d="M115 228C115 219.163 122.163 212 131 212H139C147.837 212 155 219.163 155 228V234C155 240.627 149.627 246 143 246H127C120.373 246 115 240.627 115 234V228Z" fill="#1C789F"/>
<path d="M83 212H103C111.837 212 119 219.163 119 228V234C119 240.627 113.627 246 107 246H95C88.3726 246 83 240.627 83 234V212Z" fill="#8AC7E1"/>
<path d="M64 228C64 219.163 71.1634 212 80 212H88C96.8366 212 104 219.163 104 228V234C104 240.627 98.6274 246 92 246H76C69.3726 246 64 240.627 64 234V228Z" fill="#1C789F"/>
<path d="M182 141H202C210.837 141 218 148.163 218 157V203C218 205.209 216.209 207 214 207H186C183.791 207 182 205.209 182 203V141Z" fill="#8AC7E1"/>
<path d="M163 157C163 148.163 170.163 141 179 141H187C195.837 141 203 148.163 203 157V203C203 205.209 201.209 207 199 207H167C164.791 207 163 205.209 163 203V157Z" fill="#1C789F"/>
<rect x="180.5" y="207" width="20" height="44" fill="#07394F"/>
<path d="M182 251H210C214.418 251 218 254.582 218 259V285C218 293.837 210.837 301 202 301H186C183.791 301 182 299.209 182 297V251Z" fill="#8AC7E1"/>
<path d="M163 259C163 254.582 166.582 251 171 251H195C199.418 251 203 254.582 203 259V285C203 293.837 195.837 301 187 301H179C170.163 301 163 293.837 163 285V259Z" fill="#1C789F"/>
<path d="M16 171C16 145.595 36.5949 125 62 125H168C193.405 125 214 145.595 214 171V200C214 213.255 203.255 224 190 224H40C26.7452 224 16 213.255 16 200V171Z" fill="#8AC7E1"/>
<path d="M16 159.5C16 140.446 31.4462 125 50.5 125V125C69.5538 125 85 140.446 85 159.5V200C85 213.255 74.2548 224 61 224H40C26.7452 224 16 213.255 16 200V159.5Z" fill="#1C789F"/>
<rect x="130" y="178" width="24" height="24" rx="8" fill="#1C789F"/>
<rect x="137" y="178" width="24" height="24" rx="8" fill="#B0DDF0"/>
<g clip-path="url(#clip0_102_434)">
<rect x="97" y="155" width="96" height="12" rx="4" fill="#07394F"/>
</g>
<rect x="99" y="115" width="34" height="20" rx="8" fill="#07394F"/>
<path d="M19 141H39C47.8366 141 55 148.163 55 157V203C55 205.209 53.2091 207 51 207H23C20.7909 207 19 205.209 19 203V141Z" fill="#8AC7E1"/>
<path d="M0 157C0 148.163 7.16344 141 16 141H24C32.8366 141 40 148.163 40 157V203C40 205.209 38.2091 207 36 207H4C1.79086 207 0 205.209 0 203V157Z" fill="#1C789F"/>
<rect x="17.5" y="207" width="20" height="77" fill="#07394F"/>
<path d="M19 284H47C51.4183 284 55 287.582 55 292V318C55 326.837 47.8366 334 39 334H23C20.7909 334 19 332.209 19 330V284Z" fill="#8AC7E1"/>
<path d="M0 292C0 287.582 3.58172 284 8 284H32C36.4183 284 40 287.582 40 292V318C40 326.837 32.8366 334 24 334H16C7.16344 334 0 326.837 0 318V292Z" fill="#1C789F"/>
<g clip-path="url(#clip1_102_434)">
<path d="M15 46C15 20.5949 35.5949 0 61 0H167C192.405 0 213 20.5949 213 46V99C213 112.255 202.255 123 189 123H39C25.7452 123 15 112.255 15 99V46Z" fill="#8AC7E1"/>
<path d="M15 34.5C15 15.4462 30.4462 0 49.5 0V0C68.5538 0 84 15.4462 84 34.5V99C84 112.255 73.2548 123 60 123H39C25.7452 123 15 112.255 15 99V34.5Z" fill="#1C789F"/>
<rect x="96" y="42" width="107" height="36" rx="8" fill="#07394F"/>
<rect x="133" y="48" width="34" height="23" fill="#07394F"/>
<rect x="112" y="50" width="12" height="20" rx="4" fill="#B0DDF0"/>
<rect x="175" y="50" width="12" height="20" rx="4" fill="#B0DDF0"/>
<rect x="135" y="93" width="30" height="10" rx="4" fill="#07394F"/>
</g>
<defs>
<clipPath id="clip0_102_434">
<rect x="97" y="155" width="96" height="12" rx="4" fill="white"/>
</clipPath>
<clipPath id="clip1_102_434">
<rect width="198" height="123" fill="white" transform="translate(15)"/>
</clipPath>
</defs>
</svg>
